<?xml version="1.0" encoding="UTF-8" standalone="no"?>
<svg
   xmlns:dc="http://purl.org/dc/elements/1.1/"
   xmlns:cc="http://creativecommons.org/ns#"
   xmlns:rdf="http://www.w3.org/1999/02/22-rdf-syntax-ns#"
   xmlns:svg="http://www.w3.org/2000/svg"
   xmlns="http://www.w3.org/2000/svg"
   xmlns:sodipodi="http://sodipodi.sourceforge.net/DTD/sodipodi-0.dtd"
   xmlns:inkscape="http://www.inkscape.org/namespaces/inkscape"
   id="svg15712"
   viewBox="0 0 100 100"
   version="1.1"
   inkscape:version="0.91 r13725"
   sodipodi:docname="BIke Inscape.svg">
  <defs
     id="defs9" />
  <sodipodi:namedview
     pagecolor="#ffffff"
     bordercolor="#666666"
     borderopacity="1"
     objecttolerance="10"
     gridtolerance="10"
     guidetolerance="10"
     inkscape:pageopacity="0"
     inkscape:pageshadow="2"
     inkscape:window-width="1366"
     inkscape:window-height="706"
     id="namedview7"
     showgrid="false"
     inkscape:zoom="7.22"
     inkscape:cx="50"
     inkscape:cy="66.620499"
     inkscape:window-x="-8"
     inkscape:window-y="-8"
     inkscape:window-maximized="1"
     inkscape:current-layer="svg15712" />
  <g
     id="layer1"
     transform="translate(0 -952.36)">
    <path
       id="path13691"
       style="block-progression:tb;color:#000000;text-transform:none;text-indent:0"
       d="m35.513 975.76c-3.0889-0.013-6.3123 0.6296-8.9194 0.2388-0.39302 0.015-0.71703 0.3624-0.71703 0.7567v0.4778c0 0.049 0.048 0.049 0.0804 0.079 1.2534 0.9784 2.4763 1.6967 3.902 2.3096 0.93424 0.2135 2.3365-0.8376 2.9863-1.1946 2.3581-0.863 5.5526-0.7509 7.7259-0.5576 0.06 0 0.17041-0.064 0.19981-0.1198 0.15301-0.3015 0.1242-0.5947 0-0.8759-1.5709-0.8531-3.4039-1.1083-5.2568-1.115zm1.8721 2.0308-0.79623 0.079c-0.036 0-0.0948 0.018-0.12 0.04l-1.5535 1.2744-3.7832 0.677-0.15901-0.1593c-0.042-0.033-0.1092-0.055-0.15961-0.04-0.16141 0.049-0.30361 0.059-0.43802 0.08-0.048 0.015-0.0786 0.034-0.1194 0.04-0.06 0.015-0.1422 0.062-0.15961 0.1197-0.012 0.06-0.012 0.1595 0.036 0.1991l0.63663 0.4779h0.036c0.0918 0.073 0.16441 0.1045 0.27901 0.079l2.1109-0.4779 0.47762 1.2743h0.23941l2.6677 8.4425-4.1414 6.1725c-2.7661-1.7641-6.0812-2.7875-9.5974-2.7875-9.835 0-17.841 8.02-17.841 17.82 0 9.8354 8.0055 17.841 17.841 17.841 8.1921 0 15.119-5.5615 17.204-13.102 0.61322 2.5093 2.8369 4.3806 5.5346 4.3806 1.3525 0 2.6035-0.4526 3.5845-1.2347l0.23881 0.2392h1.7521l-1.1148-1.1151c0.80283-0.9877 1.2739-2.2517 1.2739-3.6239 0-1.3565-0.48722-2.5621-1.2739-3.5442l17.681-20.589-0.43802 5.8938c-4.8128 3.1991-7.9641 8.6561-7.9641 14.854 0 9.8354 8.0049 17.841 17.84 17.841 9.8356 0 17.841-8.0052 17.841-17.841 0-9.8356-8.0055-17.841-17.841-17.841-2.1859 0-4.3136 0.3913-6.2516 1.115l-5.5742-13.34 4.2608-0.4779c0.21781 0.2517 0.51782 0.3982 0.87604 0.3982 0.65463 0 1.1946-0.5007 1.1946-1.1548s-0.54062-1.1946-1.1946-1.1946c-0.46922 0-0.84363 0.2806-1.035 0.6769l-5.0978 0.5974h-0.0798c-0.36241 0.085-0.58742 0.535-0.43802 0.876l1.9117 4.3807-28.354 3.0264-2.3101-7.3673h-0.036l-0.27841-0.8362 0.39842-0.04c0.0678-0.015 0.1056-0.038 0.15901-0.079l2.1505-1.7522c0.054-0.041 0.06-0.097 0.036-0.1593-0.024-0.062-0.054-0.1593-0.12-0.1593zm34.407 1.3143c0.111 0.2071 0.15901 0.4651 0.15901 0.7166 0 0.2516-0.048 0.4701-0.15901 0.6771h2.7037c2.1463 0 3.8636 1.7173 3.8636 3.8629 0 2.1457-1.7173 3.8628-3.8636 3.8628-0.37802-0.013-0.72783 0.3384-0.71703 0.7168 0.018 0.3651 0.35221 0.6881 0.71703 0.677 2.8981 0 5.2568-2.3585 5.2568-5.2566s-2.3587-5.2566-5.2568-5.2566zm-8.3229 9.1591 0.63662 2.3894-16.048 18.677c-0.74823-0.3579-1.5841-0.5575-2.4691-0.5575-0.58802 0-1.1382 0.1147-1.6723 0.2787l-5.695-18.15zm-26.403 3.1859 5.6948 18.119c-0.86763 0.5001-1.6057 1.2061-2.1103 2.0708 0-0.1728 0.036-0.3437 0.036-0.5177 0-5.8599-2.8315-11.042-7.2081-14.296zm-14.217 2.4691c3.3931 0 6.5709 1.0048 9.2392 2.708l-8.9602 13.301c-0.0906-0.02-0.18301-0.079-0.27901-0.079-0.70323 0-1.2745 0.5706-1.2745 1.2744 0 0.7037 0.57122 1.2743 1.2745 1.2743 0.35221 0 0.68523-0.1278 0.91624-0.3585l15.969 2.3098c-1.5157 7.9477-8.5035 13.978-16.885 13.978-9.484 0-17.203-7.7193-17.203-17.203 0-9.4842 7.7193-17.204 17.203-17.204zm54.318 0c9.4846 0 17.204 7.7194 17.204 17.203 0 9.4842-7.7193 17.204-17.204 17.204-9.484 0-17.203-7.7194-17.203-17.204 0-5.9076 2.9761-11.118 7.5273-14.217l8.5611 13.659c-0.0954 0.1786-0.15901 0.3413-0.15901 0.5576 0 0.7038 0.57062 1.2744 1.2739 1.2744 0.70383 0 1.2745-0.5706 1.2745-1.2744 0-0.6761-0.52862-1.232-1.1946-1.2742l-6.0932-14.814c1.8733-0.7006 3.9008-1.115 6.0134-1.115zm-44.044 3.4246c4.2092 3.1395 6.9285 8.1377 6.9285 13.779 0 0.6621-0.048 1.3083-0.1188 1.9513l-15.85-2.2698zm12.464 12.146c2.7733 0 5.0174 2.2442 5.0174 5.0176 0 1.1729-0.40082 2.2514-1.0746 3.1062l-1.6327-1.5929c-0.51302-0.5538-0.79623-1.0385-0.79623-1.3937 0-0.432 0.46262-1.0993 1.1946-1.7921-0.23101-0.344-0.53282-0.6451-0.87664-0.8762-0.69243 0.7319-1.3603 1.1948-1.7923 1.1948-0.43202 0-1.0992-0.4629-1.7917-1.1948-0.34381 0.231-0.64503 0.5322-0.87604 0.8762 0.73143 0.6928 1.194 1.3601 1.194 1.7921 0 0.4316-0.46262 1.0594-1.194 1.7522 0.23101 0.3434 0.53222 0.6449 0.87604 0.8759 0.69243-0.7313 1.3597-1.1547 1.7917-1.1547 0.37622 0 0.92284 0.3088 1.5139 0.8761l1.5127 1.5133c-0.84723 0.6528-1.9135 1.0353-3.0661 1.0353-2.7733 0-5.0174-2.2438-5.0174-5.0177 0-2.7734 2.2441-5.0176 5.0174-5.0176zm-0.0786 0.876-0.27901 0.239-0.27901-0.1992-0.19861 0.2788-0.31861-0.1593-0.15901 0.2789-0.31921-0.08-0.15901 0.2788-0.31861-0.04-0.12 0.3186-0.31861-0.04-0.0786 0.3585h-0.35881v0.3583l-0.31861 0.04v0.3585l-0.31861 0.079 0.0798 0.3584-0.31801 0.1198 0.0792 0.3186-0.27901 0.199 0.15961 0.3187-0.27901 0.1992 0.19921 0.2786-0.23881 0.2391 0.23881 0.2787-0.19921 0.2787 0.23941 0.239-0.16021 0.2787 0.27901 0.1992-0.15901 0.3186 0.31801 0.1593-0.0786 0.3185 0.31861 0.1198-0.036 0.3585 0.31861 0.079v0.3187l0.31861 0.08 0.036 0.3186h0.35821l0.0798 0.3186 0.31801-0.04 0.12 0.3186 0.35821-0.079 0.15901 0.2788 0.31921-0.1197 0.19921 0.2787 0.27841-0.1593 0.23881 0.239 0.27901-0.1991 0.23881 0.1991 0.23941-0.1991 0.31861 0.1593 0.19861-0.239 0.31861 0.1198 0.15901-0.2788 0.31921 0.1199 0.15901-0.3186 0.31861 0.08 0.12-0.3185-0.47762-0.4779c-0.51902 0.3208-1.137 0.5176-1.7929 0.5176-1.8781 0-3.3847-1.5069-3.3847-3.3849 0-1.8778 1.5067-3.4248 3.3847-3.4248 1.8787 0 3.3853 1.5469 3.3853 3.4248 0 0.6535-0.15781 1.2341-0.47762 1.7522l0.47762 0.4779 0.27841-0.08-0.0786-0.3186 0.31861-0.1593-0.12-0.3185 0.27901-0.1593-0.12-0.3187 0.23941-0.2388-0.15961-0.2788 0.23881-0.239-0.23881-0.2389 0.19921-0.2788-0.23941-0.2389 0.15901-0.3186-0.27781-0.1991 0.12-0.2786-0.27901-0.1993 0.0786-0.3185-0.31801-0.1198 0.036-0.3186-0.31861-0.08v-0.3584l-0.31801-0.04-0.036-0.3186h-0.35882l-0.0798-0.3185-0.31921 0.04-0.15901-0.3186-0.31861 0.079-0.15901-0.3186-0.31861 0.1197-0.19861-0.2388-0.27901 0.1593-0.23941-0.2788-0.27841 0.199zm0.1194 3.3849c0.46862 0 0.83583 0.4075 0.83583 0.8763 0 0.4683-0.36721 0.8362-0.83583 0.8362-0.46802 0-0.83643-0.3679-0.83643-0.8362 0-0.4688 0.36841-0.8763 0.83643-0.8763zm0 0.1593c-0.38522 0-0.67683 0.3321-0.67683 0.717s0.29161 0.6769 0.67683 0.6769 0.67683-0.2921 0.67683-0.6769c0-0.3852-0.29161-0.717-0.67683-0.717zm3.1855 5.5355c-0.28261 0-0.51722 0.1952-0.51722 0.4778v0.5576c0 0.2825 0.23461 0.5178 0.51722 0.5178h4.3808c0.28321 0 0.47822-0.2352 0.47822-0.5178v-0.5576c0-0.2824-0.19501-0.4778-0.47822-0.4778zm2.1913 0.1198c0.36001 0 0.63662 0.2768 0.63662 0.6372 0 0.3605-0.27661 0.6768-0.63662 0.6768-0.36122 0-0.67743-0.3163-0.67743-0.6768 0-0.3603 0.31621-0.6372 0.67743-0.6372zm0 0.3186c-0.18301 0-0.35881 0.1362-0.35881 0.3186 0 0.1831 0.17581 0.3583 0.35881 0.3583 0.18301 0 0.31801-0.1758 0.31801-0.3583 0-0.183-0.13621-0.3186-0.31801-0.3186zm-1.2751 0.079c0.14101 0 0.23881 0.097 0.23881 0.239 0 0.1406-0.0966 0.2788-0.23881 0.2788-0.14041 0-0.27841-0.1372-0.27841-0.2788 0-0.1406 0.1374-0.239 0.27841-0.239zm2.5489 0c0.1404 0 0.23881 0.097 0.23881 0.239 0 0.1406-0.0972 0.2788-0.23881 0.2788-0.14101 0-0.27901-0.1372-0.27901-0.2788 0-0.1406 0.1374-0.239 0.27901-0.239zm-3.2653 0.08c0.093 0 0.15901 0.064 0.15901 0.1593 0 0.093-0.0678 0.199-0.15901 0.199-0.0948 0-0.19981-0.1044-0.19981-0.199 0-0.093 0.1062-0.1593 0.19981-0.1593zm3.9818 0c0.093 0 0.15961 0.064 0.15961 0.1593 0 0.093-0.0672 0.199-0.15961 0.199-0.093 0-0.19861-0.1044-0.19861-0.199 0-0.093 0.1056-0.1593 0.19861-0.1593z"
       fill-rule="evenodd" />
  </g>
  <metadata
     id="metadata5">
    <rdf:RDF>
      <cc:Work>
        <dc:format>image/svg+xml</dc:format>
        <dc:type
           rdf:resource="http://purl.org/dc/dcmitype/StillImage" />
        <cc:license
           rdf:resource="http://creativecommons.org/licenses/publicdomain/" />
        <dc:publisher>
          <cc:Agent
             rdf:about="http://openclipart.org/">
            <dc:title>Openclipart</dc:title>
          </cc:Agent>
        </dc:publisher>
        <dc:title></dc:title>
        <dc:date>2013-04-16T09:31:51</dc:date>
        <dc:description>Sport bike</dc:description>
        <dc:source>https://openclipart.org/detail/177216/sport-bike-by-ribbla-177216</dc:source>
        <dc:creator>
          <cc:Agent>
            <dc:title>ribbla</dc:title>
          </cc:Agent>
        </dc:creator>
        <dc:subject>
          <rdf:Bag>
            <rdf:li>Sport-bike bike RibllaTeam</rdf:li>
          </rdf:Bag>
        </dc:subject>
      </cc:Work>
      <cc:License
         rdf:about="http://creativecommons.org/licenses/publicdomain/">
        <cc:permits
           rdf:resource="http://creativecommons.org/ns#Reproduction" />
        <cc:permits
           rdf:resource="http://creativecommons.org/ns#Distribution" />
        <cc:permits
           rdf:resource="http://creativecommons.org/ns#DerivativeWorks" />
      </cc:License>
    </rdf:RDF>
  </metadata>
  <path
     style="fill:none;fill-rule:evenodd;stroke:#000000;stroke-width:1px;stroke-linecap:butt;stroke-linejoin:miter;stroke-opacity:1"
     d="m 7.6495132,49.374131 0,0 0.2781641,0.417246 14.8817807,9.040334 -3.477052,-17.246176"
     id="path3337"
     inkscape:connector-curvature="0" />
  <path
     style="fill:none;fill-rule:evenodd;stroke:#000000;stroke-width:1px;stroke-linecap:butt;stroke-linejoin:miter;stroke-opacity:1"
     d="m 23.087622,58.970793 15.994436,-7.232267 0,0"
     id="path3339"
     inkscape:connector-curvature="0" />
  <path
     style="fill:none;fill-rule:evenodd;stroke:#000000;stroke-width:1px;stroke-linecap:butt;stroke-linejoin:miter;stroke-opacity:1"
     d="M 22.531293,58.970793 13.212796,73.574409"
     id="path3341"
     inkscape:connector-curvature="0" />
  <path
     style="fill:none;fill-rule:evenodd;stroke:#000000;stroke-width:1px;stroke-linecap:butt;stroke-linejoin:miter;stroke-opacity:1"
     d="m 23.087622,59.248957 4.450626,16.133519"
     id="path3343"
     inkscape:connector-curvature="0" />
  <path
     style="fill:none;fill-rule:evenodd;stroke:#000000;stroke-width:1px;stroke-linecap:butt;stroke-linejoin:miter;stroke-opacity:1"
     d="M 22.531293,59.248957 6.1196106,64.534075"
     id="path3345"
     inkscape:connector-curvature="0" />
  <path
     style="fill:none;fill-rule:evenodd;stroke:#000000;stroke-width:1px;stroke-linecap:butt;stroke-linejoin:miter;stroke-opacity:1"
     d="M 23.087622,59.527121 36.439499,69.958275"
     id="path3347"
     inkscape:connector-curvature="0" />
  <path
     style="fill:none;fill-rule:evenodd;stroke:#000000;stroke-width:1px;stroke-linecap:butt;stroke-linejoin:miter;stroke-opacity:1"
     d="M 22.531293,58.831711 13.073713,44.367177"
     id="path3349"
     inkscape:connector-curvature="0" />
  <path
     style="fill:none;fill-rule:evenodd;stroke:#000000;stroke-width:1.05055451px;stroke-linecap:butt;stroke-linejoin:miter;stroke-opacity:1"
     d="m 22.99557,58.678369 3.939319,-16.80041"
     id="path3351"
     inkscape:connector-curvature="0" />
  <path
     style="fill:none;fill-rule:evenodd;stroke:#000000;stroke-width:1px;stroke-linecap:butt;stroke-linejoin:miter;stroke-opacity:1"
     d="M 23.087622,59.666203 20.445063,75.938804"
     id="path3353"
     inkscape:connector-curvature="0" />
  <path
     style="fill:none;fill-rule:evenodd;stroke:#000000;stroke-width:1px;stroke-linecap:butt;stroke-linejoin:miter;stroke-opacity:1"
     d="M 23.922114,59.388039 5.5632823,57.162726"
     id="path3355"
     inkscape:connector-curvature="0" />
  <path
     style="fill:none;fill-rule:evenodd;stroke:#000000;stroke-width:1px;stroke-linecap:butt;stroke-linejoin:miter;stroke-opacity:1"
     d="M 23.64395,58.831711 40.194715,57.44089"
     id="path3357"
     inkscape:connector-curvature="0" />
  <path
     style="fill:none;fill-rule:evenodd;stroke:#000000;stroke-width:1px;stroke-linecap:butt;stroke-linejoin:miter;stroke-opacity:1"
     d="M 22.809458,58.970793 9.1794159,69.958275"
     id="path3363"
     inkscape:connector-curvature="0" />
  <path
     style="fill:none;fill-rule:evenodd;stroke:#000000;stroke-width:1px;stroke-linecap:butt;stroke-linejoin:miter;stroke-opacity:1"
     d="m 94.436718,59.248957 -17.246176,-0.417246 9.179416,-14.742698 0,0"
     id="path3365"
     inkscape:connector-curvature="0" />
  <path
     style="fill:none;fill-rule:evenodd;stroke:#000000;stroke-width:1px;stroke-linecap:butt;stroke-linejoin:miter;stroke-opacity:1"
     d="m 59.527121,59.109875 17.663421,0 -9.179415,14.603616"
     id="path3367"
     inkscape:connector-curvature="0" />
  <path
     style="fill:none;fill-rule:evenodd;stroke:#000000;stroke-width:1px;stroke-linecap:butt;stroke-linejoin:miter;stroke-opacity:1"
     d="m 77.05146,59.109875 9.318498,14.325452"
     id="path3369"
     inkscape:connector-curvature="0" />
  <path
     style="fill:none;fill-rule:evenodd;stroke:#000000;stroke-width:1px;stroke-linecap:butt;stroke-linejoin:miter;stroke-opacity:1"
     d="m 92.489569,50.764951 -15.159945,7.927678 -15.57719,7.927677"
     id="path3373"
     inkscape:connector-curvature="0" />
  <path
     style="fill:none;fill-rule:evenodd;stroke:#000000;stroke-width:1px;stroke-linecap:butt;stroke-linejoin:miter;stroke-opacity:1"
     d="M 78.581363,41.307371 77.190542,58.970793 76.912378,75.938804"
     id="path3375"
     inkscape:connector-curvature="0" />
  <path
     style="fill:none;fill-rule:evenodd;stroke:#000000;stroke-width:1px;stroke-linecap:butt;stroke-linejoin:miter;stroke-opacity:1"
     d="m 77.329624,58.692629 15.020863,8.623087"
     id="path3377"
     inkscape:connector-curvature="0" />
  <path
     style="fill:none;fill-rule:evenodd;stroke:#000000;stroke-width:1px;stroke-linecap:butt;stroke-linejoin:miter;stroke-opacity:1"
     d="M 77.329624,59.248957 61.752434,50.347705"
     id="path3379"
     inkscape:connector-curvature="0" />
  <path
     style="fill:none;fill-rule:evenodd;stroke:#000000;stroke-width:1px;stroke-linecap:butt;stroke-linejoin:miter;stroke-opacity:1"
     d="M 123.92211,35.326843 Z"
     id="path3381"
     inkscape:connector-curvature="0" />
  <path
     style="fill:none;fill-rule:evenodd;stroke:#000000;stroke-width:1px;stroke-linecap:butt;stroke-linejoin:miter;stroke-opacity:1"
     d="m 37.811634,38.365651 -0.554016,0.415512 -0.138504,0.138505"
     id="path3385"
     inkscape:connector-curvature="0" />
  <path
     style="fill:none;fill-rule:evenodd;stroke:#000000;stroke-width:1px;stroke-linecap:butt;stroke-linejoin:miter;stroke-opacity:1"
     d="m 36.703601,39.058172 0,-1.385042"
     id="path3387"
     inkscape:connector-curvature="0" />
  <path
     style="fill:none;fill-rule:evenodd;stroke:#000000;stroke-width:1px;stroke-linecap:butt;stroke-linejoin:miter;stroke-opacity:1"
     d="m 37.534626,35.734072 -0.831025,1.800554"
     id="path3389"
     inkscape:connector-curvature="0" />
  <path
     style="fill:none;fill-rule:evenodd;stroke:#000000;stroke-width:1px;stroke-linecap:butt;stroke-linejoin:miter;stroke-opacity:1"
     d="m 38.088643,36.149584 0.415512,2.354571"
     id="path3391"
     inkscape:connector-curvature="0" />
  <path
     style="fill:#d40000;fill-rule:evenodd;stroke:#000000;stroke-width:1px;stroke-linecap:butt;stroke-linejoin:miter;stroke-opacity:1"
     d="m 65.789474,32.963989 2.077562,4.847645"
     id="path3393"
     inkscape:connector-curvature="0" />
  <path
     style="fill:#d40000"
     d="M 19.847193,76.267929 C 16.305803,75.646543 12.999624,73.926874 10.40625,71.357341 6.9103722,67.8936 5.1244547,63.665551 5.1116542,58.822715 5.104103,55.965832 5.5522871,53.909769 6.7721791,51.204986 7.5505633,49.479129 7.3950934,49.738759 8.5826542,48.181551 12.088047,43.585048 17.204154,41.027458 22.89737,41.025488 c 3.082419,-0.0011 6.233638,0.822844 8.719548,2.279796 0.470441,0.275719 0.870057,0.483119 0.888035,0.460892 0.254377,-0.314496 3.711737,-5.593928 3.773994,-5.762933 0.04724,-0.128238 0.152241,-0.27731 0.233338,-0.331271 0.102686,-0.06832 0.09853,-0.147033 -0.0137,-0.259259 -0.08863,-0.08863 -0.133768,-0.232503 -0.100303,-0.319713 0.09157,-0.238626 -2.36933,-7.931479 -2.616209,-8.178358 -0.117727,-0.117727 -0.286232,-0.432763 -0.374453,-0.70008 -0.08822,-0.267316 -0.171154,-0.483901 -0.18429,-0.4813 -0.01314,0.0026 -0.5225,0.124864 -1.131918,0.271695 -1.062897,0.256089 -1.121782,0.256964 -1.445561,0.02147 -0.18564,-0.135023 -0.359644,-0.311848 -0.386677,-0.392945 -0.05887,-0.176597 0.593109,-0.325473 0.751699,-0.171648 0.06106,0.05922 0.979013,-0.04733 2.039906,-0.236781 1.923623,-0.343512 1.931136,-0.346324 2.747569,-1.02852 0.569405,-0.475784 0.941498,-0.684066 1.222072,-0.684066 0.22187,0 0.399773,0.04675 0.39534,0.103878 -0.01258,0.16214 -2.104105,1.788953 -2.42879,1.889143 -0.283784,0.08757 -0.275753,0.133482 0.372531,2.129956 0.364411,1.122252 0.95008,2.95978 1.301487,4.083395 l 0.638923,2.042936 0.539083,0 c 0.296496,0 3.4563,-0.313153 7.021788,-0.695894 3.565489,-0.382742 8.227859,-0.88135 10.360823,-1.108018 7.206253,-0.765802 10.52617,-1.13134 10.559328,-1.162631 0.01816,-0.01713 -0.40255,-1.01667 -0.934903,-2.22119 -1.007301,-2.279152 -1.088881,-2.572694 -0.785064,-2.824839 0.100568,-0.08347 1.331524,-0.285082 2.735457,-0.44804 2.276961,-0.264291 2.590815,-0.331995 2.906445,-0.626978 0.939511,-0.878052 2.451064,0.290474 1.69299,1.308788 -0.401095,0.538789 -0.87055,0.665468 -1.430654,0.386051 -0.430259,-0.214641 -0.603317,-0.214686 -2.547209,-6.65e-4 -1.147073,0.126295 -2.10304,0.243627 -2.124372,0.260738 -0.04686,0.03759 5.453332,13.216658 5.560684,13.324012 0.04146,0.04146 0.654634,-0.08698 1.362613,-0.285424 1.998981,-0.560299 3.132408,-0.68324 5.580862,-0.605341 2.415846,0.07686 3.789163,0.351517 5.955679,1.191103 4.767153,1.847407 8.800328,6.195351 10.359127,11.167605 1.193881,3.808239 1.010465,8.357004 -0.482119,11.956731 -2.796164,6.743621 -9.255075,11.10614 -16.439472,11.103654 -6.896027,-0.0024 -12.997295,-3.828798 -16.010517,-10.040995 -2.000763,-4.124864 -2.311609,-9.046964 -0.8469,-13.410253 1.054439,-3.141122 3.322734,-6.313044 5.95798,-8.331481 l 1.024197,-0.784471 0.0795,-0.786759 c 0.185354,-1.834268 0.388091,-5.030184 0.32321,-5.095064 -0.05989,-0.05989 -17.324574,19.953635 -17.59041,20.391106 -0.05174,0.08515 0.146427,0.619591 0.44038,1.187641 0.993715,1.920306 0.870483,3.941791 -0.354916,5.822011 -0.245266,0.37633 -0.244372,0.379683 0.234124,0.87914 l 0.480328,0.501369 -0.969529,-0.0393 c -0.86697,-0.03515 -1.072089,0.01104 -1.939058,0.43665 -0.917664,0.450492 -1.047329,0.475953 -2.423823,0.475953 -1.337288,0 -1.526758,-0.03434 -2.354967,-0.426844 -0.499289,-0.236622 -1.196861,-0.72303 -1.565292,-1.091462 -0.640298,-0.640295 -1.481403,-2.056535 -1.481403,-2.494362 0,-0.464576 -0.239866,-0.168361 -0.473467,0.584693 -1.252733,4.038403 -4.612435,8.049007 -8.455125,10.093203 -2.773556,1.475449 -4.763293,1.991416 -7.968915,2.066451 -1.611,0.03771 -2.628742,-0.0068 -3.449206,-0.150728 z m 6.268959,-0.564984 c 0.674826,-0.123633 1.164694,-0.263813 1.088597,-0.311511 -0.0761,-0.0477 -0.960572,-3.071264 -1.965497,-6.719034 -1.004925,-3.64777 -1.869845,-6.74776 -1.922044,-6.888867 -0.07229,-0.19541 -2.406732,13.564197 -2.380694,14.032205 0.01676,0.301225 3.311408,0.229478 5.179638,-0.112793 z m 54.581025,-0.06428 c 2.199057,-0.448035 5.300027,-1.751398 5.142655,-2.1615 -0.03904,-0.101743 -1.895637,-2.988558 -4.125768,-6.415147 l -4.054784,-6.230161 -0.08582,2.596536 c -0.0472,1.428096 -0.09423,4.123546 -0.104508,5.98989 -0.01028,1.866343 -0.05909,4.094529 -0.108471,4.951523 l -0.08978,1.558172 -0.40667,0 -0.40667,0 0.08293,-5.15928 c 0.04561,-2.837604 0.119096,-6.281163 0.163292,-7.652355 0.0442,-1.371191 0.05045,-2.461911 0.0139,-2.423822 -0.371268,0.38691 -8.10886,12.941911 -8.042358,13.049515 0.157221,0.254388 2.296844,1.186224 3.572647,1.555938 1.103561,0.319799 2.017997,0.496224 3.5417,0.68331 0.943876,0.115893 3.55034,-0.06607 4.907703,-0.342619 z M 21.310091,67.894476 c 0.700204,-4.302555 1.245552,-7.850376 1.211883,-7.884045 -0.03367,-0.03367 -0.113106,-0.003 -0.176527,0.06806 -0.232699,0.260873 -8.467331,13.244968 -8.467331,13.351008 0,0.154456 1.740324,1.050815 2.864937,1.475595 1.101905,0.416202 2.792929,0.875016 3.088464,0.837972 0.161584,-0.02025 0.477426,-1.696805 1.478574,-7.848585 z m 8.051053,6.843653 c 1.358094,-0.562186 2.649669,-1.291258 3.76905,-2.127567 1.044568,-0.780415 2.653137,-2.365084 2.591785,-2.553277 -0.05207,-0.159727 -11.618842,-9.248141 -11.685375,-9.181608 -0.08147,0.08147 3.906872,14.357592 4.011403,14.35865 0.06145,5.54e-4 0.652356,-0.222668 1.313137,-0.496198 z m 42.674524,-8.242424 c 2.303128,-3.664204 4.167832,-6.677812 4.143786,-6.696907 -0.09039,-0.07178 -14.026929,7.109278 -14.074565,7.252184 -0.0704,0.211215 1.032648,1.830587 2.092867,3.072499 0.861043,1.008601 3.188768,3.024141 3.500563,3.031079 0.08241,0.0018 2.03422,-2.99465 4.337349,-6.658855 z m 17.465717,4.31024 c 0.57133,-0.580697 1.367881,-1.532933 1.770114,-2.116078 L 92.002831,67.6296 91.687011,67.431053 C 91.51331,67.32185 88.597645,65.64351 85.207756,63.701406 c -3.389889,-1.942104 -6.408834,-3.675952 -6.708767,-3.852995 -0.425364,-0.251083 -0.526615,-0.273122 -0.460251,-0.10018 0.07798,0.203216 6.914558,10.765071 8.166187,12.615974 l 0.540377,0.799107 0.858651,-0.650777 c 0.472258,-0.357928 1.326102,-1.125894 1.897432,-1.70659 z M 15.636814,68.968144 c 1.372684,-2.152008 3.007678,-4.715863 3.63332,-5.697454 0.786704,-1.234284 1.028795,-1.704165 0.784962,-1.523546 -1.452811,1.076165 -10.1784471,8.185719 -10.1851407,8.298742 -0.017238,0.291071 2.7693987,2.818563 3.1202247,2.830057 0.08296,0.0027 1.27395,-1.755791 2.646634,-3.907799 z m 22.071,-1.451641 c 0.31639,-0.550826 0.788228,-1.494107 1.048528,-2.096179 0.477543,-1.104551 1.105222,-3.305759 0.978716,-3.432264 -0.09297,-0.09297 -15.216573,-2.281855 -15.434731,-2.233913 -0.09534,0.02095 2.58471,2.197266 5.955679,4.836249 l 6.129036,4.798152 0.37376,-0.435271 c 0.205568,-0.239399 0.632625,-0.885947 0.949012,-1.436774 z M 14.654116,64.98615 c 2.877785,-2.323408 5.32956,-4.300854 5.44839,-4.394325 0.118829,-0.09347 -0.157908,-0.04992 -0.614971,0.09678 -0.457064,0.146697 -3.479917,1.116834 -6.717452,2.155858 -3.2375345,1.039025 -5.9356342,1.935957 -5.995777,1.993184 -0.2545916,0.242248 2.2039477,4.535813 2.5288993,4.41644 0.065216,-0.02396 2.4731257,-1.944527 5.3509107,-4.267934 z m 32.980027,1.808398 c 1.152387,-0.502566 1.171209,-0.59444 0.304235,-1.485127 -1.060055,-1.08905 -1.752611,-1.56994 -2.259713,-1.56908 -0.404779,6.92e-4 -0.630525,0.111167 -1.529431,0.748502 -0.372961,0.264434 -0.373053,0.264422 -0.732231,-0.09476 l -0.359223,-0.359224 0.448606,-0.510934 c 0.882844,-1.005504 0.893355,-1.392845 0.06716,-2.474878 l -0.505507,-0.662043 0.352341,-0.35234 0.352342,-0.352343 0.596073,0.510218 c 0.979521,0.838433 1.546183,0.836339 2.482064,-0.0092 l 0.555787,-0.502121 0.411316,0.394066 0.411314,0.394065 -0.409558,0.423205 c -0.225256,0.232763 -0.50308,0.647446 -0.617385,0.921518 -0.191363,0.458833 -0.186561,0.541297 0.06062,1.040897 0.336889,0.680914 2.126325,2.476671 2.337746,2.346004 0.29151,-0.180162 0.86147,-1.488653 0.989701,-2.272117 0.169064,-1.032935 -0.04899,-2.216264 -0.599075,-3.251049 -0.502933,-0.94609 -1.257875,-1.647413 -2.318198,-2.15355 -0.656811,-0.313525 -0.943069,-0.363627 -2.077562,-0.363627 -1.12795,0 -1.425441,0.05143 -2.083882,0.360264 -1.493995,0.700741 -2.454872,1.882599 -2.857678,3.514885 -0.624393,2.530214 0.882169,5.133011 3.457632,5.973543 0.867643,0.283165 2.626607,0.175901 3.522503,-0.214809 z m 45.436842,-1.35826 c 0.648883,-1.573708 1.09849,-3.296816 1.225532,-4.696832 l 0.09,-0.991848 -0.745892,-0.07569 c -0.763873,-0.07751 -14.142702,-0.379448 -14.201647,-0.320502 -0.05351,0.05351 12.749643,7.40998 12.919212,7.423163 0.08579,0.0067 0.406543,-0.595562 0.712791,-1.338291 z m -18.53959,-5.804442 c 0.03174,-0.02605 -3.24413,-0.04736 -7.279714,-0.04736 l -7.337422,0 0.114889,1.072297 c 0.152927,1.427309 0.55959,3.099653 1.085121,4.462402 l 0.429746,1.114367 6.464834,-3.277174 c 3.555659,-1.802446 6.490805,-3.298487 6.522546,-3.324534 z M 16.267313,60.80747 c 2.190097,-0.701658 3.981994,-1.312356 3.981994,-1.357107 0,-0.06697 -14.1974362,-1.827513 -14.5986111,-1.810295 -0.3234349,0.01388 0.1384427,4.431565 0.6178017,5.909037 l 0.1404075,0.432763 2.9382068,-0.949328 c 1.6160131,-0.522131 4.7301041,-1.523413 6.9202011,-2.22507 z m 29.971085,2.024896 c 0.273914,-0.273916 0.333,-0.437191 0.263131,-0.727147 -0.259291,-1.076086 -1.736986,-0.91129 -1.736986,0.193712 0,0.313633 0.09585,0.522579 0.307827,0.671055 0.437305,0.306299 0.760219,0.268187 1.166028,-0.13762 z m -6.182996,-3.533061 c 0,-1.219075 -0.02778,-1.376834 -0.242383,-1.376582 -0.13331,1.38e-4 -2.828947,0.218173 -5.990304,0.484479 -3.161358,0.266306 -5.90374,0.491551 -6.094183,0.500546 -0.29008,0.0137 -0.301316,0.02794 -0.06925,0.08775 0.568644,0.146571 12.192503,1.787294 12.292244,1.735065 0.05713,-0.02992 0.103878,-0.673984 0.103878,-1.431261 z M 39.98427,48.153611 c -1.548788,-4.924658 -2.851974,-8.989921 -2.895969,-9.033916 -0.103088,-0.103087 0.07416,-0.347713 -1.917974,2.64706 l -1.737265,2.61163 1.70098,1.681999 c 0.940961,0.930461 2.009615,2.146138 2.391729,2.720779 1.844054,2.773171 2.85166,5.741428 3.032574,8.933518 l 0.08635,1.523546 1.077777,-1.065345 1.077777,-1.065346 -2.815978,-8.953925 z m 54.362803,9.125685 c -0.08873,-0.900886 -0.307429,-2.199861 -0.485998,-2.886613 -0.362076,-1.392488 -1.096772,-3.202155 -1.283252,-3.160844 -0.183856,0.04073 -13.745539,7.148553 -13.706226,7.183578 0.01882,0.01677 3.493361,0.109266 7.721201,0.20555 4.301075,0.09795 7.708587,0.230508 7.736034,0.30094 0.153928,0.394997 0.160514,-0.198097 0.01824,-1.642611 z M 21.284281,58.424217 C 20.843256,58.116307 8.1462938,50.414173 7.9650004,50.344578 7.758351,50.265249 7.119362,51.515281 6.5693744,53.074792 c -0.463503,1.314281 -0.9349603,3.436094 -0.7950333,3.578081 0.08658,0.08785 14.5099539,1.91448 15.3714359,1.946692 0.388409,0.01452 0.396245,0.0046 0.138504,-0.175348 z m 53.604916,-0.07381 c -0.228532,-0.142937 -3.064405,-1.769414 -6.301939,-3.614395 -3.237535,-1.84498 -6.089244,-3.477375 -6.337132,-3.627544 l -0.450706,-0.273036 -0.425161,0.94655 c -0.765727,1.704767 -1.209889,3.520073 -1.443118,5.898073 l -0.09169,0.934903 7.732632,-0.0023 c 7.618565,-0.0023 7.726501,-0.0062 7.317118,-0.262218 l 0,7e-6 z M 33.853338,57.52077 c 3.330554,-0.282528 6.083971,-0.542105 6.118705,-0.576838 0.214983,-0.214985 -0.889272,-4.561661 -1.158871,-4.561661 -0.129557,0 -11.777885,5.243894 -12.431632,5.596525 -0.366528,0.197705 -0.342655,0.203788 0.515967,0.13148 0.495152,-0.0417 3.625276,-0.306977 6.955831,-0.589506 z m -0.481839,-3.683935 5.158202,-2.334194 -0.552348,-1.024018 c -0.803555,-1.489738 -1.897329,-2.877908 -3.397895,-4.312458 -0.726684,-0.694715 -1.36563,-1.26055 -1.41988,-1.257412 -0.07993,0.0046 -8.28339,12.146406 -8.654662,12.809602 -0.059,0.10539 0.751249,-0.199644 1.800554,-0.677855 1.049304,-0.478211 4.229018,-1.91986 7.066029,-3.203665 z m 42.468482,3.912472 c -0.355144,-0.589252 -8.260426,-13.202619 -8.302128,-13.246559 -0.105586,-0.111254 -1.688155,1.176878 -2.690208,2.189695 -0.873475,0.882858 -2.708998,3.304007 -2.592872,3.420132 0.05447,0.05448 13.598036,7.801316 13.646753,7.805865 0.02354,0.0022 -0.0042,-0.07391 -0.06155,-0.169133 z m 9.589239,-3.784948 c 3.724234,-1.948413 6.789816,-3.56105 6.812405,-3.583639 0.126879,-0.126878 -1.796557,-2.71231 -2.708099,-3.640154 -1.079457,-1.098763 -2.496051,-2.253031 -2.765068,-2.253031 -0.07999,0 -1.917742,2.851454 -4.083904,6.336565 -4.48127,7.209858 -4.159188,6.682825 -4.084007,6.682825 0.03154,0 3.104439,-1.594155 6.828673,-3.542566 z M 20.518949,49.680465 c -0.830378,-4.113037 -1.511219,-7.524994 -1.512978,-7.582127 -0.0056,-0.180481 -0.406993,-0.114482 -1.502326,0.246993 -1.251363,0.412967 -3.902537,1.70565 -3.902537,1.902835 0,0.128607 8.35177,12.982168 8.403561,12.933266 0.01323,-0.01249 -0.655342,-3.387929 -1.48572,-7.500967 z m -3.673377,1.229981 c -2.183353,-3.342158 -3.991831,-6.100924 -4.018841,-6.130591 -0.198546,-0.218081 -3.1428696,2.662602 -4.0004836,3.914013 -0.4527776,0.660685 -0.514236,0.824254 -0.3462604,0.921563 0.112323,0.06507 2.915442,1.768569 6.229154,3.785555 3.313712,2.016986 6.043208,3.648992 6.065547,3.626679 0.02234,-0.02231 -1.745764,-2.775061 -3.929116,-6.117219 z m 35.27586,1.437199 c 7.619547,-8.873567 11.688995,-13.620664 11.867646,-13.843855 0.149868,-0.187233 0.127696,-0.425382 -0.131682,-1.414328 -0.275645,-1.050977 -0.348317,-1.189185 -0.625288,-1.189185 -0.172367,0 -4.818789,0.469667 -10.325382,1.043705 -5.506594,0.574037 -10.946892,1.139842 -12.089551,1.257344 -1.14266,0.117502 -2.206833,0.255522 -2.364829,0.306711 -0.274696,0.089 -0.16325,0.487933 2.54672,9.116347 l 2.833988,9.023275 1.331395,-0.06519 c 0.951327,-0.04658 1.509318,-0.0069 1.954665,0.138931 0.342797,0.112267 0.718804,0.210285 0.835572,0.217817 0.116767,0.0075 1.991803,-2.058675 4.166746,-4.59157 z m 29.820049,-1.963641 c 2.177338,-3.49863 3.958796,-6.401356 3.958796,-6.450501 0,-0.160993 -2.023789,-1.10738 -3.275798,-1.531863 -1.075172,-0.364528 -3.487838,-0.891928 -3.594108,-0.785658 -0.02118,0.02118 -0.291774,3.309248 -0.601328,7.306827 -0.309555,3.99758 -0.583299,7.441684 -0.60832,7.653565 -0.02502,0.211881 0.0012,0.336535 0.05823,0.277008 0.05705,-0.05953 1.885186,-2.970746 4.062524,-6.469378 z M 24.68086,49.473684 c 0.917612,-3.92313 1.700711,-7.236544 1.74022,-7.363142 0.08783,-0.28143 -0.173526,-0.346775 -2.119235,-0.529855 -1.210038,-0.113859 -4.255152,0.0162 -4.428079,0.18913 -0.047,0.047 2.841663,14.586809 2.961435,14.906083 0.04286,0.114266 0.100288,0.14543 0.127605,0.06925 0.02732,-0.07618 0.800443,-3.348338 1.718054,-7.271468 z m 52.850557,-0.381648 c 0.322421,-4.094109 0.555073,-7.475 0.517005,-7.513089 -0.03807,-0.03809 -0.670976,-0.0566 -1.406464,-0.04113 -1.446619,0.03042 -2.967961,0.282181 -4.563822,0.755238 -0.800741,0.237362 -0.993467,0.345279 -0.928419,0.519863 0.518653,1.392004 5.69366,13.821904 5.737009,13.779776 0.03216,-0.03125 0.322271,-3.40655 0.644691,-7.500661 z m -49.326341,1.075488 c 3.648725,-5.416661 3.944637,-5.899904 3.71755,-6.070971 -0.751174,-0.56587 -4.366431,-2.114428 -4.537337,-1.943523 -0.03227,0.03227 -0.779685,3.141718 -1.660926,6.909884 -0.88124,3.768168 -1.635914,6.944704 -1.677054,7.05897 -0.151815,0.42166 0.262195,-0.171244 4.157767,-5.95436 z"
     id="path3395"
     inkscape:connector-curvature="0" />
  <path
     style="fill:none;fill-rule:evenodd;stroke:#000000;stroke-width:1px;stroke-linecap:butt;stroke-linejoin:miter;stroke-opacity:1"
     d="m 38.088643,38.365651 -0.969529,0.692521 -0.831025,-1.939058"
     id="path3397"
     inkscape:connector-curvature="0" />
  <path
     style="fill:none;fill-rule:evenodd;stroke:#000000;stroke-width:1px;stroke-linecap:butt;stroke-linejoin:miter;stroke-opacity:1"
     d="m 36.288089,36.703601 1.108033,-0.831025 1.385041,2.354571 -1.385041,-2.354571"
     id="path3399"
     inkscape:connector-curvature="0" />
  <path
     style="fill:none;fill-rule:evenodd;stroke:#000000;stroke-width:1px;stroke-linecap:butt;stroke-linejoin:miter;stroke-opacity:1"
     d="M 38.365651,38.504155 Z"
     id="path3401"
     inkscape:connector-curvature="0" />
  <path
     style="fill:#000000;fill-rule:evenodd;stroke:#000000;stroke-width:1px;stroke-linecap:butt;stroke-linejoin:miter;stroke-opacity:1"
     d="m 37.534626,38.919668 0.831025,-0.831025 0,0"
     id="path3403"
     inkscape:connector-curvature="0" />
  <path
     style="fill:none;fill-rule:evenodd;stroke:#000000;stroke-width:1px;stroke-linecap:butt;stroke-linejoin:miter;stroke-opacity:1"
     d="m 65.65097,32.548476 1.939058,5.817175"
     id="path3405"
     inkscape:connector-curvature="0" />
  <path
     style="fill:#000000;fill-rule:evenodd;stroke:#000000;stroke-width:1px;stroke-linecap:butt;stroke-linejoin:miter;stroke-opacity:1"
     d="m 40.581717,59.556787 -0.69252,3.878116"
     id="path3407"
     inkscape:connector-curvature="0" />
  <path
     style="fill:#000000"
     d="M 19.626039,76.19226 C 17.738815,75.818417 15.260429,74.864935 13.808864,73.954283 7.9999266,70.309994 4.8487325,64.363561 5.2030101,57.714681 5.3736417,54.512366 6.6129328,50.859644 8.2809557,48.642659 11.634781,44.185058 16.03298,41.66345 21.318411,41.167929 c 3.308248,-0.310156 6.693173,0.351336 9.722186,1.899939 0.793242,0.40555 1.488043,0.68832 1.543999,0.628377 0.154529,-0.165538 3.10734,-4.63499 3.297551,-4.991259 0.233152,-0.436699 0.365465,-0.39066 0.597091,0.207756 l 0.201038,0.519391 -1.644783,2.468001 -1.644781,2.468001 1.780927,1.834328 c 0.979511,1.00888 2.066732,2.266702 2.416051,2.795157 1.768791,2.675872 2.678199,5.514714 2.965223,9.256347 l 0.08387,1.093303 1.111806,-1.111806 1.111806,-1.111806 -2.707828,-8.568755 c -1.489306,-4.712814 -2.745744,-8.665779 -2.792084,-8.784365 -0.05913,-0.151307 0.07142,-0.297591 0.43771,-0.490483 l 0.521964,-0.27487 0.451806,1.557073 c 0.479484,1.652452 3.915725,12.672163 4.625166,14.832479 l 0.42073,1.281163 1.450791,0 c 0.797936,0 1.739995,0.07282 2.093464,0.161827 l 0.642672,0.161827 0.965583,-1.027478 c 0.531071,-0.565113 4.169939,-4.761604 8.086375,-9.325536 7.081107,-8.25181 7.120275,-8.300827 7.027732,-8.795013 -0.05119,-0.273326 -0.196462,-0.808591 -0.32284,-1.189477 l -0.229778,-0.692521 -1.156319,0.03146 c -0.879669,0.02394 -20.116989,1.95533 -23.220412,2.331288 -0.488923,0.05923 -0.517401,0.048 -0.242383,-0.09558 0.171399,-0.08948 0.31059,-0.199913 0.309313,-0.245405 -0.0012,-0.04549 -0.275513,-0.550164 -0.609418,-1.121494 l -0.607097,-1.038781 2.306094,-0.245408 c 18.748201,-1.995127 24.374042,-2.602614 24.610531,-2.657481 0.255782,-0.05934 0.371561,0.204424 1.233551,2.810302 l 0.951274,2.875794 -4.076595,4.702579 c -3.386615,3.906647 -6.524531,7.556514 -12.343079,14.356854 l -0.675952,0.79001 0.52415,1.149048 c 0.499054,1.09403 0.524314,1.218684 0.527559,2.603343 0.0033,1.412518 -0.01188,1.484912 -0.528768,2.520179 l -0.532176,1.065885 0.375485,0.492287 0.375486,0.492287 -0.928128,0 c -0.728536,0 -1.131712,0.08935 -1.874833,0.415512 -0.853376,0.374549 -1.089025,0.415513 -2.39029,0.415513 -1.347158,0 -1.502881,-0.02963 -2.331356,-0.443595 -0.488274,-0.243976 -1.171188,-0.727009 -1.517586,-1.073407 -0.66421,-0.66421 -1.630644,-2.392486 -1.383853,-2.474749 0.07912,-0.02638 0.148029,-0.182996 0.153126,-0.348046 0.0056,-0.181184 0.08154,-0.06883 0.191669,0.283558 0.427553,1.368064 1.481803,2.583506 2.816191,3.246777 0.56581,0.281241 0.847867,0.323356 2.107528,0.314675 1.510439,-0.01042 2.451914,-0.270747 2.890575,-0.799299 0.216296,-0.260622 0.008,-0.553525 -1.159273,-1.62978 -1.201435,-1.107798 -1.697195,-1.204997 -2.747777,-0.538738 -0.775104,0.491556 -0.807173,0.495598 -1.127128,0.142052 -0.237828,-0.262796 -0.237315,-0.287774 0.01316,-0.640622 0.917139,-1.291986 0.930147,-1.415131 0.255395,-2.417807 -0.269504,-0.400482 -0.518276,-0.773888 -0.552827,-0.829794 -0.03455,-0.0559 0.09683,-0.206256 0.29197,-0.334113 0.334087,-0.218902 0.375441,-0.217765 0.708685,0.01948 1.293492,0.920858 1.634311,0.954748 2.520119,0.250599 0.334474,-0.265881 0.646108,-0.482034 0.692521,-0.48034 0.04641,0.0017 0.232238,0.116779 0.412945,0.255744 l 0.328558,0.252663 -0.493518,0.717449 c -0.271435,0.394597 -0.533164,0.842362 -0.581618,0.995031 -0.130381,0.410792 0.455352,1.30967 1.517428,2.328681 0.875891,0.840373 0.931846,0.871183 1.177856,0.648547 0.298454,-0.270098 0.796882,-1.552816 0.919168,-2.365501 0.114352,-0.759973 -0.131639,-1.983025 -0.585108,-2.909132 -0.440334,-0.899278 -1.250227,-1.691697 -2.287196,-2.237842 -0.675317,-0.355673 -0.866117,-0.389457 -2.193935,-0.388461 -1.802534,0.0014 -2.434146,0.266076 -3.709207,1.554626 -0.81675,0.825389 -0.89922,0.873569 -1.350416,0.788924 -0.477782,-0.08963 -0.480541,-0.09443 -0.480541,-0.836509 l 0,-0.746358 -0.452106,0 c -0.555663,0 -10.404047,0.787545 -11.459252,0.916363 -0.702188,0.08572 -0.729271,0.101714 -0.34626,0.204476 0.484003,0.129856 9.661888,1.453204 11.054497,1.593934 l 0.943694,0.09536 -0.09387,0.568616 c -0.05163,0.312738 -0.102376,0.579051 -0.112778,0.591808 -0.0104,0.01276 -0.321705,-0.03337 -0.691784,-0.102513 -1.513816,-0.282811 -14.255507,-2.080217 -14.463107,-2.040238 -0.273817,0.05273 1.055977,1.15582 7.292229,6.049025 3.625658,2.844831 4.66163,3.592749 4.808097,3.471194 0.579222,-0.480712 2.088614,-3.264744 2.612781,-4.819207 0.204965,-0.607843 0.392384,-0.935453 0.553062,-0.966761 0.282506,-0.05505 0.264804,0.02763 -0.351151,1.640155 -1.523552,3.98855 -5.070524,7.765379 -9.04667,9.632929 -2.602964,1.222583 -3.691967,1.451889 -7.214145,1.519044 -1.523546,0.02905 -3.081718,-0.0089 -3.462604,-0.08437 z m 6.476764,-0.45363 c 0.515129,-0.100863 0.972892,-0.219681 1.017252,-0.264041 0.04436,-0.04436 -0.543898,-2.282171 -1.307243,-4.972913 -0.763345,-2.690741 -1.622632,-5.749738 -1.909527,-6.797769 -0.286894,-1.048032 -0.566536,-1.858281 -0.621428,-1.800554 -0.166069,0.174648 -2.340029,12.860833 -2.340029,13.655284 0,0.21208 0.0951,0.377862 0.242383,0.42251 0.411307,0.124691 3.928997,-0.04875 4.918592,-0.242517 z m -6.01296,-0.546566 c 0.159996,-0.635403 1.977743,-11.593338 2.232926,-13.460762 0.08328,-0.609418 0.181781,-1.248269 0.2189,-1.419668 0.125421,-0.579156 -0.198176,-0.316565 -0.853414,0.692521 -4.022258,6.194407 -7.828463,12.321725 -7.761875,12.495249 0.167603,0.436766 4.739363,2.262753 5.717843,2.283739 0.234216,0.005 0.326265,-0.117071 0.44562,-0.591079 z m 10.053902,-0.775265 c 0.766508,-0.363998 1.857934,-0.979914 2.425391,-1.368702 0.983802,-0.674042 3.192637,-2.710508 3.192637,-2.943496 0,-0.213197 -11.614514,-9.339579 -11.7339,-9.220194 -0.09119,0.09119 3.725639,13.913378 3.937281,14.258395 0.109306,0.178188 0.663335,-0.0064 2.178591,-0.726003 z M 14.013664,71.530237 c 2.124861,-3.197238 6.097139,-9.513128 6.097139,-9.694402 0,-0.118201 -0.375766,0.0974 -0.934903,0.536407 -2.103064,1.65123 -8.848474,7.176018 -9.097297,7.451088 -0.2673134,0.295511 -0.2667807,0.296792 0.415513,0.999568 0.905324,0.932502 2.248857,2.058047 2.456288,2.057754 0.09127,-1.28e-4 0.569734,-0.607815 1.06326,-1.350415 z m 0.749135,-6.572589 c 2.961613,-2.377172 5.314202,-4.345647 5.227977,-4.374389 -0.08623,-0.02874 -2.905174,0.831172 -6.264327,1.910918 -5.8657486,1.885453 -7.0505487,2.290959 -7.0505487,2.413096 0,0.537374 2.2791311,4.372505 2.59848,4.372505 0.057017,0 2.5268057,-1.944958 5.4884187,-4.32213 z m -2.47748,-2.819602 c 7.321826,-2.362172 7.983624,-2.59002 7.861761,-2.706698 -0.111691,-0.106941 -13.3835704,-1.785919 -14.1172158,-1.785919 -0.3358251,0 -0.4425771,0.06809 -0.4886255,0.311635 -0.1440591,0.761929 0.3643341,4.780062 0.7247308,5.727978 0.093727,0.246519 0.2048547,0.327311 0.3754122,0.272933 0.1332511,-0.04248 2.6730227,-0.861451 5.6439373,-1.819929 z m 33.959217,0.746399 c 0.595137,-0.559104 0.255217,-1.499403 -0.542037,-1.499403 -0.560692,0 -0.937956,0.35243 -0.937956,0.876211 0,0.85694 0.850136,1.214912 1.479993,0.623192 z M 21.419668,58.486464 C 21.290677,58.360497 12.977633,53.28481 9.6049259,51.272749 l -1.7108636,-1.020652 -0.2564209,0.33794 c -0.4287971,0.565118 -1.3350053,3.023039 -1.6722972,4.535797 -0.3630777,1.628407 -0.3748259,1.601472 0.7599323,1.742327 0.3918181,0.04863 3.5794325,0.456752 7.0835875,0.906925 6.363528,0.817511 7.863004,0.957666 7.610804,0.711378 z m 6.734947,-0.424386 c 0.794048,-0.07555 3.656327,-0.325115 6.36062,-0.554581 2.704294,-0.229465 5.063782,-0.450976 5.243307,-0.492246 0.304275,-0.06995 0.319808,-0.119216 0.229066,-0.726583 -0.125428,-0.839538 -0.704547,-3.072043 -0.918981,-3.542674 -0.09115,-0.200048 -0.222713,-0.363723 -0.292368,-0.363723 -0.309245,0 -12.570066,5.572433 -12.570762,5.713297 -6.92e-4,0.135015 0.217553,0.131266 1.949118,-0.03349 z m -2.410734,-0.739406 c 1.977533,-0.841187 12.578005,-5.664589 12.704119,-5.780597 0.152112,-0.139927 -0.796526,-1.825845 -1.7141,-3.046292 -0.697748,-0.92806 -3.334425,-3.594733 -3.549678,-3.590059 -0.0678,0.0015 -0.808876,1.011636 -1.646826,2.244809 -3.133001,4.610696 -6.99446,10.421647 -6.99446,10.525679 0,0.155687 0.01237,0.152046 1.200945,-0.35354 z M 19.40974,54.785328 c -4.006151,-6.228394 -6.554457,-10.020785 -6.733491,-10.020785 -0.281248,0 -3.360334,3.112361 -3.8980044,3.94013 -0.2448158,0.376906 -0.4264539,0.741281 -0.4036402,0.809722 0.050859,0.152579 12.3173166,7.596084 12.3930656,7.520335 0.02976,-0.02976 -0.581311,-1.041988 -1.35793,-2.249402 z m 2.592428,2.063702 c -0.0365,-0.13331 -0.703566,-3.483379 -1.482369,-7.444598 -0.778805,-3.961219 -1.471498,-7.263024 -1.53932,-7.337344 -0.2104,-0.230563 -1.81404,0.283456 -3.653127,1.170946 -0.949434,0.45817 -1.726244,0.901756 -1.726244,0.985748 0,0.139289 2.876215,4.648689 6.726968,10.546708 1.399871,2.144115 1.842513,2.693697 1.674092,2.07854 z m 2.745284,-7.444714 c 0.953998,-4.02833 1.734542,-7.370464 1.734542,-7.426965 0,-0.157662 -0.369336,-0.239848 -1.800554,-0.400662 -1.325716,-0.148959 -4.392872,-0.0547 -4.715875,0.144924 -0.128325,0.07931 0.188471,1.898684 1.300434,7.468451 1.377271,6.898683 1.561515,7.723882 1.694767,7.590629 0.02868,-0.02868 0.832686,-3.348048 1.786686,-7.376377 z m 2.162642,2.770199 c 3.526409,-5.193728 5.129806,-7.700337 5.082565,-7.945635 -0.06416,-0.333144 -3.80732,-2.095916 -4.450577,-2.095916 -0.125542,0 -0.27986,0.334198 -0.431698,0.934903 -0.346437,1.370581 -3.121464,13.082399 -3.121464,13.173931 0,0.191361 0.542948,-0.56461 2.921174,-4.067283 z"
     id="path3409"
     inkscape:connector-curvature="0" />
  <path
     style="fill:none;fill-rule:evenodd;stroke:#000000;stroke-width:1px;stroke-linecap:butt;stroke-linejoin:miter;stroke-opacity:1"
     d="M 71.052632,42.105263 67.451524,44.32133"
     id="path3411"
     inkscape:connector-curvature="0" />
  <path
     style="fill:none;fill-rule:evenodd;stroke:#000000;stroke-width:1px;stroke-linecap:butt;stroke-linejoin:miter;stroke-opacity:1"
     d="m 75.623269,57.617729 1.108033,-0.554017 0,-0.554017 -1.246537,0.415513"
     id="path3413"
     inkscape:connector-curvature="0" />
  <path
     style="fill:#000000"
     d="m 71.893373,51.361308 c -1.771886,-2.828359 -3.427042,-5.465814 -3.678125,-5.86101 l -0.456514,-0.718539 1.60285,-0.994535 c 0.893912,-0.554653 1.654435,-0.941337 1.719479,-0.874259 0.06414,0.06615 0.364532,0.743545 0.667525,1.505318 0.302993,0.761772 1.495604,3.651136 2.650246,6.420806 1.154642,2.769671 2.061678,5.073437 2.015636,5.119479 -0.04604,0.04604 -0.357263,0.187551 -0.6916,0.314463 l -0.607886,0.230749 -3.221611,-5.142472 z"
     id="path3415"
     inkscape:connector-curvature="0" />
  <path
     style="fill:#000000"
     d=""
     id="path3417"
     inkscape:connector-curvature="0" />
  <path
     style="fill:#ff0000"
     d="m 67.385783,43.552632 c 0.03377,-0.05713 0.13454,-1.194599 0.223922,-2.527701 0.08938,-1.333103 0.228477,-2.557897 0.309101,-2.721766 0.216476,-0.439989 -1.593292,-5.865492 -1.956534,-5.865492 -0.18447,0 -0.44811,-0.45893 -1.036612,-1.804475 -0.831707,-1.901609 -1.043897,-2.666468 -0.784257,-2.826934 0.08542,-0.05279 1.26092,-0.253098 2.612218,-0.445122 1.687541,-0.239805 2.59214,-0.432119 2.888766,-0.614141 0.523005,-0.320936 1.130247,-0.340343 1.545632,-0.0494 0.422291,0.295785 0.415809,1.019701 -0.01273,1.422297 -0.362932,0.340957 -0.604014,0.367237 -1.341618,0.146245 -0.400122,-0.119879 -0.965507,-0.103591 -2.500386,0.07203 -1.090844,0.124818 -2.007623,0.251213 -2.037288,0.280878 -0.05442,0.05442 2.235174,5.655359 4.193782,10.259057 0.583362,1.371191 1.090168,2.563435 1.126234,2.649431 0.03607,0.086 -0.655078,0.600193 -1.535876,1.142659 -1.559915,0.960723 -1.821032,1.096714 -1.694349,0.882426 z"
     id="path3419"
     inkscape:connector-curvature="0" />
  <path
     style="fill:#000000"
     d="M 18.508526,75.859629 C 14.830479,74.771488 12.608318,73.43399 10.094254,70.795157 7.5226825,68.095964 5.9907203,65.003939 5.4319558,61.385042 5.1986901,59.874273 5.2592915,56.987071 5.5564426,55.454177 c 0.8234883,-4.248072 2.673146,-7.411954 5.9156684,-10.118886 5.356993,-4.472143 12.50609,-5.423064 18.888,-2.512345 0.876039,0.399552 1.752683,0.755941 1.948098,0.791975 0.327762,0.06044 0.487187,-0.134008 2.056903,-2.508773 0.935881,-1.415861 1.74764,-2.574292 1.803909,-2.574292 0.110227,0 0.423777,0.620171 0.423777,0.838192 0,0.07295 -0.72572,1.22169 -1.612711,2.552755 l -1.61271,2.420117 1.370328,1.463937 c 2.217729,2.369222 3.05315,3.476077 3.86528,5.121121 1.096931,2.221936 1.493354,3.802756 1.958728,7.810823 l 0.07067,0.608606 1.096552,-1.090122 c 0.603104,-0.599566 1.096553,-1.161601 1.096553,-1.248966 0,-0.08736 -1.034118,-3.423313 -2.298039,-7.413222 -1.263921,-3.989907 -2.492472,-7.868847 -2.730112,-8.619865 -0.420617,-1.32928 -0.425086,-1.370598 -0.168564,-1.558172 0.368295,-0.269304 0.137132,-0.241705 -0.283395,0.03383 -0.190141,0.124585 -0.390004,0.182224 -0.444141,0.128087 -0.05414,-0.05414 -0.297755,-0.576776 -0.541373,-1.161421 -0.427195,-1.025201 -0.43339,-1.067435 -0.174254,-1.188033 0.302591,-0.140822 0.344714,-0.366795 0.111792,-0.599719 -0.233655,-0.233654 -0.08431,-0.472618 0.603172,-0.965117 l 0.618863,-0.443343 0.799807,1.335837 0.799807,1.335838 -0.30894,0.250164 c -0.169917,0.137591 -0.255291,0.251119 -0.189717,0.252286 0.06557,0.0012 0.05689,0.04791 -0.01928,0.103878 -0.314882,0.231339 -0.678801,0.744095 -0.497271,0.700646 0.126688,-0.03032 0.296473,0.314403 0.52363,1.063161 0.516246,1.701657 3.978696,12.808072 4.576972,14.68144 l 0.530788,1.66205 1.726569,0.107351 c 0.949614,0.05904 1.921628,0.161019 2.160034,0.226613 0.426099,0.117237 0.462869,0.086 2.1645,-1.838652 4.408667,-4.986492 13.360881,-15.476833 14.02335,-16.432777 L 64.187011,38.124695 63.95597,37.18191 c -0.350721,-1.431141 -0.168502,-1.34542 -2.452635,-1.153799 -2.320399,0.194664 -14.099317,1.36943 -18.816354,1.876642 -3.829239,0.41175 -3.612509,0.402459 -3.515912,0.150731 0.04208,-0.109651 -0.173418,-0.623847 -0.478876,-1.14266 l -0.555381,-0.943295 0.370652,-0.102698 c 0.203859,-0.05648 3.642813,-0.448325 7.64212,-0.870758 11.133671,-1.176012 13.57815,-1.437147 16.21437,-1.732123 1.338263,-0.149743 2.496888,-0.27226 2.574721,-0.27226 0.205209,0 0.403148,0.480054 1.310324,3.177876 0.796267,2.367999 0.807335,2.421773 0.55585,2.700831 -0.403476,0.447717 -6.847442,7.932386 -11.886853,13.806585 -2.524391,2.942562 -4.662204,5.466801 -4.750695,5.609418 -0.131812,0.212437 -0.07964,0.43455 0.288642,1.228835 0.402603,0.868307 0.455876,1.131879 0.510259,2.524535 l 0.06072,1.555007 -0.523086,1.114679 -0.523087,1.114678 0.300483,0.406424 c 0.165265,0.223533 0.300482,0.440112 0.300482,0.481285 0,0.04117 -0.372538,0.07486 -0.827862,0.07486 -0.568175,0 -1.122121,0.11538 -1.765928,0.367824 -0.791169,0.310224 -1.1658,0.369868 -2.392359,0.380886 -1.342682,0.01206 -1.518072,-0.01821 -2.285319,-0.394364 -1.420714,-0.696535 -3.144847,-2.795551 -2.908342,-3.540712 0.07021,-0.221212 0.18232,-0.08696 0.563281,0.67454 0.521323,1.042064 1.451212,2.011891 2.429266,2.5336 0.534921,0.285336 0.792136,0.323709 2.131862,0.318046 1.668123,-0.0071 2.356915,-0.172568 2.834742,-0.681192 l 0.31315,-0.333333 -0.297392,-0.417649 c -0.326502,-0.458529 -1.566755,-1.548602 -2.044996,-1.797371 -0.47413,-0.24663 -1.030598,-0.183708 -1.685292,0.190563 -1.162356,0.664484 -1.563618,0.267869 -0.856718,-0.846797 0.231395,-0.36487 0.420716,-0.810008 0.420716,-0.989197 0,-0.179188 -0.221029,-0.671319 -0.491174,-1.093627 -0.38863,-0.607525 -0.45738,-0.80855 -0.329302,-0.962875 0.236234,-0.284646 0.457155,-0.243683 1.189043,0.220466 0.842606,0.534366 1.357828,0.531775 2.095255,-0.01054 0.608822,-0.447732 0.946742,-0.481206 1.17636,-0.116527 0.104521,0.165998 0.01568,0.400853 -0.36604,0.96768 -0.277233,0.411664 -0.504059,0.846184 -0.504059,0.965597 0,0.379656 0.760854,1.421356 1.659685,2.272307 l 0.870019,0.823676 0.31372,-0.364722 c 0.172546,-0.200597 0.452639,-0.78217 0.622427,-1.292383 0.752342,-2.26079 -0.329975,-4.878004 -2.518571,-6.090306 -0.694787,-0.384854 -0.83169,-0.409477 -2.263069,-0.407028 -1.87314,0.0032 -2.456276,0.229806 -3.723939,1.447079 -0.676867,0.649967 -0.964337,0.835638 -1.293781,0.835638 -0.482061,0 -0.591698,-0.181745 -0.591698,-0.980857 l 0,-0.542688 -0.727147,1.38e-4 c -0.60377,1.23e-4 -6.18342,0.4192 -10.353186,0.777605 -1.155045,0.09928 -1.603821,0.244689 -1.16522,0.377543 0.371475,0.112521 6.316129,0.990246 9.059957,1.337697 3.116846,0.394686 2.892655,0.324983 2.779173,0.864065 -0.08634,0.410164 -0.139016,0.449788 -0.57149,0.42992 -0.26201,-0.01204 -3.312254,-0.428587 -6.77832,-0.925668 -8.116205,-1.163971 -7.944781,-1.144239 -7.869679,-0.905784 0.110993,0.352412 11.186193,9.109644 11.836481,9.359185 0.109252,0.04192 0.324961,-0.03809 0.479353,-0.177818 0.424054,-0.383764 1.706682,-2.731719 2.28182,-4.177061 0.280393,-0.70464 0.564132,-1.281163 0.630528,-1.281163 0.192569,0 0.146771,0.20422 -0.295432,1.317404 -0.96328,2.424917 -2.160333,4.23068 -4.09906,6.183471 -1.505222,1.516142 -3.166795,2.712618 -4.972321,3.580506 -2.625905,1.262228 -4.040052,1.526787 -8.09886,1.515124 -2.287125,-0.0066 -2.687397,-0.0433 -3.683473,-0.337984 l 0,1.1e-5 z m 6.172914,0.07868 c 1.464977,-0.131699 2.539279,-0.377542 2.429068,-0.555866 -0.0398,-0.0644 -0.0999,-0.332184 -0.133563,-0.595074 -0.05305,-0.414336 -0.753475,-2.985964 -2.916908,-10.70947 -0.504609,-1.801472 -0.68349,-2.265161 -0.820853,-2.127798 -0.181439,0.181439 -2.294932,12.54624 -2.296487,13.435398 -4.16e-4,0.272969 0.04068,0.537858 0.09147,0.588642 0.126458,0.12646 2.052474,0.107538 3.647275,-0.03583 z m -4.583094,-0.66823 c 0.324651,-1.233282 2.564984,-15.118296 2.45678,-15.226499 -0.192386,-0.192386 -0.470623,0.210456 -4.146107,6.00287 -3.65991,5.76787 -4.587157,7.361536 -4.40846,7.576852 0.378403,0.455947 4.696019,2.145823 5.516264,2.159014 0.399439,0.0064 0.458742,-0.04581 0.581523,-0.512237 z M 30.317114,74.3409 c 1.805883,-0.892026 2.990777,-1.732806 4.64826,-3.298324 0.438019,-0.413716 0.796399,-0.818809 0.796399,-0.900206 0,-0.314635 -11.56047,-9.431392 -11.73638,-9.255484 -0.0784,0.0784 0.973462,4.052018 2.615836,9.881812 1.160717,4.120098 1.281914,4.466759 1.561627,4.466759 0.166787,0 1.118204,-0.402551 2.114258,-0.894557 z M 13.501117,72.292244 c 0.64648,-0.805266 4.158219,-6.26128 6.111837,-9.495657 0.971822,-1.608932 0.793263,-1.502113 -3.99166,2.387932 -4.066812,3.306237 -5.6476386,4.651784 -5.7179069,4.866894 -0.083442,0.255437 2.6664989,2.829473 3.0228359,2.829473 0.05628,0 0.31498,-0.264889 0.574894,-0.588642 z m 0.255279,-6.493399 C 18.16386,62.26876 20.026047,60.700101 19.926909,60.600963 19.753391,60.427443 6.8291724,64.648 6.7281878,64.911162 c -0.1692403,0.441033 2.1553236,4.368616 2.5855921,4.368616 0.053085,0 2.0522621,-1.566419 4.4426161,-3.480933 z M 12.360538,62.153 c 7.34208,-2.382961 7.6552,-2.491072 7.712474,-2.662895 0.02876,-0.08627 -0.658372,-0.238656 -1.723118,-0.382144 C 14.006764,58.522675 7.8882288,57.774108 6.7874853,57.69337 l -1.2042045,-0.08833 -0.090027,0.358698 c -0.1649587,0.657248 0.4439151,5.171931 0.7829498,5.805422 0.072839,0.136102 0.1796724,0.247457 0.237407,0.247457 0.057735,0 2.6888521,-0.838628 5.8469278,-1.86362 z m 33.883998,0.731445 c 0.609947,-0.573017 0.266647,-1.499403 -0.555651,-1.499403 -0.548076,0 -0.924342,0.356674 -0.924342,0.876211 0,0.85694 0.850136,1.214912 1.479993,0.623192 z M 21.352395,58.423909 C 21.240849,58.318832 19.778393,57.394222 18.102493,56.369217 10.666716,51.821396 8.0440071,50.281571 7.8563535,50.35358 7.4436968,50.511932 6.466255,52.896392 5.9743963,54.944598 c -0.3819762,1.590632 -0.3678901,1.694631 0.2513655,1.855824 0.2856648,0.07436 3.2929363,0.480192 6.6828252,0.901849 3.389889,0.421658 6.350416,0.790171 6.578948,0.818917 0.228531,0.02875 0.787248,0.0616 1.241591,0.07302 0.707391,0.01777 0.796939,-0.0067 0.623269,-0.170297 z m 11.440991,-0.712571 c 7.635926,-0.673903 7.183293,-0.606734 7.236963,-1.073935 0.04644,-0.404246 -0.563594,-3.03432 -0.882548,-3.804993 -0.102464,-0.247576 -0.277736,-0.450139 -0.389495,-0.450139 -0.409051,0 -12.026776,5.26784 -12.40987,5.627023 -0.174162,0.163292 -0.123915,0.190152 0.355714,0.190152 0.307187,0 3.047343,-0.219648 6.089236,-0.488108 z m -4.750281,-1.367003 c 5.256006,-2.351839 10.272532,-4.661757 10.400921,-4.789223 0.155462,-0.154345 -0.751497,-1.831289 -1.593394,-2.946147 -0.359926,-0.47662 -1.317434,-1.521015 -2.127795,-2.320876 l -1.473384,-1.454294 -0.482057,0.550466 c -0.575946,0.657679 -8.22446,12.059157 -8.22446,12.260027 0,0.07681 0.06365,0.139646 0.141444,0.139646 0.07779,0 1.58922,-0.647819 3.358725,-1.439599 z M 19.892866,55.47528 C 18.348802,52.995289 13.106427,45.124559 12.865594,44.924766 12.674747,44.76644 12.580596,44.781984 12.233532,45.029114 11.544777,45.519552 8.8795758,48.400975 8.5903996,48.967807 l -0.2728236,0.534779 0.3175661,0.227931 c 1.1232953,0.806241 12.0508409,7.3859 12.1319129,7.304828 0.03292,-0.03292 -0.360465,-0.734949 -0.874189,-1.560065 z m 0.784552,-5.471291 c -1.672087,-8.344673 -1.587599,-8.009529 -2.019164,-8.009529 -0.754488,0 -5.057146,1.884445 -5.057146,2.21489 0,0.166291 0.574047,1.104728 2.796605,4.571813 4.310446,6.724096 5.459101,8.41096 5.618697,8.251365 0.03178,-0.03179 -0.57076,-3.194628 -1.338992,-7.028539 z m 3.297374,2.783528 c 1.855755,-7.627018 2.560182,-10.795549 2.428536,-10.92364 -0.457825,-0.445465 -6.065467,-0.558156 -6.493135,-0.130487 -0.09864,0.09864 0.538885,3.63165 1.655609,9.174952 1.014318,5.034975 1.246773,6.020543 1.386938,5.880377 0.03526,-0.03526 0.49518,-1.835798 1.022052,-4.001202 z m 3.257632,-1.028514 c 2.86312,-4.207009 4.789737,-7.220428 4.789737,-7.491624 0,-0.368853 -3.848273,-2.21204 -4.402175,-2.108487 -0.145954,0.02729 -0.325841,0.311547 -0.466012,0.736403 -0.255164,0.773391 -3.167891,13.000618 -3.160074,13.26555 0.0083,0.281389 0.581848,-0.498177 3.238524,-4.401842 z m 10.486561,-13.72834 c 0.237712,-0.215127 0.236834,-0.245527 -0.02174,-0.752376 -0.330633,-0.648093 -0.443955,-0.724632 -0.745941,-0.503814 -0.221487,0.161956 -0.218731,0.213835 0.04393,0.826588 0.309645,0.722374 0.36436,0.754851 0.723756,0.429602 z"
     id="path3421"
     inkscape:connector-curvature="0" />
  <path
     style="fill:#000000"
     d="m 75.410677,76.347313 c -4.358024,-0.49401 -8.051819,-2.297198 -10.979893,-5.360017 -3.266973,-3.417313 -4.889192,-7.46668 -4.901004,-12.233833 -0.0094,-3.805804 0.843381,-6.658705 2.939591,-9.833795 1.33952,-2.028946 4.593209,-5.159182 4.880118,-4.694954 0.06501,0.105189 0.07405,0.227339 0.02009,0.271444 -0.05396,0.04411 -0.51219,0.403098 -1.018287,0.797763 -0.506096,0.394665 -1.254388,1.078563 -1.662871,1.519772 -0.949731,1.025823 -2.363849,2.902191 -2.386033,3.165985 -0.0109,0.129631 2.377498,1.574139 6.609462,3.997413 3.644593,2.086938 6.709268,3.863097 6.810388,3.94702 0.137985,0.114518 0.359362,0.06365 0.887319,-0.203885 l 0.703462,-0.356471 0,-0.747898 c 0,-0.411343 -0.06511,-0.769601 -0.144692,-0.796128 -0.0981,-0.0327 -0.05273,-1.140277 0.140897,-3.43952 0.639599,-7.59502 0.828509,-10.719431 0.654802,-10.829849 -0.412766,-0.262382 -3.129671,0.01281 -5.205999,0.527303 -1.155534,0.286332 -1.460688,0.320825 -1.550641,0.175278 -0.06159,-0.09966 -0.08937,-0.203826 -0.06173,-0.231471 0.02765,-0.02765 0.631943,-0.200254 1.342884,-0.383574 1.790181,-0.461608 3.7386,-0.61162 6.03021,-0.464278 2.184559,0.14046 3.750572,0.511336 5.69043,1.347654 5.308228,2.288502 9.334353,7.338874 10.352626,12.986335 0.300625,1.667293 0.303209,4.745145 0.0053,6.362199 -1.148444,6.234697 -5.54777,11.40036 -11.543098,13.553845 -2.163989,0.777292 -5.419923,1.172305 -7.613377,0.923662 l -3e-6,0 z m 4.074341,-0.494789 c 0.989953,-0.129772 2.212634,-0.406783 3.107402,-0.704016 1.542523,-0.512408 3.186188,-1.279347 3.26803,-1.524872 0.04306,-0.129173 -2.401518,-3.995148 -6.118607,-9.676268 -0.747627,-1.142659 -1.510969,-2.317177 -1.696315,-2.610038 -0.185347,-0.292862 -0.366518,-0.50295 -0.402607,-0.466863 -0.03609,0.03609 -0.12418,3.267392 -0.195762,7.180676 -0.07158,3.913284 -0.167162,7.286461 -0.212401,7.495948 -0.06351,0.294071 -0.162516,0.380887 -0.434392,0.380887 l -0.35214,0 0.08463,-2.666205 c 0.04655,-1.466413 0.119976,-4.909972 0.163173,-7.652355 l 0.07854,-4.986149 -0.278385,0.34626 c -0.325488,0.404848 -3.986325,6.269249 -6.241419,9.998309 -0.947069,1.56609 -1.533081,2.672191 -1.483785,2.800654 0.09237,0.240702 1.415555,0.870461 2.901028,1.380716 0.856343,0.294151 2.250802,0.616885 3.563443,0.824724 0.827916,0.13109 2.740148,0.07646 4.249561,-0.121408 z M 68.836183,71.560201 c 1.795175,-2.697387 7.368803,-11.602755 7.368803,-11.773643 0,-0.09527 -3.820525,1.823957 -9.314404,4.679053 -2.647161,1.375692 -4.81302,2.562437 -4.81302,2.63721 0,0.454227 2.002993,3.068158 3.200886,4.177196 1.233353,1.141867 2.212214,1.896002 2.392925,1.843559 0.08476,-0.0246 0.608926,-0.728118 1.16481,-1.563375 z m 19.060579,0.758331 c 0.573863,-0.46165 1.453364,-1.287481 1.954444,-1.83518 0.915909,-1.001122 2.241595,-2.816046 2.132523,-2.91952 -0.239881,-0.227566 -13.885289,-7.97991 -13.9435,-7.921698 -0.09342,0.09342 3.260828,5.356613 8.281537,12.994655 0.187156,0.284722 0.383331,0.518448 0.435945,0.519391 0.05261,9.7e-4 0.565187,-0.375999 1.139051,-0.837648 z m 5.035845,-6.473866 c 0.738484,-1.651588 1.164112,-3.273133 1.46699,-5.58891 0.06251,-0.477969 0.04183,-0.510378 -0.373079,-0.584676 -0.548197,-0.09817 -13.23891,-0.406735 -14.059867,-0.34186 l -0.601216,0.04751 1.639997,0.965446 c 3.834442,2.25729 11.208996,6.443812 11.35137,6.444155 0.08502,1.39e-4 0.344134,-0.423545 0.575805,-0.941666 z m -24.789631,-2.901453 6.468023,-3.289473 -7.327348,-0.03586 c -4.030041,-0.01972 -7.356872,-0.0063 -7.392957,0.02975 -0.03608,0.03609 0.06297,0.831309 0.220115,1.767164 0.327315,1.949246 1.216458,4.817898 1.493314,4.817898 0.03896,0 2.981441,-1.480263 6.538853,-3.289474 z m 26.344559,-4.483609 c 0,-1.718604 -0.698204,-4.865729 -1.463293,-6.59573 l -0.333271,-0.753585 -2.875957,1.486941 c -4.191806,2.16727 -10.45382,5.474789 -10.744812,5.67528 -0.272732,0.18791 -0.143692,0.194112 10.076546,0.484401 2.737774,0.07776 5.007511,0.171125 5.04386,0.207473 0.189306,0.189306 0.296927,0.0064 0.296927,-0.50478 z m -19.479248,0.04826 c 0.0605,-0.09789 -12.7432,-7.526985 -13.133646,-7.620535 -0.243826,-0.05842 -1.242333,2.55259 -1.580511,4.132898 -0.155615,0.727192 -0.32558,1.833494 -0.377699,2.458448 l -0.09476,1.136281 7.560216,0 c 4.158118,0 7.59,-0.04819 7.626402,-0.107092 z m 10.471835,-4.520163 c 3.692046,-1.934149 6.732406,-3.575423 6.756356,-3.647275 0.0589,-0.176691 -1.366593,-2.152721 -2.37928,-3.298182 -0.852544,-0.964324 -2.744566,-2.55704 -3.031091,-2.551592 -0.09023,0.0017 -0.481234,0.484749 -0.868896,1.073407 -1.014384,1.540328 -7.397654,11.7823 -7.397654,11.869554 0,0.04032 0.04675,0.07273 0.103878,0.07202 0.05713,-6.93e-4 3.124643,-1.583779 6.816687,-3.517929 z m -5.665623,-0.116512 c 3.666164,-5.862694 6.085778,-9.821137 6.085778,-9.956219 0,-0.178442 -1.98913,-1.108792 -3.3241,-1.554738 -1.214394,-0.405667 -3.412368,-0.87769 -3.531629,-0.75843 -0.04537,0.04537 -0.326265,3.159553 -0.624206,6.920401 -0.29794,3.760848 -0.576028,7.165122 -0.617971,7.565053 -0.04194,0.39993 -0.02048,0.727146 0.04768,0.727146 0.06817,0 0.952169,-1.324446 1.964445,-2.943213 z"
     id="path3425"
     inkscape:connector-curvature="0" />
  <path
     style="fill:none;fill-rule:evenodd;stroke:#000000;stroke-width:1px;stroke-linecap:butt;stroke-linejoin:miter;stroke-opacity:1"
     d="m 48.199446,57.202216 1.523546,1.800554"
     id="path3429"
     inkscape:connector-curvature="0" />
  <path
     style="fill:#ff0000;fill-rule:evenodd;stroke:#000000;stroke-width:1px;stroke-linecap:butt;stroke-linejoin:miter;stroke-opacity:1"
     d="m 44.32133,57.202216 -1.66205,0.138504 1.108033,-0.692521 0.554017,0.554017"
     id="path3431"
     inkscape:connector-curvature="0" />
  <path
     style="fill:#ff0000"
     id="path3439"
     d="m 42.501101,55.738469 c -0.135495,-0.293869 -0.237964,-0.600157 -0.361498,-0.89883 -0.09319,-0.230366 -0.200814,-0.448117 -0.255701,-0.69202 -0.02516,-0.243604 -0.05724,-0.481914 -0.109297,-0.72129 -0.04941,-0.220221 -0.11745,-0.43762 -0.18397,-0.653759 -0.05943,-0.242316 -0.166624,-0.467452 -0.233788,-0.707225 -0.05789,-0.218751 -0.110851,-0.442444 -0.185092,-0.656457 -0.09945,-0.226693 -0.193757,-0.449942 -0.248526,-0.692344 -0.02912,-0.253428 -0.06307,-0.502054 -0.117599,-0.751342 -0.02493,-0.229793 -0.104793,-0.367261 -0.257717,-0.528899 -0.195696,-0.118885 -0.258739,-0.318219 -0.344151,-0.515309 -0.145086,-0.170359 -0.2209,-0.365933 -0.266553,-0.582028 -0.02126,-0.246007 -0.05122,-0.486314 -0.102299,-0.72793 -0.05956,-0.245115 -0.0475,-0.499433 -0.08707,-0.746742 -0.03062,-0.220579 -0.131596,-0.418727 -0.192055,-0.630996 -0.08711,-0.196588 -0.141006,-0.403718 -0.219057,-0.603588 -0.07834,-0.23044 -0.129653,-0.470119 -0.216884,-0.697457 -0.09798,-0.217741 -0.135826,-0.453275 -0.209974,-0.678862 -0.05374,-0.223371 -0.110051,-0.444202 -0.172027,-0.665588 -0.106284,-0.200812 -0.150949,-0.420551 -0.208845,-0.637544 -0.05617,-0.249263 -0.126609,-0.492633 -0.19907,-0.737431 -0.04574,-0.236137 -0.186439,-0.433421 -0.268308,-0.657443 -0.105078,-0.202502 -0.164465,-0.422036 -0.248141,-0.633191 -0.08308,-0.207325 -0.174944,-0.404559 -0.223092,-0.624239 -0.07151,-0.245351 -0.116376,-0.495898 -0.195798,-0.73876 -0.04608,-0.15606 -0.02494,-0.07704 -0.06328,-0.237091 0,0 1.084949,-0.584425 1.084949,-0.584425 l 0,0 c 0.03447,0.152905 0.01506,0.07704 0.05821,0.227605 0.08076,0.247291 0.125714,0.501716 0.20255,0.750392 0.0428,0.214397 0.13358,0.40393 0.213879,0.605409 0.08394,0.212692 0.143311,0.433347 0.248413,0.637548 0.0801,0.227622 0.228607,0.42411 0.27247,0.663702 0.07064,0.245892 0.144255,0.488855 0.199074,0.739019 0.06278,0.215444 0.09948,0.437771 0.210379,0.637079 0.06011,0.22002 0.12169,0.437295 0.169241,0.660357 0.07379,0.223948 0.111564,0.456715 0.205747,0.673942 0.08844,0.226533 0.143031,0.465164 0.218359,0.696208 0.07971,0.203886 0.134784,0.414648 0.224528,0.614878 0.05866,0.217131 0.165124,0.417342 0.197011,0.641987 0.04621,0.245144 0.02863,0.49838 0.08537,0.742877 0.05078,0.242218 0.09126,0.481221 0.102792,0.72904 0.03978,0.211191 0.117731,0.390624 0.255164,0.558212 0.08243,0.187784 0.138444,0.361569 0.323385,0.478133 0.158809,0.168835 0.264253,0.351781 0.288926,0.588145 0.05383,0.249777 0.09663,0.496879 0.116261,0.752026 0.04977,0.238989 0.14357,0.455852 0.243295,0.677395 0.07798,0.215672 0.128983,0.444147 0.188317,0.665225 0.0632,0.23924 0.171975,0.461938 0.23092,0.702636 0.07227,0.217897 0.136559,0.441407 0.190407,0.663829 0.05159,0.239737 0.09374,0.476376 0.109032,0.721641 0.0486,0.23857 0.15503,0.449097 0.24262,0.674493 0.121656,0.30213 0.219307,0.613546 0.369599,0.903596 0,0 -1.081113,0.595416 -1.081113,0.595416 z"
     inkscape:connector-curvature="0" />
  <path
     style="fill:#ff0000"
     id="path3441"
     d="m 43.043153,57.26947 c -0.184465,-0.304603 -0.356698,-0.617614 -0.494364,-0.946263 -0.120756,-0.275514 -0.120527,-0.576831 -0.171394,-0.867161 -0.05399,-0.13274 -0.166154,-0.230657 -0.251162,-0.345463 -0.05937,-0.111661 -0.03278,-0.05268 -0.07856,-0.177468 0,0 1.081091,-0.598317 1.081091,-0.598317 l 0,0 c 0.03517,0.102275 0.01408,0.0547 0.0616,0.143442 0.09962,0.12752 0.2202,0.242648 0.274163,0.398693 0.05424,0.281759 0.04103,0.57706 0.154523,0.847173 0.132509,0.327419 0.30241,0.639731 0.49601,0.935038 0,0 -1.071907,0.610326 -1.071907,0.610326 z"
     inkscape:connector-curvature="0" />
  <path
     style="fill:#ff0000;fill-rule:evenodd;stroke:#000000;stroke-width:1px;stroke-linecap:butt;stroke-linejoin:miter;stroke-opacity:1"
     d="m 44.32133,56.925208 c 0.184672,-0.09234 0.362314,-0.200328 0.554016,-0.277009 0.08573,-0.03429 0.184672,0 0.277009,0 0.04617,0 0.138504,-0.04617 0.138504,0 0,0.04617 -0.184672,0 -0.138504,0 0.138504,0 0.277008,0 0.415512,0 0.04617,0 0.09234,0 0.138504,0 0.04617,0 0.138504,-0.04617 0.138504,0 0,0.04617 -0.184672,0 -0.138504,0 0.138504,0 0.277009,0 0.415513,0 0.04617,0 0.184672,0 0.138504,0 -0.09234,0 -0.369345,0 -0.277008,0 0.184672,0 0.369344,0 0.554016,0 0.04617,0 0.09234,0 0.138504,0 0.04617,0 0.138504,-0.04617 0.138504,0 0,0.04617 -0.184672,0 -0.138504,0 0.09234,0 0.194421,-0.04129 0.277009,0 0.08259,0.04129 -0.06529,0.211717 0,0.277009 0.184672,0.184672 0.138504,-0.230841 0.138504,0.138504"
     id="path3443"
     inkscape:connector-curvature="0" />
  <path
     style="fill:none;fill-rule:evenodd;stroke:#000000;stroke-width:1px;stroke-linecap:butt;stroke-linejoin:miter;stroke-opacity:1"
     d="m 44.875346,56.648199 c 0.369345,0 0.738689,0 1.108034,0 0.04617,0 0.105858,-0.03264 0.138504,0 0.03264,0.03265 -0.03265,0.105859 0,0.138505 0.06925,0.06925 0.34626,-0.06925 0.415512,0 0.03265,0.03265 -0.03265,0.105858 0,0.138504 0.01222,0.01222 0.535006,0 0.138504,0"
     id="path3445"
     inkscape:connector-curvature="0" />
  <path
     style="fill:none;fill-rule:evenodd;stroke:#000000;stroke-width:1px;stroke-linecap:butt;stroke-linejoin:miter;stroke-opacity:1"
     d="m 52.908587,66.759003 2.493075,-27.97784 -6.925208,-0.138504 0.969529,27.839335 z"
     id="path3392"
     inkscape:connector-curvature="0" />
  <path
     style="fill:none;fill-rule:evenodd;stroke:#000000;stroke-width:1px;stroke-linecap:butt;stroke-linejoin:miter;stroke-opacity:1"
     d="M 55.263158,38.227147 39.33518,22.99169 l -1.66205,2.770083 10.387812,12.880886 7.202216,0.138504"
     id="path3394"
     inkscape:connector-curvature="0" />
  <path
     style="fill:none;fill-rule:evenodd;stroke:#000000;stroke-width:1px;stroke-linecap:butt;stroke-linejoin:miter;stroke-opacity:1"
     d="m 47.229917,56.232687 -2.908587,0.277008 -2.908588,-17.313019 4.98615,0.138504 z"
     id="path3396"
     inkscape:connector-curvature="0" />
  <path
     style="fill:none;fill-rule:evenodd;stroke:#000000;stroke-width:1px;stroke-linecap:butt;stroke-linejoin:miter;stroke-opacity:1"
     d="M 46.537396,39.889197 36.01108,26.731302 l -1.939058,1.108033 7.202216,11.772853"
     id="path3398"
     inkscape:connector-curvature="0" />
  <path
     style="fill:none;fill-rule:evenodd;stroke:#000000;stroke-width:1px;stroke-linecap:butt;stroke-linejoin:miter;stroke-opacity:1"
     d="M 38.781163,22.714681 25.069252,23.545706 41.274238,3.4626039 50.831025,7.3407202 Z"
     id="path3402"
     inkscape:connector-curvature="0" />
  <path
     style="fill:none;fill-rule:evenodd;stroke:#000000;stroke-width:1px;stroke-linecap:butt;stroke-linejoin:miter;stroke-opacity:1"
     d="m 47.783934,11.495845 16.759002,15.650969 4.293629,0 -19.66759,-17.7285315 -0.969529,2.4930745 z"
     id="path3404"
     inkscape:connector-curvature="0" />
  <path
     style="fill:none;fill-rule:evenodd;stroke:#000000;stroke-width:1px;stroke-linecap:butt;stroke-linejoin:miter;stroke-opacity:1"
     d="M 46.952909,13.157895 64.265928,28.116343 65.373961,30.747922 44.736842,15.235457 Z"
     id="path3406"
     inkscape:connector-curvature="0" />
  <ellipse
     style="fill:#deaa87"
     id="path3408"
     cx="47.853184"
     cy="2.1468143"
     rx="3.9473684"
     ry="4.0858727" />
  <path
     style="fill:#deaa87"
     d="m 29.4895,18.96576 c 1.735761,-2.15332 5.119226,-6.356499 7.51881,-9.3403991 2.399585,-2.9838998 4.404827,-5.4291566 4.456093,-5.4339039 0.08542,-0.00791 8.308708,3.3024145 8.391956,3.3782218 0.02003,0.018238 -0.142977,0.2588935 -0.362232,0.5347905 -0.219254,0.2758969 -0.434552,0.4657239 -0.478439,0.4218376 -0.04389,-0.043886 -0.171296,0.1295057 -0.283133,0.3853155 -0.249469,0.5706241 -10.146274,13.1946086 -10.379744,13.2400036 -0.167582,0.03259 -11.466494,0.72926 -11.827366,0.72926 -0.105531,0 1.228294,-1.761807 2.964055,-3.915126 z"
     id="path3412"
     inkscape:connector-curvature="0" />
  <path
     style="fill:#deaa87"
     d="m 56.956291,19.28879 c -4.302156,-4.024689 -7.87506,-7.402751 -7.939785,-7.506804 -0.0722,-0.116077 -0.01944,-0.41925 0.136549,-0.784516 l 0.254233,-0.595328 1.660622,1.495903 c 0.913342,0.822746 4.839292,4.355872 8.724334,7.851391 3.885041,3.495518 7.186634,6.471492 7.336872,6.613276 0.267495,0.252438 0.245942,0.25764 -1.038781,0.250741 l -1.311942,-0.007 -7.822102,-7.317616 z"
     id="path3414"
     inkscape:connector-curvature="0" />
  <path
     style="fill:#000080"
     d="m 54.689559,21.992415 -9.095179,-6.845193 0.658489,-0.564407 c 0.362168,-0.310423 0.696847,-0.564808 0.743729,-0.5653 0.105894,-0.0011 15.636855,13.390273 16.389964,14.132049 0.300975,0.296446 0.513691,0.572529 0.472701,0.613518 -0.04099,0.04099 -4.167356,-3.005811 -9.169704,-6.770667 z"
     id="path3416"
     inkscape:connector-curvature="0" />
  <path
     style="fill:#d45500"
     d="M 60.253293,22.299603 C 51.292467,13.911964 49.058172,11.777092 49.058172,11.60265 c 0,-0.317509 0.30592,-1.062174 0.419157,-1.020302 0.230423,0.08521 17.586383,15.785644 17.586383,15.908883 0,0.0711 -0.493705,0.129268 -1.097123,0.129268 l -1.097122,0 -4.616174,-4.320896 z"
     id="path3418"
     inkscape:connector-curvature="0" />
  <path
     style="fill:#0000ff"
     d="m 57.621589,24.085807 c -2.86976,-2.148164 -6.715924,-5.027635 -8.54703,-6.398826 -1.831106,-1.371192 -3.328588,-2.524239 -3.327737,-2.562327 0.0023,-0.103526 1.107638,-0.969529 1.23746,-0.969529 0.133395,0 14.632613,12.422715 15.782653,13.522343 0.933059,0.892158 -0.377141,-0.02242 -5.145346,-3.591661 z"
     id="path3420"
     inkscape:connector-curvature="0" />
  <path
     style="fill:#0000ff"
     d="m 42.072907,30.315004 c -1.975553,-2.458699 -3.616827,-4.545102 -3.647276,-4.63645 -0.03996,-0.11989 0.252904,-0.166089 1.052884,-0.166089 0.609536,0 1.196684,-0.03394 1.304773,-0.07541 0.12541,-0.04812 1.885126,1.537578 4.86291,4.382029 2.566512,2.451593 4.648988,4.474838 4.627726,4.4961 -0.05134,0.05134 -3.939019,0.478029 -4.315311,0.473625 -0.217418,-0.0025 -1.227554,-1.165562 -3.885706,-4.473801 z"
     id="path3422"
     inkscape:connector-curvature="0" />
  <path
     style="fill:#0000ff"
     d="m 38.473891,33.937458 c -3.718004,-6.087906 -3.581198,-5.838233 -3.310092,-6.04098 0.693854,-0.518899 0.539952,-0.657044 3.77786,3.391055 2.133842,2.667773 3.011088,3.862446 2.886104,3.930427 -0.09876,0.05372 -0.678179,0.140613 -1.287597,0.193101 l -1.108033,0.09543 -0.958242,-1.569037 z"
     id="path3424"
     inkscape:connector-curvature="0" />
  <path
     style="fill:#0000ff"
     d="m 49.609738,54.781669 c -0.0013,-0.138921 -0.125186,-3.618234 -0.275198,-7.731808 -0.150012,-4.113573 -0.273563,-7.56655 -0.274558,-7.673282 -0.0015,-0.163289 0.442393,-0.178431 2.799737,-0.0955 1.540851,0.05421 2.826614,0.123626 2.85725,0.154263 0.05824,0.05824 -0.783745,10.040253 -0.887621,10.523105 -0.0878,0.408123 -4.216657,5.127609 -4.21961,4.82322 z"
     id="path3426"
     inkscape:connector-curvature="0" />
  <path
     style="fill:#0000ff"
     d="m 44.764543,55.782094 c 0,-0.03453 -0.592105,-3.575454 -1.31579,-7.86872 -0.723684,-4.293267 -1.315789,-7.889295 -1.315789,-7.991173 0,-0.150173 0.346445,-0.166945 1.830298,-0.08861 1.006665,0.05314 1.846033,0.11236 1.865264,0.131591 0.01923,0.01923 0.208838,3.564105 0.421348,7.877497 l 0.386383,7.842532 -0.399153,0.07983 c -0.474178,0.09484 -1.472561,0.106395 -1.472561,0.01705 z"
     id="path3428"
     inkscape:connector-curvature="0" />
  <path
     style="fill:#0000ff"
     d="m 50.477839,65.951363 c -0.380365,-0.152889 -0.383728,-0.2066 -0.04028,-0.643228 0.149246,-0.189736 0.392259,-0.668114 0.540028,-1.063062 0.608611,-1.626658 0.507047,-3.195468 -0.311137,-4.805986 l -0.468753,-0.922695 1.542424,-1.8104 c 0.860787,-1.010337 1.562009,-1.724123 1.586742,-1.615171 0.04221,0.185954 -0.721194,9.180451 -0.883948,10.414719 l -0.07762,0.588643 -0.787912,-0.0088 c -0.433352,-0.0048 -0.928148,-0.06515 -1.099547,-0.134041 z"
     id="path3430"
     inkscape:connector-curvature="0" />
  <path
     style="fill:#0000ff"
     d="m 51.258588,38.151185 c -2.641046,-0.03732 -2.873585,-0.0609 -3.103184,-0.314602 -0.23911,-0.264213 -0.238536,-0.274376 0.01565,-0.277532 0.145117,-0.0018 1.323406,-0.121796 2.61842,-0.266653 l 2.35457,-0.263376 0.621447,0.612913 c 0.341795,0.337102 0.559939,0.598666 0.484764,0.581255 -0.07518,-0.01741 -1.421425,-0.04981 -2.991667,-0.07201 z"
     id="path3432"
     inkscape:connector-curvature="0" />
  <path
     style="fill:#ff6600"
     d="m 41.256079,38.473618 c -0.05943,-0.154869 0.151135,-0.217164 0.989336,-0.292689 1.948979,-0.175613 2.110557,-0.163345 2.341734,0.177797 l 0.211181,0.311634 -1.733377,0 c -1.369884,0 -1.749209,-0.04126 -1.808874,-0.196742 z"
     id="path3434"
     inkscape:connector-curvature="0" />
  <path
     style="fill:#ff6600"
     d="m 61.454294,26.907587 c -0.380887,-0.290322 -4.04259,-3.031354 -8.137119,-6.091184 -4.09453,-3.059829 -7.444599,-5.61252 -7.444599,-5.672646 0,-0.104934 0.372452,-0.466927 0.849392,-0.82554 0.273904,-0.20595 -0.137364,-0.537033 8.153378,6.563715 6.610515,5.661688 7.625844,6.560012 7.409973,6.556052 -0.07618,-0.0014 -0.450139,-0.240076 -0.831025,-0.530397 z"
     id="path3436"
     inkscape:connector-curvature="0" />
  <path
     style="fill:#ff6600"
     d=""
     id="path3438"
     inkscape:connector-curvature="0" />
  <path
     style="fill:#ff6600"
     d="m 59.515235,21.545605 c -2.970914,-2.786682 -6.534447,-6.151635 -7.918964,-7.477673 -2.477926,-2.373265 -2.515364,-2.417731 -2.39347,-2.842752 0.170011,-0.592792 0.20302,-0.606146 0.642948,-0.260098 0.511631,0.402449 7.184483,6.406781 12.698149,11.425986 4.834747,4.401172 4.680232,4.188892 3.06552,4.211525 l -0.69252,0.0097 -5.401663,-5.066696 0,-1e-6 z"
     id="path3440"
     inkscape:connector-curvature="0" />
  <path
     style="fill:#ff6600"
     d="m 48.965081,38.015457 c -0.317821,-0.02887 -0.643461,-0.131541 -0.723646,-0.228158 -0.115704,-0.139415 0.370781,-0.227498 2.357355,-0.426821 l 2.503147,-0.251154 0.50351,0.50351 0.50351,0.503509 -2.283011,-0.0242 c -1.255655,-0.01331 -2.543045,-0.04782 -2.860865,-0.07669 z"
     id="path3442"
     inkscape:connector-curvature="0" />
  <path
     style="fill:#ff6600"
     id="path3444"
     d="m 49.459941,0.85242754 c -0.151314,-0.007119 -0.306071,0.005012 -0.439565,0.0849051 -0.03883,0.0232403 -0.144838,0.10767126 -0.105215,0.0858058 1.653866,-0.91266629 2.027866,-1.45284215 1.574411,-0.83420159 -0.01387,0.0380497 -0.02774,0.0760995 -0.04161,0.11414921 0,0 -1.84539,0.89189978 -1.84539,0.89189978 l 0,0 c 0.006,-0.055006 0.01199,-0.1100114 0.01798,-0.1650171 0.311201,-0.81948691 0.0282,-0.16458651 1.890123,-1.29552103 0.181801,-0.11042673 0.42972,-0.0747826 0.628465,-0.0659935 0,0 -1.679198,1.18397343 -1.679198,1.18397343 z"
     inkscape:connector-curvature="0" />
  <path
     style="fill:#000000"
     id="path3446"
     d="M 50.160853,4.4820245 C 49.791977,4.482636 49.429145,4.4012722 49.085648,4.2710657 48.790853,4.1852133 48.538423,4.0078222 48.260507,3.885472 48.124173,3.8137407 48.00515,3.7201594 47.878321,3.6341785 c 0,0 1.734848,-1.1057142 1.734848,-1.1057142 l 0,0 c 0.115437,0.082638 0.232372,0.1622543 0.359757,0.225899 0.263327,0.1352201 0.519274,0.2865358 0.805474,0.3714837 0.338851,0.1068622 0.687673,0.1723827 1.044869,0.1483612 0,0 -1.662416,1.2078163 -1.662416,1.2078163 z"
     inkscape:connector-curvature="0" />
  <path
     style="fill:none;fill-rule:evenodd;stroke:#000000;stroke-width:1px;stroke-linecap:butt;stroke-linejoin:miter;stroke-opacity:1"
     d="m 45.98338,-1.2465374 -1.523546,0.41551247"
     id="path3448"
     inkscape:connector-curvature="0" />
  <path
     style="fill:none;fill-rule:evenodd;stroke:#000000;stroke-width:1px;stroke-linecap:butt;stroke-linejoin:miter;stroke-opacity:1"
     d="m 45.01385,0.83102493 c 0.07078,-0.83603898 -0.526059,0.0279571 -0.69252,-0.13850415 -0.03265,-0.0326457 0.03264,-0.10585842 0,-0.13850416 -0.06529,-0.0652915 -0.194421,0.041294 -0.277009,0 -0.0584,-0.0291992 -0.09234,-0.0923361 -0.138504,-0.13850415"
     id="path3450"
     inkscape:connector-curvature="0" />
  <path
     style="fill:none;fill-rule:evenodd;stroke:#000000;stroke-width:1px;stroke-linecap:butt;stroke-linejoin:miter;stroke-opacity:1"
     d="m 44.459834,2.6315789 c -0.184672,-0.046168 -0.369345,-0.092336 -0.554017,-0.1385041 0,-0.046168 0.03265,-0.1058584 0,-0.1385042 -0.06529,-0.065291 -0.277008,0.092336 -0.277008,0 0,-0.046168 0.09234,0 0.138504,0"
     id="path3452"
     inkscape:connector-curvature="0" />
  <path
     style="fill:none;fill-rule:evenodd;stroke:#000000;stroke-width:1px;stroke-linecap:butt;stroke-linejoin:miter;stroke-opacity:1"
     d="M 47.091413,-1.2465374 C 46.952909,-1.4312096 46.794667,-1.6026101 46.6759,-1.800554 c -0.01659,-0.027643 0,-0.36458 0,-0.4155125 0,-0.3231763 0,-0.6463527 0,-0.9695291"
     id="path3454"
     inkscape:connector-curvature="0" />
  <path
     style="fill:none;fill-rule:evenodd;stroke:#000000;stroke-width:1px;stroke-linecap:butt;stroke-linejoin:miter;stroke-opacity:1"
     d="m 48.614958,-1.3850416 c 0,-0.5078485 0,-1.0156971 0,-1.5235457"
     id="path3456"
     inkscape:connector-curvature="0" />
  <path
     style="fill:none;fill-rule:evenodd;stroke:#000000;stroke-width:1px;stroke-linecap:butt;stroke-linejoin:miter;stroke-opacity:1"
     d="m 49.861496,-1.3850416 c 0.184672,-0.092336 0.369344,-0.1846722 0.554016,-0.2770083 0,-0.046168 -0.03265,-0.1058584 0,-0.1385041 0.03265,-0.032646 0.105859,0.032646 0.138505,0 0.03264,-0.032646 -0.03265,-0.1058584 0,-0.1385042 0.28657,-0.28657 -0.0112,0.437917 0.277008,-0.1385041 0.02065,-0.041294 -0.03265,-0.1058584 0,-0.1385042 0.03265,-0.032646 0.105858,0.032646 0.138504,0 0.03265,-0.032646 -0.03265,-0.1058584 0,-0.1385041 0.03265,-0.032646 0.105858,0.032646 0.138504,0 0.184672,-0.1846722 -0.23084,-0.1385042 0.138504,-0.1385042"
     id="path3458"
     inkscape:connector-curvature="0" />
</svg>
