<?xml version="1.0" encoding="UTF-8" standalone="no"?>
<svg
   xmlns:dc="http://purl.org/dc/elements/1.1/"
   xmlns:cc="http://creativecommons.org/ns#"
   xmlns:rdf="http://www.w3.org/1999/02/22-rdf-syntax-ns#"
   xmlns:svg="http://www.w3.org/2000/svg"
   xmlns="http://www.w3.org/2000/svg"
   xmlns:sodipodi="http://sodipodi.sourceforge.net/DTD/sodipodi-0.dtd"
   xmlns:inkscape="http://www.inkscape.org/namespaces/inkscape"
   id="svg15712"
   viewBox="0 0 1052.3622 744.09448"
   version="1.1"
   inkscape:version="0.91 r13725"
   sodipodi:docname="BIke Inscape.svg"
   width="297mm"
   height="210mm">
  <defs
     id="defs9" />
  <sodipodi:namedview
     pagecolor="#ffffff"
     bordercolor="#666666"
     borderopacity="1"
     objecttolerance="10"
     gridtolerance="10"
     guidetolerance="10"
     inkscape:pageopacity="0"
     inkscape:pageshadow="2"
     inkscape:window-width="1533"
     inkscape:window-height="893"
     id="namedview7"
     showgrid="false"
     inkscape:zoom="0.63"
     inkscape:cx="472.12168"
     inkscape:cy="256.45504"
     inkscape:window-x="21"
     inkscape:window-y="0"
     inkscape:window-maximized="0"
     inkscape:current-layer="svg15712"
     units="mm" />
  <g
     id="layer1"
     transform="matrix(10.129624,0,0,8.8202881,19.431334,-8342.1939)">
    <path
       id="path13691"
       style="color:#000000;text-indent:0;text-transform:none;block-progression:tb;fill-rule:evenodd"
       d="m 35.513,975.76 c -3.0889,-0.013 -6.3123,0.6296 -8.9194,0.2388 -0.39302,0.015 -0.71703,0.3624 -0.71703,0.7567 l 0,0.4778 c 0,0.049 0.048,0.049 0.0804,0.079 1.2534,0.9784 2.4763,1.6967 3.902,2.3096 0.93424,0.2135 2.3365,-0.8376 2.9863,-1.1946 2.3581,-0.863 5.5526,-0.7509 7.7259,-0.5576 0.06,0 0.17041,-0.064 0.19981,-0.1198 0.15301,-0.3015 0.1242,-0.5947 0,-0.8759 -1.5709,-0.8531 -3.4039,-1.1083 -5.2568,-1.115 z m 1.8721,2.0308 -0.79623,0.079 c -0.036,0 -0.0948,0.018 -0.12,0.04 l -1.5535,1.2744 -3.7832,0.677 -0.15901,-0.1593 c -0.042,-0.033 -0.1092,-0.055 -0.15961,-0.04 -0.16141,0.049 -0.30361,0.059 -0.43802,0.08 -0.048,0.015 -0.0786,0.034 -0.1194,0.04 -0.06,0.015 -0.1422,0.062 -0.15961,0.1197 -0.012,0.06 -0.012,0.1595 0.036,0.1991 l 0.63663,0.4779 0.036,0 c 0.0918,0.073 0.16441,0.1045 0.27901,0.079 l 2.1109,-0.4779 0.47762,1.2743 0.23941,0 2.6677,8.4425 -4.1414,6.1725 c -2.7661,-1.7641 -6.0812,-2.7875 -9.5974,-2.7875 -9.835,0 -17.841,8.02 -17.841,17.82 0,9.8354 8.0055,17.841 17.841,17.841 8.1921,0 15.119,-5.5615 17.204,-13.102 0.61322,2.5093 2.8369,4.3806 5.5346,4.3806 1.3525,0 2.6035,-0.4526 3.5845,-1.2347 l 0.23881,0.2392 1.7521,0 -1.1148,-1.1151 c 0.80283,-0.9877 1.2739,-2.2517 1.2739,-3.6239 0,-1.3565 -0.48722,-2.5621 -1.2739,-3.5442 l 17.681,-20.589 -0.43802,5.8938 c -4.8128,3.1991 -7.9641,8.6561 -7.9641,14.854 0,9.8354 8.0049,17.841 17.84,17.841 9.8356,0 17.841,-8.0052 17.841,-17.841 0,-9.8356 -8.0055,-17.841 -17.841,-17.841 -2.1859,0 -4.3136,0.3913 -6.2516,1.115 l -5.5742,-13.34 4.2608,-0.4779 c 0.21781,0.2517 0.51782,0.3982 0.87604,0.3982 0.65463,0 1.1946,-0.5007 1.1946,-1.1548 0,-0.6541 -0.54062,-1.1946 -1.1946,-1.1946 -0.46922,0 -0.84363,0.2806 -1.035,0.6769 l -5.0978,0.5974 -0.0798,0 c -0.36241,0.085 -0.58742,0.535 -0.43802,0.876 l 1.9117,4.3807 -28.354,3.0264 -2.3101,-7.3673 -0.036,0 -0.27841,-0.8362 0.39842,-0.04 c 0.0678,-0.015 0.1056,-0.038 0.15901,-0.079 l 2.1505,-1.7522 c 0.054,-0.041 0.06,-0.097 0.036,-0.1593 -0.024,-0.062 -0.054,-0.1593 -0.12,-0.1593 z m 34.407,1.3143 c 0.111,0.2071 0.15901,0.4651 0.15901,0.7166 0,0.2516 -0.048,0.4701 -0.15901,0.6771 l 2.7037,0 c 2.1463,0 3.8636,1.7173 3.8636,3.8629 0,2.1457 -1.7173,3.8628 -3.8636,3.8628 -0.37802,-0.013 -0.72783,0.3384 -0.71703,0.7168 0.018,0.3651 0.35221,0.6881 0.71703,0.677 2.8981,0 5.2568,-2.3585 5.2568,-5.2566 0,-2.8981 -2.3587,-5.2566 -5.2568,-5.2566 z m -8.3229,9.1591 0.63662,2.3894 -16.048,18.677 c -0.74823,-0.3579 -1.5841,-0.5575 -2.4691,-0.5575 -0.58802,0 -1.1382,0.1147 -1.6723,0.2787 l -5.695,-18.15 z m -26.403,3.1859 5.6948,18.119 c -0.86763,0.5001 -1.6057,1.2061 -2.1103,2.0708 0,-0.1728 0.036,-0.3437 0.036,-0.5177 0,-5.8599 -2.8315,-11.042 -7.2081,-14.296 z m -14.217,2.4691 c 3.3931,0 6.5709,1.0048 9.2392,2.708 l -8.9602,13.301 c -0.0906,-0.02 -0.18301,-0.079 -0.27901,-0.079 -0.70323,0 -1.2745,0.5706 -1.2745,1.2744 0,0.7037 0.57122,1.2743 1.2745,1.2743 0.35221,0 0.68523,-0.1278 0.91624,-0.3585 l 15.969,2.3098 c -1.5157,7.9477 -8.5035,13.978 -16.885,13.978 -9.484,0 -17.203,-7.7193 -17.203,-17.203 0,-9.4842 7.7193,-17.204 17.203,-17.204 z m 54.318,0 c 9.4846,0 17.204,7.7194 17.204,17.203 0,9.4842 -7.7193,17.204 -17.204,17.204 -9.484,0 -17.203,-7.7194 -17.203,-17.204 0,-5.9076 2.9761,-11.118 7.5273,-14.217 l 8.5611,13.659 c -0.0954,0.1786 -0.15901,0.3413 -0.15901,0.5576 0,0.7038 0.57062,1.2744 1.2739,1.2744 0.70383,0 1.2745,-0.5706 1.2745,-1.2744 0,-0.6761 -0.52862,-1.232 -1.1946,-1.2742 l -6.0932,-14.814 c 1.8733,-0.7006 3.9008,-1.115 6.0134,-1.115 z m -44.044,3.4246 c 4.2092,3.1395 6.9285,8.1377 6.9285,13.779 0,0.6621 -0.048,1.3083 -0.1188,1.9513 l -15.85,-2.2698 z m 12.464,12.146 c 2.7733,0 5.0174,2.2442 5.0174,5.0176 0,1.1729 -0.40082,2.2514 -1.0746,3.1062 l -1.6327,-1.5929 c -0.51302,-0.5538 -0.79623,-1.0385 -0.79623,-1.3937 0,-0.432 0.46262,-1.0993 1.1946,-1.7921 -0.23101,-0.344 -0.53282,-0.6451 -0.87664,-0.8762 -0.69243,0.7319 -1.3603,1.1948 -1.7923,1.1948 -0.43202,0 -1.0992,-0.4629 -1.7917,-1.1948 -0.34381,0.231 -0.64503,0.5322 -0.87604,0.8762 0.73143,0.6928 1.194,1.3601 1.194,1.7921 0,0.4316 -0.46262,1.0594 -1.194,1.7522 0.23101,0.3434 0.53222,0.6449 0.87604,0.8759 0.69243,-0.7313 1.3597,-1.1547 1.7917,-1.1547 0.37622,0 0.92284,0.3088 1.5139,0.8761 l 1.5127,1.5133 c -0.84723,0.6528 -1.9135,1.0353 -3.0661,1.0353 -2.7733,0 -5.0174,-2.2438 -5.0174,-5.0177 0,-2.7734 2.2441,-5.0176 5.0174,-5.0176 z m -0.0786,0.876 -0.27901,0.239 -0.27901,-0.1992 -0.19861,0.2788 -0.31861,-0.1593 -0.15901,0.2789 -0.31921,-0.08 -0.15901,0.2788 -0.31861,-0.04 -0.12,0.3186 -0.31861,-0.04 -0.0786,0.3585 -0.35881,0 0,0.3583 -0.31861,0.04 0,0.3585 -0.31861,0.079 0.0798,0.3584 -0.31801,0.1198 0.0792,0.3186 -0.27901,0.199 0.15961,0.3187 -0.27901,0.1992 0.19921,0.2786 -0.23881,0.2391 0.23881,0.2787 -0.19921,0.2787 0.23941,0.239 -0.16021,0.2787 0.27901,0.1992 -0.15901,0.3186 0.31801,0.1593 -0.0786,0.3185 0.31861,0.1198 -0.036,0.3585 0.31861,0.079 0,0.3187 0.31861,0.08 0.036,0.3186 0.35821,0 0.0798,0.3186 0.31801,-0.04 0.12,0.3186 0.35821,-0.079 0.15901,0.2788 0.31921,-0.1197 0.19921,0.2787 0.27841,-0.1593 0.23881,0.239 0.27901,-0.1991 0.23881,0.1991 0.23941,-0.1991 0.31861,0.1593 0.19861,-0.239 0.31861,0.1198 0.15901,-0.2788 0.31921,0.1199 0.15901,-0.3186 0.31861,0.08 0.12,-0.3185 -0.47762,-0.4779 c -0.51902,0.3208 -1.137,0.5176 -1.7929,0.5176 -1.8781,0 -3.3847,-1.5069 -3.3847,-3.3849 0,-1.8778 1.5067,-3.4248 3.3847,-3.4248 1.8787,0 3.3853,1.5469 3.3853,3.4248 0,0.6535 -0.15781,1.2341 -0.47762,1.7522 l 0.47762,0.4779 0.27841,-0.08 -0.0786,-0.3186 0.31861,-0.1593 -0.12,-0.3185 0.27901,-0.1593 -0.12,-0.3187 0.23941,-0.2388 -0.15961,-0.2788 0.23881,-0.239 -0.23881,-0.2389 0.19921,-0.2788 -0.23941,-0.2389 0.15901,-0.3186 -0.27781,-0.1991 0.12,-0.2786 -0.27901,-0.1993 0.0786,-0.3185 -0.31801,-0.1198 0.036,-0.3186 -0.31861,-0.08 0,-0.3584 -0.31801,-0.04 -0.036,-0.3186 -0.35882,0 -0.0798,-0.3185 -0.31921,0.04 -0.15901,-0.3186 -0.31861,0.079 -0.15901,-0.3186 -0.31861,0.1197 -0.19861,-0.2388 -0.27901,0.1593 -0.23941,-0.2788 -0.27841,0.199 z m 0.1194,3.3849 c 0.46862,0 0.83583,0.4075 0.83583,0.8763 0,0.4683 -0.36721,0.8362 -0.83583,0.8362 -0.46802,0 -0.83643,-0.3679 -0.83643,-0.8362 0,-0.4688 0.36841,-0.8763 0.83643,-0.8763 z m 0,0.1593 c -0.38522,0 -0.67683,0.3321 -0.67683,0.717 0,0.3849 0.29161,0.6769 0.67683,0.6769 0.38522,0 0.67683,-0.2921 0.67683,-0.6769 0,-0.3852 -0.29161,-0.717 -0.67683,-0.717 z m 3.1855,5.5355 c -0.28261,0 -0.51722,0.1952 -0.51722,0.4778 l 0,0.5576 c 0,0.2825 0.23461,0.5178 0.51722,0.5178 l 4.3808,0 c 0.28321,0 0.47822,-0.2352 0.47822,-0.5178 l 0,-0.5576 c 0,-0.2824 -0.19501,-0.4778 -0.47822,-0.4778 z m 2.1913,0.1198 c 0.36001,0 0.63662,0.2768 0.63662,0.6372 0,0.3605 -0.27661,0.6768 -0.63662,0.6768 -0.36122,0 -0.67743,-0.3163 -0.67743,-0.6768 0,-0.3603 0.31621,-0.6372 0.67743,-0.6372 z m 0,0.3186 c -0.18301,0 -0.35881,0.1362 -0.35881,0.3186 0,0.1831 0.17581,0.3583 0.35881,0.3583 0.18301,0 0.31801,-0.1758 0.31801,-0.3583 0,-0.183 -0.13621,-0.3186 -0.31801,-0.3186 z m -1.2751,0.079 c 0.14101,0 0.23881,0.097 0.23881,0.239 0,0.1406 -0.0966,0.2788 -0.23881,0.2788 -0.14041,0 -0.27841,-0.1372 -0.27841,-0.2788 0,-0.1406 0.1374,-0.239 0.27841,-0.239 z m 2.5489,0 c 0.1404,0 0.23881,0.097 0.23881,0.239 0,0.1406 -0.0972,0.2788 -0.23881,0.2788 -0.14101,0 -0.27901,-0.1372 -0.27901,-0.2788 0,-0.1406 0.1374,-0.239 0.27901,-0.239 z m -3.2653,0.08 c 0.093,0 0.15901,0.064 0.15901,0.1593 0,0.093 -0.0678,0.199 -0.15901,0.199 -0.0948,0 -0.19981,-0.1044 -0.19981,-0.199 0,-0.093 0.1062,-0.1593 0.19981,-0.1593 z m 3.9818,0 c 0.093,0 0.15961,0.064 0.15961,0.1593 0,0.093 -0.0672,0.199 -0.15961,0.199 -0.093,0 -0.19861,-0.1044 -0.19861,-0.199 0,-0.093 0.1056,-0.1593 0.19861,-0.1593 z"
       inkscape:connector-curvature="0" />
  </g>
  <metadata
     id="metadata5">
    <rdf:RDF>
      <cc:Work>
        <dc:format>image/svg+xml</dc:format>
        <dc:type
           rdf:resource="http://purl.org/dc/dcmitype/StillImage" />
        <cc:license
           rdf:resource="http://creativecommons.org/publicdomain/zero/1.0/" />
        <dc:publisher>
          <cc:Agent
             rdf:about="http://openclipart.org/">
            <dc:title>Openclipart</dc:title>
          </cc:Agent>
        </dc:publisher>
        <dc:title></dc:title>
        <dc:date>2013-04-16T09:31:51</dc:date>
        <dc:description>Sport bike</dc:description>
        <dc:source>https://openclipart.org/detail/177216/sport-bike-by-ribbla-177216</dc:source>
        <dc:creator>
          <cc:Agent>
            <dc:title>ribbla</dc:title>
          </cc:Agent>
        </dc:creator>
        <dc:subject>
          <rdf:Bag>
            <rdf:li>Sport-bike bike RibllaTeam</rdf:li>
          </rdf:Bag>
        </dc:subject>
      </cc:Work>
      <cc:License
         rdf:about="http://creativecommons.org/publicdomain/zero/1.0/">
        <cc:permits
           rdf:resource="http://creativecommons.org/ns#Reproduction" />
        <cc:permits
           rdf:resource="http://creativecommons.org/ns#Distribution" />
        <cc:permits
           rdf:resource="http://creativecommons.org/ns#DerivativeWorks" />
      </cc:License>
    </rdf:RDF>
  </metadata>
  <path
     style="fill:none;fill-rule:evenodd;stroke:#000000;stroke-width:9.45231247px;stroke-linecap:butt;stroke-linejoin:miter;stroke-opacity:1"
     d="m 96.91803,493.38943 0,0 2.817698,3.68071 150.746852,79.73805 -35.22123,-152.1161"
     id="path3337"
     inkscape:connector-curvature="0" />
  <path
     style="fill:none;fill-rule:evenodd;stroke:#000000;stroke-width:9.45231247px;stroke-linecap:butt;stroke-linejoin:miter;stroke-opacity:1"
     d="m 253.30028,578.03509 162.01763,-63.79097 0,0"
     id="path3339"
     inkscape:connector-curvature="0" />
  <path
     style="fill:none;fill-rule:evenodd;stroke:#000000;stroke-width:9.45231247px;stroke-linecap:butt;stroke-linejoin:miter;stroke-opacity:1"
     d="M 247.66487,578.03509 153.272,706.84305"
     id="path3341"
     inkscape:connector-curvature="0" />
  <path
     style="fill:none;fill-rule:evenodd;stroke:#000000;stroke-width:9.45231247px;stroke-linecap:butt;stroke-linejoin:miter;stroke-opacity:1"
     d="m 253.30028,580.48889 45.08317,142.30212"
     id="path3343"
     inkscape:connector-curvature="0" />
  <path
     style="fill:none;fill-rule:evenodd;stroke:#000000;stroke-width:9.45231247px;stroke-linecap:butt;stroke-linejoin:miter;stroke-opacity:1"
     d="M 247.66487,580.48889 81.420691,627.105"
     id="path3345"
     inkscape:connector-curvature="0" />
  <path
     style="fill:none;fill-rule:evenodd;stroke:#000000;stroke-width:9.45231247px;stroke-linecap:butt;stroke-linejoin:miter;stroke-opacity:1"
     d="M 253.30028,582.94182 388.54978,674.948"
     id="path3347"
     inkscape:connector-curvature="0" />
  <path
     style="fill:none;fill-rule:evenodd;stroke:#000000;stroke-width:9.45231247px;stroke-linecap:butt;stroke-linejoin:miter;stroke-opacity:1"
     d="M 247.66487,576.80819 151.86314,449.22695"
     id="path3349"
     inkscape:connector-curvature="0" />
  <path
     style="fill:none;fill-rule:evenodd;stroke:#000000;stroke-width:9.93016911px;stroke-linecap:butt;stroke-linejoin:miter;stroke-opacity:1"
     d="M 252.36783,575.45604 292.27165,427.27132"
     id="path3351"
     inkscape:connector-curvature="0" />
  <path
     style="fill:none;fill-rule:evenodd;stroke:#000000;stroke-width:9.45231247px;stroke-linecap:butt;stroke-linejoin:miter;stroke-opacity:1"
     d="M 253.30028,584.16872 226.53215,727.69774"
     id="path3353"
     inkscape:connector-curvature="0" />
  <path
     style="fill:none;fill-rule:evenodd;stroke:#000000;stroke-width:9.45231247px;stroke-linecap:butt;stroke-linejoin:miter;stroke-opacity:1"
     d="M 261.75337,581.71491 75.785294,562.08713"
     id="path3355"
     inkscape:connector-curvature="0" />
  <path
     style="fill:none;fill-rule:evenodd;stroke:#000000;stroke-width:9.45231247px;stroke-linecap:butt;stroke-linejoin:miter;stroke-opacity:1"
     d="M 258.93567,576.80819 426.5887,564.54093"
     id="path3357"
     inkscape:connector-curvature="0" />
  <path
     style="fill:none;fill-rule:evenodd;stroke:#000000;stroke-width:9.45231247px;stroke-linecap:butt;stroke-linejoin:miter;stroke-opacity:1"
     d="M 250.48258,578.03509 112.41537,674.948"
     id="path3363"
     inkscape:connector-curvature="0" />
  <path
     style="fill:none;fill-rule:evenodd;stroke:#000000;stroke-width:9.45231247px;stroke-linecap:butt;stroke-linejoin:miter;stroke-opacity:1"
     d="m 976.03982,580.48889 -174.69728,-3.6807 92.98403,-130.03469 0,0"
     id="path3365"
     inkscape:connector-curvature="0" />
  <path
     style="fill:none;fill-rule:evenodd;stroke:#000000;stroke-width:9.45231247px;stroke-linecap:butt;stroke-linejoin:miter;stroke-opacity:1"
     d="m 622.41872,579.26199 178.92382,0 -92.98403,128.80796"
     id="path3367"
     inkscape:connector-curvature="0" />
  <path
     style="fill:none;fill-rule:evenodd;stroke:#000000;stroke-width:9.45231247px;stroke-linecap:butt;stroke-linejoin:miter;stroke-opacity:1"
     d="m 799.93369,579.26199 94.39288,126.35416"
     id="path3369"
     inkscape:connector-curvature="0" />
  <path
     style="fill:none;fill-rule:evenodd;stroke:#000000;stroke-width:9.45231247px;stroke-linecap:butt;stroke-linejoin:miter;stroke-opacity:1"
     d="M 956.31593,505.65757 802.75138,575.58128 644.9603,645.50588"
     id="path3373"
     inkscape:connector-curvature="0" />
  <path
     style="fill:none;fill-rule:evenodd;stroke:#000000;stroke-width:9.45231247px;stroke-linecap:butt;stroke-linejoin:miter;stroke-opacity:1"
     d="m 815.43103,422.23864 -14.08849,155.79645 -2.8177,149.66265"
     id="path3375"
     inkscape:connector-curvature="0" />
  <path
     style="fill:none;fill-rule:evenodd;stroke:#000000;stroke-width:9.45231247px;stroke-linecap:butt;stroke-linejoin:miter;stroke-opacity:1"
     d="m 802.75138,575.58128 152.1557,76.05823"
     id="path3377"
     inkscape:connector-curvature="0" />
  <path
     style="fill:none;fill-rule:evenodd;stroke:#000000;stroke-width:9.45231247px;stroke-linecap:butt;stroke-linejoin:miter;stroke-opacity:1"
     d="M 802.75138,580.48889 644.9603,501.97686"
     id="path3379"
     inkscape:connector-curvature="0" />
  <path
     style="fill:none;fill-rule:evenodd;stroke:#000000;stroke-width:9.45231247px;stroke-linecap:butt;stroke-linejoin:miter;stroke-opacity:1"
     d="M 1274.7158,369.48864 Z"
     id="path3381"
     inkscape:connector-curvature="0" />
  <path
     style="fill:none;fill-rule:evenodd;stroke:#000000;stroke-width:9.45231247px;stroke-linecap:butt;stroke-linejoin:miter;stroke-opacity:1"
     d="m 402.44899,396.29182 -5.61198,3.66492 -1.40299,1.22161"
     id="path3385"
     inkscape:connector-curvature="0" />
  <path
     style="fill:none;fill-rule:evenodd;stroke:#000000;stroke-width:9.45231247px;stroke-linecap:butt;stroke-linejoin:miter;stroke-opacity:1"
     d="m 391.22503,402.40004 0,-12.21654"
     id="path3387"
     inkscape:connector-curvature="0" />
  <path
     style="fill:none;fill-rule:evenodd;stroke:#000000;stroke-width:9.45231247px;stroke-linecap:butt;stroke-linejoin:miter;stroke-opacity:1"
     d="m 399.643,373.08052 -8.41797,15.88137"
     id="path3389"
     inkscape:connector-curvature="0" />
  <path
     style="fill:none;fill-rule:evenodd;stroke:#000000;stroke-width:9.45231247px;stroke-linecap:butt;stroke-linejoin:miter;stroke-opacity:1"
     d="m 405.25499,376.74544 4.20898,20.76799"
     id="path3391"
     inkscape:connector-curvature="0" />
  <path
     style="fill:#d40000;fill-rule:evenodd;stroke:#000000;stroke-width:9.45231247px;stroke-linecap:butt;stroke-linejoin:miter;stroke-opacity:1"
     d="m 685.854,348.64753 21.04492,42.75767"
     id="path3393"
     inkscape:connector-curvature="0" />
  <path
     style="fill:#d40000"
     d="M 220.47595,730.60049 C 184.603,725.11957 151.11264,709.9522 124.84274,687.28759 89.430809,656.73676 71.340136,619.44458 71.210471,576.7288 c -0.07648,-25.19868 4.463446,-43.33319 16.820494,-67.1903 7.884739,-15.22294 6.309888,-12.93231 18.339435,-26.66726 35.50831,-40.5429 87.33256,-63.10158 145.0027,-63.11896 31.22374,-0.009 63.14441,7.25778 88.32574,20.1085 4.76539,2.43193 8.81335,4.26125 8.99546,4.06518 2.57675,-2.77398 37.59851,-49.34007 38.22915,-50.8307 0.47852,-1.13112 1.54214,-2.44596 2.36362,-2.9219 1.04017,-0.60243 0.99807,-1.29694 -0.13877,-2.28675 -0.89779,-0.78148 -1.35502,-2.0508 -1.01604,-2.82002 0.92757,-2.1047 -24.00042,-69.95785 -26.50121,-72.1354 -1.19253,-1.03842 -2.89942,-3.81716 -3.79307,-6.17491 -0.89363,-2.35784 -1.73372,-4.26814 -1.86679,-4.24521 -0.1331,0.0265 -5.29273,1.10131 -11.4659,2.39639 -10.76675,2.25879 -11.36323,2.26655 -14.64299,0.18963 -1.88046,-1.19091 -3.64306,-2.7506 -3.91689,-3.46584 -0.59633,-1.55766 6.00797,-2.87083 7.61442,-1.514 0.61852,0.52216 9.91704,-0.4172 20.66349,-2.08847 19.48557,-3.02986 19.56168,-3.05473 27.83184,-9.07184 5.76786,-4.19661 9.53702,-6.0337 12.37913,-6.0337 2.24746,0 4.04955,0.41191 4.00464,0.91625 -0.12743,1.43013 -21.31379,15.77906 -24.60273,16.66276 -2.87462,0.77266 -2.79327,1.17734 3.7736,18.78686 3.69135,9.89857 9.62396,26.10612 13.18358,36.01668 l 6.47205,18.01932 5.46071,0 c 3.00339,0 35.01102,-2.76207 71.12807,-6.13795 36.11706,-3.37597 83.34512,-7.77376 104.95125,-9.77306 72.99663,-6.75457 106.62614,-9.97874 106.96202,-10.25473 0.18396,-0.15082 -4.07768,-8.96732 -9.47021,-19.59153 -10.20359,-20.10285 -11.02996,-22.69196 -7.95241,-24.91591 1.01872,-0.73649 13.48784,-2.51448 27.70915,-3.95184 23.06476,-2.33111 26.24399,-2.92833 29.4412,-5.53014 9.51689,-7.74466 24.82836,2.56203 17.14935,11.5439 -4.06294,4.75229 -8.81834,5.86964 -14.49198,3.40508 -4.35837,-1.89319 -6.11138,-1.89363 -25.80227,-0.006 -11.61942,1.114 -21.30301,2.14888 -21.5191,2.2998 -0.47467,0.33164 55.24021,116.57475 56.32764,117.5216 0.41998,0.36605 6.6312,-0.76736 13.80276,-2.51748 20.24893,-4.94201 31.73012,-6.02638 56.53204,-5.33928 24.47161,0.67829 38.3828,3.10051 60.32879,10.50585 48.28947,16.29469 89.14402,54.64451 104.93406,98.50163 12.09357,33.58942 10.23564,73.71114 -4.88368,105.46153 -28.32409,59.4805 -93.75043,97.95901 -166.52568,97.93696 -69.85416,0 -131.65771,-33.77112 -162.18052,-88.56452 -20.26698,-36.38192 -23.41573,-79.79626 -8.57878,-118.28182 10.68107,-27.70541 33.65805,-55.68266 60.3521,-73.48588 l 10.37473,-6.91925 0.80531,-6.93945 c 1.87756,-16.17879 3.93121,-44.36764 3.27399,-44.9399 -0.60666,-0.52834 -175.49142,175.99694 -178.18424,179.85494 -0.52411,0.74972 1.48325,5.46505 4.46088,10.47585 10.06596,16.9376 8.81767,34.76781 -3.59516,51.35172 -2.48446,3.31907 -2.4754,3.34906 2.37158,7.75391 l 4.86555,4.4225 -9.82097,-0.34399 c -8.78208,-0.30871 -10.85986,0.097 -19.64193,3.85093 -9.29559,3.97354 -10.60905,4.19846 -24.55241,4.19846 -13.54623,0 -15.46549,-0.29989 -23.85494,-3.76538 -5.05761,-2.08688 -12.12375,-6.37707 -15.85582,-9.62646 -6.48597,-5.64763 -15.00605,-18.13981 -15.00605,-22.00133 0,-4.09791 -2.42975,-1.48445 -4.79604,5.15722 -12.68972,35.61985 -46.72224,70.9945 -85.64724,89.02493 -28.09508,13.01434 -48.25037,17.56473 -80.72212,18.22713 -16.31882,0.33517 -26.62817,-0.0882 -34.93916,-1.3301 z m 63.5022,-4.98346 c 6.83573,-1.09019 11.79791,-2.32679 11.02708,-2.74752 -0.77087,-0.42337 -9.73024,-27.08887 -19.90975,-59.26351 -10.17951,-32.17465 -18.94083,-59.51754 -19.46958,-60.76209 -0.73227,-1.72348 -24.37929,119.64016 -24.11554,123.76805 0.16977,2.65755 33.54332,2.02426 52.46779,-0.99493 z m 552.88528,-0.5645 c 22.27562,-3.95237 53.68728,-15.44785 52.09316,-19.06505 -0.39546,-0.89791 -19.20209,-26.36031 -41.79248,-56.58391 l -41.07343,-54.95128 -0.86933,22.90188 c -0.47812,12.59625 -0.95451,36.37046 -1.05863,52.83264 -0.10413,16.46131 -0.59856,36.11467 -1.09877,43.67366 l -0.90943,13.74377 -4.11942,0 -4.11941,0 0.84005,-45.50651 c 0.46201,-25.02845 1.20639,-55.40199 1.65408,-67.49637 0.44773,-12.0935 0.51104,-21.71467 0.14081,-21.37862 -3.76081,3.41257 -82.13971,114.15129 -81.46607,115.10035 1.59259,2.24388 23.26617,10.46351 36.18957,13.72437 11.17866,2.82073 20.44155,4.37663 35.87609,6.0269 9.56111,1.02228 35.96361,-0.58214 49.71319,-3.02183 z M 235.29456,656.74646 c 7.0928,-37.95017 12.61697,-69.24279 12.27592,-69.54004 -0.34107,-0.29989 -1.14573,0 -1.78816,0.59978 -2.35715,2.30122 -85.77088,116.82472 -85.77088,117.75967 0,1.36274 17.62883,9.26836 29.02074,13.01522 11.16188,3.671 28.29132,7.71775 31.28498,7.3914 1.63678,-0.17641 4.83614,-14.96627 14.9774,-69.22691 z m 81.55414,60.36252 c 13.75698,-4.95876 26.84015,-11.38875 38.17906,-18.76516 10.58108,-6.88335 26.87528,-20.86086 26.25381,-22.52084 -0.52745,-1.4086 -117.69451,-81.57179 -118.36846,-80.98436 -0.82526,0.72326 39.57515,126.63817 40.634,126.64699 0.62247,0.005 6.60813,-1.9634 13.30159,-4.37663 z m 432.2769,-72.70034 c 23.32982,-32.3193 42.21857,-58.90012 41.97499,-59.06859 -0.91561,-0.63506 -142.08752,62.70608 -142.57005,63.96649 -0.71313,1.86285 10.46033,16.14642 21.19995,27.10034 8.72205,8.89614 32.30103,26.67343 35.45939,26.73518 0.83478,0 20.60589,-26.41412 43.93572,-58.73342 z m 176.92115,38.0172 c 5.78736,-5.12105 13.85612,-13.52061 17.93059,-18.66372 l 7.40812,-9.35216 -3.19914,-1.75082 c -1.75952,-0.96318 -31.29412,-15.76715 -65.63242,-32.89703 -34.3383,-17.12988 -64.91908,-32.4225 -67.95729,-33.98457 -4.30878,-2.21478 -5.33441,-2.40882 -4.66217,-0.8838 0.78991,1.79317 70.04188,94.95129 82.72041,111.27676 l 5.47382,7.04829 8.69781,-5.74024 c 4.78379,-3.15678 13.43291,-9.93076 19.22027,-15.05271 z M 177.82639,666.21592 c 13.90477,-18.98126 30.46665,-41.59472 36.80417,-50.25271 7.96901,-10.88688 10.42131,-15.03154 7.95137,-13.43859 -14.71643,9.49239 -103.10385,72.20111 -103.17166,73.19781 -0.17461,2.56758 28.05297,24.86086 31.60671,24.96141 0.84035,0 12.90463,-15.48578 26.80941,-34.46792 z m 223.57094,-12.80353 c 3.20491,-4.85822 7.98445,-13.17839 10.6212,-18.48909 4.83733,-9.74201 11.19548,-29.15723 9.91402,-30.27299 -0.94175,-0.82029 -154.13817,-20.12702 -156.34803,-19.70364 -0.96575,0.18522 26.18215,19.37993 60.3288,42.65667 l 62.08483,42.32151 3.78605,-3.83947 c 2.08232,-2.11158 6.40825,-7.81478 9.61313,-12.67299 z m -233.5253,-22.31798 c 29.15088,-20.49394 53.98644,-37.93517 55.19014,-38.75987 1.2037,-0.82029 -1.59954,-0.44101 -6.22942,0.85557 -4.62989,1.29393 -35.25025,9.8505 -68.04527,19.01566 -32.79501,9.16428 -60.125746,17.07519 -60.73497,17.5806 -2.578918,2.13627 22.32516,40.00706 25.6168,38.95392 0.66061,-0.21169 25.05183,-17.15105 54.20272,-37.64411 z m 334.07529,15.95061 c 11.67324,-4.43307 11.8639,-5.24366 3.08178,-13.09989 -10.73796,-9.60529 -17.75329,-13.84697 -22.89004,-13.83991 -4.10026,0.006 -6.38698,0.98081 -15.49256,6.60198 -3.77796,2.33297 -3.77889,2.33297 -7.41723,-0.83792 l -3.63879,-3.16825 4.54421,-4.50717 c 8.94288,-8.8688 9.04935,-12.2849 0.6803,-21.82845 l -5.12059,-5.83991 3.56908,-3.10739 3.56909,-3.10827 6.038,4.50011 c 9.92218,7.39581 15.66225,7.37729 25.14237,-0.0882 l 5.62992,-4.42867 4.16647,3.47608 4.16646,3.47607 -4.14867,3.73275 c -2.28176,2.05248 -5.09601,5.71025 -6.25388,8.1279 -1.93843,4.04674 -1.88979,4.77442 0.61406,9.18103 3.41256,6.00574 21.53887,21.84433 23.68049,20.6924 2.95289,-1.58942 8.72637,-13.13076 10.0253,-20.04058 1.71255,-9.11135 -0.49625,-19.5484 -6.06841,-28.67564 -5.09452,-8.34487 -12.7418,-14.53054 -23.48247,-18.99449 -6.65325,-2.76604 -9.55294,-3.20793 -21.04492,-3.20793 -11.42571,0 -14.43919,0.45865 -21.10895,3.17794 -15.1336,6.18038 -24.86693,16.60508 -28.9472,31.00244 -6.32487,22.31709 8.93604,45.27453 35.02451,52.68799 8.7889,2.4979 26.60655,1.55149 35.68164,-1.8946 z m 460.25814,-11.98059 c 6.57294,-13.88049 11.12729,-29.07873 12.41418,-41.42713 l 0.91166,-8.74885 -7.5556,-0.67034 c -7.73775,-0.67916 -143.26026,-3.34642 -143.85735,-2.8269 -0.54204,0.46747 129.14909,65.35833 130.86676,65.47476 0.86902,0.0882 4.11813,-5.25336 7.22031,-11.80419 z M 774.40638,583.86795 c 0.32151,-0.22933 -32.86182,-0.41456 -73.74077,-0.41456 l -74.32533,0 1.16378,9.458 c 1.54909,12.58919 5.66844,27.33936 10.99187,39.35965 l 4.35316,9.82933 65.48634,-28.90585 c 36.01749,-15.89857 65.74942,-29.09372 66.07095,-29.32393 z m -590.19327,10.36913 c 22.18486,-6.1892 40.3361,-11.57575 40.3361,-11.97002 0,-0.59096 -143.814698,-16.11907 -147.878449,-15.96736 -3.276274,0.12348 1.402373,39.0871 6.2581,52.11908 l 1.422275,3.81742 29.762934,-8.37398 c 16.3696,-4.60508 47.91418,-13.43683 70.09904,-19.62514 z m 303.59583,17.8602 c 2.77465,-2.41588 3.37317,-3.85623 2.66542,-6.41412 -2.62652,-9.49151 -17.59501,-8.03792 -17.59501,1.70849 0,2.76693 0.97092,4.60949 3.11817,5.9193 4.42973,2.70165 7.70073,2.3656 11.81142,-1.21367 z m -62.63142,-31.16296 c 0,-10.75282 -0.28141,-12.14378 -2.45525,-12.14201 -1.35038,0.002 -28.65617,1.92459 -60.67953,4.27343 -32.02337,2.34884 -59.80267,4.33605 -61.73179,4.41543 -2.9384,0.12349 -3.05221,0.24697 -0.70147,0.77619 5.76015,1.29305 123.50547,15.7645 124.51581,15.30408 0.57871,-0.26461 1.05225,-5.94487 1.05225,-12.62448 z M 424.457,482.62603 c -15.68864,-43.43674 -28.88943,-79.29359 -29.33508,-79.6816 -1.04425,-0.90928 0.75121,-3.0669 -19.42836,23.34783 l -17.59784,23.03533 17.23029,14.83573 c 9.53158,8.20692 20.35664,18.92931 24.22731,23.99833 18.67958,24.45954 28.88625,50.6408 30.71884,78.79604 l 0.87469,13.43771 10.91748,-9.39625 10.91748,-9.39714 -28.5248,-78.97598 z m 550.67477,80.49131 c -0.8988,-7.9462 -3.11414,-19.40376 -4.92298,-25.46065 -3.66769,-12.28225 -11.10989,-28.24432 -12.99886,-27.88005 -1.86239,0.36164 -139.23714,63.05271 -138.83892,63.36142 0.19064,0.14995 35.38644,0.96406 78.21287,1.81346 43.56827,0.86438 78.08509,2.03307 78.36312,2.65402 1.55923,3.48401 1.62594,-1.7473 0.18476,-14.4882 z m -740.09864,10.09834 c -4.46742,-2.71576 -133.08288,-70.6505 -134.91931,-71.2644 -2.093284,-0.6968 -8.566002,10.32591 -14.13717,24.08115 -4.695112,11.59251 -9.470797,30.3074 -8.053389,31.55988 0.877023,0.77618 146.980389,16.88644 155.706879,17.17045 3.93444,0.12349 4.01381,0 1.40299,-1.54708 z m 542.99767,-0.6527 c -2.31495,-1.26042 -31.04128,-15.60662 -63.83628,-31.88005 -32.79501,-16.27343 -61.68175,-30.67167 -64.19277,-31.99559 l -4.56548,-2.40882 -4.30672,8.34928 c -7.75653,15.03683 -12.25572,31.0483 -14.61824,52.02294 l -0.92879,8.24609 78.32866,0 c 77.1732,0 78.26655,-0.0882 74.11966,-2.31356 l 0,8.8e-4 z m -415.67784,-7.31731 c 33.73726,-2.49261 61.62834,-4.78148 61.98018,-5.08842 2.1777,-1.89548 -9.00799,-40.23463 -11.73893,-40.23463 -1.31236,0 -119.30555,46.25271 -125.92776,49.36274 -3.71279,1.74377 -3.47097,1.79758 5.22655,1.15987 5.01571,-0.37045 36.72269,-2.70783 70.45996,-5.19956 z m -4.88085,-32.49394 52.25065,-20.58832 -5.59508,-9.03197 c -8.13971,-13.13959 -19.21923,-25.38373 -34.4194,-38.03688 -7.36104,-6.12763 -13.83332,-11.11841 -14.38285,-11.09072 -0.80966,0.0441 -83.90763,107.1351 -87.66848,112.98472 -0.59764,0.92878 7.60987,-1.76141 18.23894,-5.97927 10.62906,-4.21787 42.83836,-16.93407 71.57622,-28.25756 z m 430.18977,34.50938 c -3.59748,-5.19692 -83.67501,-116.45083 -84.09744,-116.83839 -1.06954,-0.98126 -17.10037,10.38042 -27.25079,19.31378 -8.84798,7.78708 -27.44114,29.14268 -26.26482,30.16671 0.55176,0.48512 137.74299,68.80972 138.23648,68.84941 0.23845,0 -0.0426,-0.6527 -0.62348,-1.49151 z m 97.13539,-33.38391 c 37.72509,-17.18545 68.77828,-31.40993 69.0071,-31.60927 1.28524,-1.11929 -18.19844,-23.92327 -27.43202,-32.10699 -10.9345,-9.69138 -25.28406,-19.87238 -28.0091,-19.87238 -0.81027,0 -19.42601,25.15061 -41.36842,55.89029 -45.39358,63.59339 -42.13101,58.94422 -41.36945,58.94422 0.31948,0 31.4468,-14.06042 69.17189,-31.24587 z M 227.28061,496.09197 c -8.41142,-36.27847 -15.30809,-66.37285 -15.3259,-66.87684 -0.0567,-1.59189 -4.12269,-1.00975 -15.218,2.17861 -12.67584,3.64243 -39.53124,15.04433 -39.53124,16.78351 0,1.13438 84.6003,114.50613 85.12492,114.07482 0.13402,-0.10585 -6.63837,-29.88226 -15.04978,-66.1601 z m -37.20993,10.84895 c -22.11655,-29.47925 -40.43576,-53.81231 -40.70936,-54.07401 -2.01119,-1.92353 -31.83609,23.4849 -40.52339,34.52296 -4.58647,5.82756 -5.20902,7.26968 -3.50749,8.1279 1.13779,0.57331 29.53233,15.59956 63.09899,33.39008 33.56666,17.79052 61.21543,32.18523 61.44172,31.98854 0.22629,-0.19405 -17.68394,-24.47718 -39.80047,-53.95547 z m 357.33121,12.67564 c 77.18315,-78.26701 118.40513,-120.13771 120.21479,-122.1064 1.51811,-1.65142 1.29352,-3.75197 -1.33389,-12.47471 -2.79218,-9.26994 -3.52832,-10.48899 -6.33393,-10.48899 -1.74601,0 -48.81252,4.14262 -104.59224,9.20582 -55.77973,5.06311 -110.8879,10.05372 -122.46261,11.0901 -11.57472,1.03638 -22.35439,2.25376 -23.95483,2.70527 -2.78257,0.78501 -1.65366,4.30368 25.79732,80.40883 l 28.70723,79.5882 13.48653,-0.57332 c 9.63659,-0.41455 15.28883,-0.0882 19.80003,1.22514 3.4724,0.99052 7.28121,1.8549 8.46403,1.92106 1.1828,0.0882 20.17621,-18.15833 42.20757,-40.49836 z m 302.06589,-17.31952 c 22.05562,-30.85884 40.10112,-56.46175 40.10112,-56.89518 0,-1.42007 -20.50022,-9.76741 -33.1826,-13.51154 -10.89109,-3.21517 -35.33049,-7.86699 -36.40697,-6.92966 -0.21454,0.18699 -2.95556,29.18845 -6.09122,64.44817 -3.13568,35.25999 -5.9086,65.63794 -6.16206,67.50696 -0.25344,1.86902 0.0122,2.96803 0.58985,2.44322 0.5779,-0.5204 19.09623,-26.20331 41.15184,-57.06197 z M 269.4392,494.26793 c 9.29507,-34.60322 17.22756,-63.82854 17.62778,-64.9451 0.88968,-2.4823 -1.75776,-3.0587 -21.46706,-4.67352 -12.25723,-1.00428 -43.10309,0.14289 -44.85478,1.66818 -0.47609,0.41455 28.78498,128.6596 29.99823,131.47592 0.43415,1.00816 1.01588,1.28247 1.29259,0.6086 0.27674,-0.67034 8.10819,-29.53385 17.40324,-64.13673 z m 535.35629,-3.3667 c 3.266,-36.11088 5.62268,-65.9313 5.23707,-66.26727 -0.38564,-0.33605 -6.79674,-0.49923 -14.24695,-0.36251 -14.65371,0.26813 -30.06433,2.48891 -46.22981,6.66143 -8.1112,2.09359 -10.06344,3.04547 -9.40453,4.58532 5.25376,12.27793 57.67463,121.9127 58.11374,121.54136 0.32577,-0.27343 3.26449,-30.04719 6.53048,-66.15833 z m -499.6573,9.48622 c 36.96021,-47.77624 39.95769,-52.03864 37.65738,-53.54744 -7.60911,-4.99114 -44.23031,-18.64989 -45.96152,-17.1425 -0.32688,0.2849 -7.89792,27.71088 -16.82456,60.94705 -8.92663,33.23661 -16.57119,61.25425 -16.98792,62.26241 -1.53783,3.71863 2.65593,-1.51092 42.11662,-52.51952 z"
     id="path3395"
     inkscape:connector-curvature="0" />
  <path
     style="fill:none;fill-rule:evenodd;stroke:#000000;stroke-width:9.45231247px;stroke-linecap:butt;stroke-linejoin:miter;stroke-opacity:1"
     d="m 405.25499,396.29182 -9.82097,6.10822 -8.41797,-17.10306"
     id="path3397"
     inkscape:connector-curvature="0" />
  <path
     style="fill:none;fill-rule:evenodd;stroke:#000000;stroke-width:9.45231247px;stroke-linecap:butt;stroke-linejoin:miter;stroke-opacity:1"
     d="m 387.01605,381.63206 11.22396,-7.32993 14.02994,20.76799 -14.02994,-20.76799"
     id="path3399"
     inkscape:connector-curvature="0" />
  <path
     style="fill:none;fill-rule:evenodd;stroke:#000000;stroke-width:9.45231247px;stroke-linecap:butt;stroke-linejoin:miter;stroke-opacity:1"
     d="M 408.06097,397.51343 Z"
     id="path3401"
     inkscape:connector-curvature="0" />
  <path
     style="fill:#000000;fill-rule:evenodd;stroke:#000000;stroke-width:9.45231247px;stroke-linecap:butt;stroke-linejoin:miter;stroke-opacity:1"
     d="m 399.643,401.17835 8.41797,-7.32984 0,0"
     id="path3403"
     inkscape:connector-curvature="0" />
  <path
     style="fill:none;fill-rule:evenodd;stroke:#000000;stroke-width:9.45231247px;stroke-linecap:butt;stroke-linejoin:miter;stroke-opacity:1"
     d="m 684.45101,344.98261 19.64192,51.30921"
     id="path3405"
     inkscape:connector-curvature="0" />
  <path
     style="fill:#000000;fill-rule:evenodd;stroke:#000000;stroke-width:9.45231247px;stroke-linecap:butt;stroke-linejoin:miter;stroke-opacity:1"
     d="m 430.50889,583.20378 -7.01497,34.20596"
     id="path3407"
     inkscape:connector-curvature="0" />
  <path
     style="fill:#000000"
     d="m 218.23574,729.93368 c -19.11687,-3.29791 -44.22199,-11.70805 -58.9258,-19.7398 -58.84235,-32.14378 -90.762767,-84.59274 -87.174068,-143.23796 1.728434,-28.2452 14.281988,-60.46395 31.178438,-80.01765 33.97299,-39.31767 78.52509,-61.55899 132.06453,-65.92962 33.5113,-2.73562 67.79932,3.09892 98.48209,16.75801 8.03524,3.57707 15.07331,6.07119 15.64013,5.5425 1.56532,-1.46011 31.47618,-40.88195 33.40295,-44.02435 2.36174,-3.85182 3.70202,-3.44574 6.04831,1.8325 l 2.03644,4.58117 -16.66104,21.76847 -16.66101,21.76847 18.04012,16.17932 c 9.92208,8.89861 20.93522,19.99321 24.47369,24.65385 17.91719,23.60221 27.12915,48.64124 30.0366,81.64412 l 0.84957,9.64322 11.26217,-9.8064 11.26218,-9.8064 -27.42928,-75.57928 c -15.08611,-41.56834 -27.81335,-76.43459 -28.28276,-77.48059 -0.59897,-1.33451 0.72346,-2.62483 4.43384,-4.32617 l 5.2873,-2.42443 4.57662,13.7338 c 4.85699,14.57509 39.66482,111.77193 46.8512,130.8264 l 4.26183,11.30055 14.69597,0 c 8.08279,0 17.6255,0.64388 21.206,1.42712 l 6.51003,1.42801 9.78099,-9.06285 c 5.37955,-4.98434 42.23992,-41.99868 81.91194,-82.25413 71.72896,-72.78334 72.12572,-73.21562 71.18829,-77.57452 -0.51854,-2.41076 -1.99009,-7.13199 -3.27025,-10.49155 l -2.32756,-6.10823 -11.71308,0.27784 c -8.91072,0.2108 -203.77754,17.24657 -235.21405,20.56265 -4.95261,0.52216 -5.24108,0.42337 -2.45525,-0.84322 1.73621,-0.78942 3.14616,-1.76326 3.13322,-2.1645 -0.0122,-0.40132 -2.79084,-4.85266 -6.17317,-9.89195 l -6.14967,-9.16234 23.35987,-2.16459 c 189.91223,-17.59753 246.89989,-22.95577 249.29543,-23.43974 2.59098,-0.52304 3.76378,1.80313 12.49541,24.78766 l 9.63605,25.36538 -41.29437,41.47811 c -34.30514,34.45769 -66.09105,66.65025 -125.03076,126.63173 l -6.84714,6.96803 5.30944,10.13451 c 5.05523,9.6494 5.31111,10.74929 5.34398,22.96274 0.0334,12.45866 -0.12034,13.09725 -5.35622,22.22801 l -5.39075,9.40154 3.80353,4.34223 3.80353,4.34223 -9.40159,0 c -7.3798,0 -11.46382,0.785 -18.99135,3.66483 -8.64438,3.30408 -11.03142,3.66483 -24.21274,3.66483 -13.64621,0 -15.22362,-0.26461 -23.61576,-3.91268 -4.94604,-2.15127 -11.8637,-6.41235 -15.37258,-9.4677 -6.7282,-5.85843 -16.51781,-21.10254 -14.01791,-21.82757 0.80145,-0.22932 1.49948,-1.61411 1.55111,-3.07034 0.0567,-1.59823 0.82597,-0.6086 1.94153,2.50144 4.33095,12.06703 15.01011,22.78721 28.52696,28.63771 5.73144,2.48026 8.58857,2.8516 21.34847,2.77486 15.30018,-0.0882 24.83696,-2.38765 29.28044,-7.05006 2.19099,-2.29856 0.081,-4.88203 -11.743,-14.37442 -12.17009,-9.77112 -17.19195,-10.62845 -27.83395,-4.75237 -7.85152,4.33605 -8.17636,4.37133 -11.41739,1.25336 -2.4091,-2.31797 -2.40391,-2.53848 0.13331,-5.65028 9.29027,-11.39581 9.42204,-12.48247 2.58705,-21.32657 -2.72997,-3.53164 -5.24994,-6.82514 -5.59993,-7.31819 -0.34997,-0.49394 0.98086,-1.81963 2.95755,-2.94774 3.38418,-1.93076 3.80308,-1.92018 7.17871,0.16758 13.10259,8.12261 16.55496,8.42161 25.52786,2.21037 3.3881,-2.34532 6.54483,-4.25138 7.01498,-4.23639 0.47012,0 2.35248,1.03021 4.18298,2.25535 l 3.32817,2.22889 -4.99915,6.32767 c -2.74954,3.48049 -5.40076,7.43021 -5.89158,8.77707 -1.32071,3.62337 4.61255,11.55105 15.37098,20.53892 8.87245,7.41257 9.43925,7.68424 11.93124,5.72084 3.02323,-2.38236 8.07211,-13.69614 9.31082,-20.86439 1.15835,-6.70342 -1.33345,-17.49063 -5.92692,-25.6591 -4.46042,-7.93208 -12.66433,-14.92128 -23.16844,-19.73892 -6.8407,-3.13738 -8.77344,-3.43462 -22.22373,-3.4258 -18.259,0 -24.65699,2.34619 -37.57288,13.71202 -8.27337,7.28026 -9.10876,7.7054 -13.6792,6.95832 -4.83976,-0.79382 -4.8677,-0.8291 -4.8677,-7.37817 l 0,-6.58346 -4.57967,0 c -5.62865,0 -105.38909,6.94686 -116.07792,8.08291 -7.1129,0.75855 -7.38724,0.89702 -3.50748,1.80375 4.90277,1.14487 97.8713,12.81764 111.9779,14.05866 l 9.55927,0.83792 -0.95087,5.01522 c -0.52299,2.7581 -1.03703,5.10695 -1.1424,5.21985 -0.10535,0.11466 -3.25875,-0.29107 -7.00751,-0.90408 -15.33439,-2.49438 -144.40293,-18.34797 -146.50584,-17.99604 -2.77366,0.46748 10.69665,10.19537 73.86754,53.35481 36.72655,25.09195 47.22056,31.68865 48.70422,30.61698 5.8673,-4.23991 21.15687,-28.79647 26.46649,-42.50673 2.07621,-5.36185 3.9747,-8.25138 5.60231,-8.52745 2.86168,-0.48512 2.68236,0.24696 -3.55703,14.46703 -15.43301,35.17972 -51.36251,68.49218 -91.63937,84.96495 -26.36705,10.78369 -37.39824,12.80618 -73.07658,13.39802 -15.43295,0.25579 -31.21665,-0.0882 -35.07488,-0.7409 z m 65.60719,-4.00176 c 5.21806,-0.88909 9.85503,-1.93694 10.30438,-2.32856 0.44935,-0.38809 -5.50948,-20.12966 -13.24188,-43.86241 -7.7324,-23.73363 -16.43665,-50.71489 -19.34279,-59.95856 -2.90613,-9.24366 -5.7388,-16.39074 -6.29483,-15.88092 -1.68222,1.54002 -23.70362,113.43596 -23.70362,120.44279 0,1.87079 0.96333,3.33319 2.45525,3.72746 4.16638,1.09901 39.79926,-0.4322 49.82349,-2.1398 z m -60.90903,-4.82029 c 1.6207,-5.60441 20.0338,-102.25713 22.6187,-118.72814 0.8436,-5.37508 1.84138,-11.01036 2.21738,-12.52216 1.27047,-5.10783 -2.00745,-2.79162 -8.64476,6.10893 -40.74397,54.6364 -79.2994,108.68095 -78.62489,110.21127 1.69776,3.8527 48.00797,19.95854 57.91961,20.14289 2.37252,0.0882 3.30494,-1.03198 4.51396,-5.21279 z m 101.84225,-6.83837 c 7.76444,-3.21059 18.82018,-8.643 24.5683,-12.07233 9.96555,-5.94487 32.34022,-23.90739 32.34022,-25.96252 0,-1.88048 -117.65067,-82.37796 -118.86,-81.32482 -0.92372,0.80265 37.73932,122.7202 39.88318,125.7632 1.10722,1.57177 6.71933,-0.0882 22.0683,-6.40353 z M 161.38449,688.81262 c 21.52405,-28.20023 61.76173,-83.90829 61.76173,-85.50741 0,-1.04255 -3.80637,0.85557 -9.47022,4.73121 -21.30324,14.56494 -89.63172,63.29527 -92.1522,65.72085 -2.70779,2.60639 -2.70239,2.61786 4.20899,8.81676 9.17059,8.22491 22.78007,18.15215 24.88127,18.15038 0.92453,-0.002 5.77119,-5.36185 10.77043,-11.91179 z m 7.58846,-57.97135 c 30.00003,-20.96759 53.83087,-38.33032 52.95744,-38.58347 -0.87348,-0.25578 -29.42832,7.33054 -63.45528,16.85469 -59.417833,16.62977 -71.419413,20.2064 -71.419413,21.28424 0,4.74002 23.086743,38.56671 26.321623,38.56671 0.57756,0 25.5956,-17.15546 55.59563,-38.12217 z M 143.877,605.97159 c 74.16735,-20.83529 80.87112,-22.84543 79.63669,-23.87388 -1.13139,-0.94377 -135.570544,-15.75303 -143.002096,-15.75303 -3.401782,0 -4.48314,0.59978 -4.949593,2.74928 -1.459264,6.72018 3.690568,42.16098 7.341251,50.52173 0.949419,2.17508 2.075101,2.88776 3.802784,2.40794 1.349784,-0.37927 27.076714,-7.59868 57.170964,-16.05204 z m 343.99412,6.58258 c 6.02851,-4.93142 2.58525,-13.22514 -5.49063,-13.22514 -5.6796,0 -9.50114,3.10915 -9.50114,7.72922 0,7.5581 8.61155,10.71576 14.99177,5.49592 z M 236.40453,573.76342 c -1.30663,-1.11135 -85.51465,-45.88049 -119.6789,-63.62691 l -17.33041,-9.00287 -2.597447,2.98038 c -4.343554,4.98523 -13.523102,26.66461 -16.939743,40.00706 -3.67784,14.36296 -3.796845,14.12569 7.697829,15.36847 3.96897,0.4322 36.258311,4.02823 71.754081,7.99912 64.46015,7.21059 79.64928,8.44719 77.09459,6.27475 z m 68.22248,-3.74333 c 8.04341,-0.67034 37.03722,-2.86747 64.4307,-4.89173 27.39348,-2.02425 51.2942,-3.97795 53.11273,-4.34134 3.08219,-0.61742 3.23953,-1.05226 2.32035,-6.40883 -1.27054,-7.40551 -7.1368,-27.0968 -9.30893,-31.24763 -0.92332,-1.76406 -2.256,-3.20794 -2.96158,-3.20794 -3.13254,0 -127.33005,49.15017 -127.3371,50.39295 -0.007,1.19074 2.20373,1.15722 19.74383,-0.29989 z m -24.41983,-6.52172 c 20.03167,-7.41962 127.41047,-49.9634 128.68796,-50.98656 1.54083,-1.23395 -8.06851,-16.10496 -17.36319,-26.86924 -7.06793,-8.18584 -33.77647,-31.70673 -35.95691,-31.66545 -0.68679,0.0176 -8.19361,8.92287 -16.68173,19.79987 -31.73612,40.66735 -70.85125,91.92204 -70.85125,92.83935 0,1.37332 0.12531,1.34157 12.16512,-3.11797 z m -64.16247,-22.3806 c -40.5808,-54.93628 -66.39419,-88.3859 -68.20773,-88.3859 -2.84894,0 -34.03893,27.45182 -39.48532,34.75326 -2.4799,3.32437 -4.31982,6.53848 -4.08873,7.14179 0.51518,1.34597 124.7698,66.99979 125.53711,66.33121 0.30145,-0.26461 -5.88847,-9.19074 -13.75533,-19.84036 z m 26.26033,18.20243 c -0.36973,-1.17574 -7.12686,-30.72371 -15.01584,-65.66352 -7.88901,-34.93874 -14.90573,-64.06166 -15.59274,-64.71718 -2.13127,-2.03361 -18.37554,2.5002 -37.0048,10.32811 -9.61742,4.04119 -17.48621,7.9537 -17.48621,8.6946 0,1.22858 29.13498,41.00296 68.14166,93.02502 14.18017,18.91158 18.66397,23.75921 16.95793,18.33297 z m 27.80869,-65.6644 c 9.66364,-35.53085 17.57026,-65.0094 17.57026,-65.50775 0,-1.39069 -3.74123,-2.11554 -18.23893,-3.53402 -13.42901,-1.31387 -44.49815,-0.48247 -47.77005,1.27832 -1.29988,0.69945 1.90914,16.74691 13.17291,65.87415 13.95124,60.84852 15.81756,68.12702 17.16735,66.95128 0.29052,-0.25579 8.4348,-29.53121 18.09846,-65.06198 z m 21.90675,24.43396 c 35.7212,-45.81001 51.96301,-67.91904 51.48448,-70.08265 -0.64992,-2.93839 -38.56672,-18.48653 -45.08268,-18.48653 -1.27169,0 -2.83487,2.94774 -4.37293,8.24608 -3.50928,12.08891 -31.61926,115.39081 -31.61926,116.19786 0,1.68821 5.49986,-4.97993 29.59039,-35.87476 z"
     id="path3409"
     inkscape:connector-curvature="0" />
  <path
     style="fill:none;fill-rule:evenodd;stroke:#000000;stroke-width:9.45231247px;stroke-linecap:butt;stroke-linejoin:miter;stroke-opacity:1"
     d="m 739.16781,429.27626 -36.47787,19.54628"
     id="path3411"
     inkscape:connector-curvature="0" />
  <path
     style="fill:none;fill-rule:evenodd;stroke:#000000;stroke-width:9.45231247px;stroke-linecap:butt;stroke-linejoin:miter;stroke-opacity:1"
     d="m 785.46665,566.10036 11.22396,-4.88644 0,-4.88644 -12.62695,3.66483"
     id="path3413"
     inkscape:connector-curvature="0" />
  <path
     style="fill:#000000"
     d="M 747.6842,510.91711 C 729.73566,485.97069 712.96955,462.70718 710.42618,459.2214 l -4.62432,-6.33773 16.23627,-8.77204 c 9.05499,-4.89218 16.75881,-8.30289 17.41768,-7.71123 0.64971,0.58302 3.69257,6.55824 6.76178,13.27736 3.0692,6.71903 15.1499,32.20384 26.84599,56.63339 11.69609,24.42955 20.88403,44.74885 20.41764,45.15547 -0.46637,0.40573 -3.61894,1.6538 -7.00565,2.7731 l -6.15766,2.03572 -32.63371,-45.35833 z"
     id="path3415"
     inkscape:connector-curvature="0" />
  <path
     style="fill:#000000"
     d=""
     id="path3417"
     inkscape:connector-curvature="0" />
  <path
     style="fill:#ff0000"
     d="m 702.02401,442.04248 c 0.34208,-0.50364 1.36284,-10.53672 2.26825,-22.29505 0.90538,-11.75841 2.31438,-22.56141 3.13107,-24.00679 2.19282,-3.88084 -16.13945,-51.73531 -19.81895,-51.73531 -1.86861,0 -4.53919,-4.0479 -10.50049,-15.91604 -8.42488,-16.77275 -10.57429,-23.51903 -7.94423,-24.93433 0.86527,-0.46572 12.77264,-2.23242 26.46079,-3.92609 17.09415,-2.11519 26.2574,-3.81142 29.26211,-5.41689 5.29784,-2.83079 11.44898,-3.00199 15.65667,-0.43573 4.27765,2.60887 4.21199,8.99405 -0.12895,12.54501 -3.67636,3.00737 -6.11843,3.23917 -13.59008,1.28997 -4.05309,-1.05738 -9.78023,-0.91369 -25.32798,0.63506 -11.04984,1.10095 -20.33646,2.21574 -20.63696,2.47744 -0.55125,0.47983 22.64148,49.88182 42.48144,90.48778 5.90924,12.09429 11.04299,22.61028 11.40833,23.36874 0.36537,0.75854 -6.6357,5.29393 -15.55785,10.07859 -15.80135,8.47391 -18.44637,9.67338 -17.16312,7.78328 z"
     id="path3419"
     inkscape:connector-curvature="0" />
  <path
     style="fill:#000000"
     d="m 206.91576,726.99917 c -37.25724,-9.59735 -59.7669,-21.39449 -85.23342,-44.66947 -26.049058,-23.80772 -41.567259,-51.08093 -47.227334,-83.00067 -2.362894,-13.32481 -1.749024,-38.79075 1.261005,-52.31137 8.341627,-37.46946 27.077969,-65.37597 59.923499,-89.25161 54.26433,-39.44565 126.682,-47.83304 191.32835,-22.15965 8.87395,3.52415 17.75402,6.66761 19.7335,6.98549 3.32011,0.53275 4.93502,-1.18201 20.83566,-22.12816 9.48012,-12.48829 17.70293,-22.70598 18.27292,-22.70598 1.11655,0 4.2927,5.47008 4.2927,7.39308 0,0.643 -7.35127,10.77565 -16.33616,22.51608 l -16.33615,21.34606 13.88091,12.91238 c 22.46476,20.89737 30.92727,30.65967 39.15384,45.16993 11.1115,19.59779 15.12711,33.54091 19.84118,68.8935 l 0.71586,5.36803 11.10766,-9.615 c 6.10921,-5.28864 11.10767,-10.24564 11.10767,-11.01654 0,-0.76736 -10.47523,-30.19449 -23.27828,-65.38656 -12.80304,-35.19215 -25.2478,-69.40552 -27.655,-76.02965 -4.2607,-11.72463 -4.30597,-12.08908 -1.70749,-13.74359 3.73069,-2.37531 1.38909,-2.13187 -2.87069,0.29812 -1.92606,1.09892 -3.95059,1.60733 -4.49898,1.12979 -0.54842,-0.47717 -3.01615,-5.08727 -5.48391,-10.24405 -4.32732,-9.04256 -4.39007,-9.41504 -1.76512,-10.47877 3.06513,-1.24207 3.49182,-3.23528 1.13241,-5.2897 -2.36684,-2.06095 -0.85403,-4.16865 6.1099,-8.51264 l 6.26885,-3.91039 8.10175,11.7825 8.10174,11.7824 -3.12944,2.20657 c -1.7212,1.21359 -2.58601,2.21495 -1.92177,2.22519 0.6642,0.009 0.57628,0.42249 -0.1953,0.91625 -3.18963,2.04048 -6.87599,6.56317 -5.03716,6.17993 1.2833,-0.26725 3.00316,2.7731 5.30417,9.37738 5.22938,15.00913 40.3027,112.97087 46.36301,129.49479 l 5.37668,14.65932 17.4895,0.9473 c 9.61923,0.5204 19.46537,1.42007 21.88033,1.99868 4.31622,1.03374 4.68869,0.75854 21.92557,-16.21698 44.65814,-43.98237 135.34071,-136.51072 142.05127,-144.94247 l 3.82216,-4.80247 -2.34036,-8.31568 c -3.55267,-12.62307 -1.70686,-11.867 -24.84427,-10.17676 -23.50477,1.71695 -142.82078,12.07876 -190.6026,16.5525 -38.78875,3.63176 -36.59336,3.54982 -35.61487,1.32948 0.42626,-0.96714 -1.75665,-5.50253 -4.85083,-10.07859 l -5.6258,-8.32017 3.75457,-0.90576 c 2.06501,-0.49835 36.90032,-3.9544 77.4118,-7.68035 112.77991,-10.37275 137.54156,-12.67608 164.24548,-15.27789 13.5561,-1.32075 25.29254,-2.40141 26.08095,-2.40141 2.07869,0 4.08374,4.23427 13.27309,28.02982 8.06589,20.88644 8.178,21.36071 5.63056,23.8221 -4.08706,3.94901 -69.36202,69.96596 -120.40936,121.77845 -25.57113,25.9537 -47.22637,48.21875 -48.12276,49.47652 -1.3352,1.87343 -0.80672,3.8333 2.92384,10.83837 4.07822,7.65866 4.61785,9.98369 5.16873,22.2677 l 0.61507,13.71555 -5.29866,9.83198 -5.29868,9.83109 3.04378,3.58545 c 1.67408,1.97133 3.04377,3.88181 3.04377,4.24432 0,0.36163 -3.77367,0.66152 -8.38593,0.66152 -5.7554,0 -11.36666,1.01786 -17.88819,3.2441 -8.01424,2.73694 -11.80911,3.26263 -24.23369,3.35965 -13.60087,0.10584 -15.3775,-0.15876 -23.14943,-3.47784 -14.3913,-6.14421 -31.85612,-24.658 -29.46041,-31.23088 0.7112,-1.95104 1.84683,-0.76736 5.70583,5.95017 5.2808,9.19074 14.70023,17.74554 24.60755,22.34708 5.41855,2.51643 8.02404,2.85513 21.59496,2.80485 16.89746,-0.0882 23.87466,-1.5215 28.71487,-6.00838 l 3.17209,-2.9398 -3.01247,-3.68335 c -3.30734,-4.04498 -15.87064,-13.6591 -20.71504,-15.85359 -4.80276,-2.17508 -10.43957,-1.62028 -17.07137,1.68027 -11.77423,5.86108 -15.83887,2.36295 -8.67823,-7.46902 2.34394,-3.21764 4.26169,-7.14443 4.26169,-8.72415 0,-1.58059 -2.23894,-5.92194 -4.97541,-9.64675 -3.93667,-5.35832 -4.63308,-7.1312 -3.3357,-8.49305 2.39296,-2.51026 4.63081,-2.14862 12.04456,1.94487 8.53528,4.71356 13.75428,4.69063 21.22414,-0.0882 6.16714,-3.94973 9.59014,-4.24432 11.91609,-1.02845 1.05876,1.46417 0.15883,3.53606 -3.70785,8.5354 -2.80827,3.63131 -5.10593,7.46372 -5.10593,8.51687 0,3.34906 7.70717,12.53715 16.81199,20.04234 l 8.81296,7.26527 3.17787,-3.21676 c 1.74782,-1.76935 4.58506,-6.89923 6.30495,-11.39934 7.62094,-19.94091 -3.34252,-43.02537 -25.51218,-53.7182 -7.03793,-3.39493 -8.42471,-3.61191 -22.92404,-3.58986 -18.9742,0 -24.88115,2.0269 -37.7221,12.76296 -6.85641,5.73318 -9.76837,7.37111 -13.10552,7.37111 -4.88309,0 -5.99367,-1.60353 -5.99367,-8.65182 l 0,-4.78677 -7.36573,0.002 c -6.11596,8.8e-4 -62.63572,3.69746 -104.87389,6.85865 -11.70017,0.87321 -16.2461,2.15833 -11.80324,3.32966 3.76291,0.99228 63.98002,8.73473 91.77396,11.7989 31.57248,3.48137 29.30151,2.86659 28.15198,7.62161 -0.87459,3.61808 -1.40818,3.96737 -5.78898,3.79184 -2.65406,-0.10584 -33.55188,-3.78037 -68.66183,-8.16494 -82.21411,-10.26593 -80.47765,-10.09217 -79.71689,-7.98853 1.12431,3.10827 113.31193,80.34929 119.8991,82.54995 1.10668,0.37046 3.29174,-0.33517 4.85567,-1.56824 4.29551,-3.38435 17.28805,-24.09438 23.11398,-36.84235 2.84027,-6.21565 5.71444,-11.30055 6.38701,-11.30055 1.95065,0 1.48674,1.8011 -2.99262,11.61985 -9.75766,21.38832 -21.88336,37.31599 -41.52193,54.54025 -15.24734,13.37244 -32.07845,23.92591 -50.36775,31.58104 -26.59943,11.13297 -40.92421,13.46682 -82.03841,13.36362 -23.16771,-0.0882 -27.22232,-0.37927 -37.31219,-2.98126 l 0,0 z m 62.5293,0.6968 c 14.83966,-1.16163 25.72194,-3.32966 24.60554,-4.90319 -0.40316,-0.5645 -1.01195,-2.92922 -1.35294,-5.24808 -0.53738,-3.65512 -7.63242,-26.33738 -29.54718,-94.46087 -5.1115,-15.88975 -6.9235,-19.97972 -8.31494,-18.76781 -1.8379,1.6 -23.24679,110.6611 -23.26255,118.5041 -0.004,2.40794 0.41208,4.74443 0.92656,5.19162 1.28097,1.11577 20.79079,0.94906 36.94553,-0.31753 z m -46.42503,-5.89371 c 3.2886,-10.87806 25.98233,-133.34776 24.88626,-134.30212 -1.94879,-1.69702 -4.76723,1.85579 -41.9985,52.94731 -37.07352,50.87366 -46.46618,64.93055 -44.65605,66.82956 3.83308,4.02205 47.56891,18.92657 55.87769,19.043 4.04616,0.0882 4.64688,-0.40573 5.8906,-4.51775 z m 103.51229,-8.19581 c 18.29291,-7.8677 30.29544,-15.2838 47.08512,-29.09196 4.43697,-3.64895 8.06723,-7.22205 8.06723,-7.94002 0,-2.77575 -117.10322,-83.18767 -118.88512,-81.63618 -0.79417,0.68798 9.8608,35.73981 26.49743,87.16032 11.75763,36.34047 12.98531,39.39846 15.8187,39.39846 1.68949,0 11.32698,-3.55104 21.41664,-7.89062 z M 156.19258,695.53632 c 6.5486,-7.1021 42.1212,-55.22559 61.91062,-83.75393 9.84419,-14.19096 8.03545,-13.24895 -40.43402,21.06197 -41.19528,29.16252 -57.20846,41.03022 -57.92025,42.92746 -0.84524,2.25358 27.01063,24.957 30.62019,24.957 0.57009,0 3.19063,-2.33649 5.82346,-5.1925 z m 2.58588,-57.27366 c 44.64596,-31.13561 63.50921,-44.972 62.50498,-45.84609 -1.75767,-1.5312 -132.675154,35.6957 -133.69809,38.0172 -1.714341,3.88975 21.83262,38.53232 26.19108,38.53232 0.53773,0 20.78864,-13.8161 45.00203,-30.70343 z m -14.13952,-32.157 c 74.37252,-21.01875 77.54431,-21.97222 78.12447,-23.48755 0.29133,-0.75854 -6.66906,-2.10452 -17.45454,-3.37023 C 161.31459,574.08536 99.336129,567.4825 88.186011,566.7707 l -12.198139,-0.77619 -0.91194,3.16384 c -1.67097,5.79758 4.496693,45.61853 7.930987,51.20618 0.737832,1.20044 1.820014,2.18214 2.404844,2.18214 0.584834,0 27.237067,-7.39669 59.227177,-16.43749 z m 343.23218,6.45115 c 6.17853,-5.05402 2.70103,-13.22514 -5.62854,-13.22514 -5.5518,0 -9.36323,3.1462 -9.36323,7.72922 0,7.55811 8.61155,10.71577 14.99177,5.49592 z M 235.72308,573.21392 c -1.12992,-0.92701 -15.94405,-9.08225 -32.92029,-18.12305 -75.32163,-40.1129 -101.88868,-53.69438 -103.789546,-53.05932 -4.180057,1.39625 -14.081175,22.42823 -19.063519,40.49394 -3.869276,14.02955 -3.726589,14.94686 2.546238,16.36869 2.893677,0.6527 33.356207,4.2355 67.694507,7.95502 34.33831,3.71863 64.32734,6.96891 66.64228,7.22293 2.31493,0.25579 7.97453,0.54686 12.57685,0.64388 7.1656,0.15877 8.07269,-0.0882 6.31348,-1.50209 z m 115.89294,-6.28534 c 77.34906,-5.94399 72.76406,-5.35127 73.30772,-9.47211 0.47042,-3.56516 -5.709,-26.7634 -8.93988,-33.56119 -1.03792,-2.1839 -2.81336,-3.97001 -3.94544,-3.97001 -4.14353,0 -121.82672,46.46351 -125.70732,49.63176 -1.7642,1.44035 -1.25521,1.67762 3.60325,1.67762 3.11169,0 30.86844,-1.93782 61.68167,-4.30607 z m -48.11856,-12.05733 c 53.24137,-20.74356 104.05689,-41.11754 105.35742,-42.24213 1.57477,-1.36097 -7.61238,-16.15259 -16.14048,-25.98545 -3.64592,-4.20463 -13.34511,-13.4161 -21.55376,-20.47109 l -14.92483,-12.82726 -4.88306,4.85531 c -5.83411,5.80083 -83.31069,106.365 -83.31069,108.13699 0,0.67916 0.64475,1.23131 1.43278,1.23131 0.78798,0 16.0982,-5.71378 34.02262,-12.69768 z m -82.55886,-7.66483 c -15.64079,-21.87432 -68.74408,-91.29651 -71.18363,-93.05872 -1.93321,-1.39651 -2.88692,-1.25936 -6.40255,0.9204 -6.97683,4.32582 -33.97432,29.74095 -36.90356,34.74029 l -2.7636,4.71709 3.21682,2.01015 c 11.37856,7.1118 122.0705,65.14576 122.89173,64.43044 0.33346,-0.29107 -3.65138,-6.48203 -8.85521,-13.75965 z m 7.94722,-48.25844 c -16.93762,-73.60249 -16.08178,-70.64645 -20.45338,-70.64645 -7.64268,0 -51.22699,16.62139 -51.22699,19.53596 0,1.46682 5.81488,9.74404 28.32856,40.32504 43.6632,59.3085 55.29865,74.18656 56.91529,72.77884 0.32192,-0.28225 -5.78158,-28.17729 -13.56348,-61.99339 z m 33.40116,24.55127 c 18.7981,-67.27234 25.93368,-95.21969 24.60015,-96.34948 -4.63759,-3.92908 -61.4409,-4.92304 -65.77301,-1.15096 -0.99919,0.86968 5.4587,32.0322 16.77069,80.92535 10.27466,44.41015 12.62935,53.10343 14.04916,51.86682 0.35717,-0.30871 5.01599,-16.19228 10.35301,-35.29173 z m 32.99859,-9.07167 c 29.00233,-37.10695 48.51823,-63.68618 48.51823,-66.07825 0,-3.25336 -38.98156,-19.51083 -44.59238,-18.5974 -1.47846,0.2408 -3.30064,2.74788 -4.72052,6.49526 -2.58472,6.82153 -32.08955,114.66904 -32.01037,117.00554 0.0841,2.48202 5.89391,-4.39339 32.80504,-38.82515 z M 401.51049,393.33976 c 2.40793,-1.89751 2.39904,-2.16565 -0.22022,-6.63621 -3.34919,-5.71634 -4.4971,-6.39145 -7.5561,-4.44375 -2.24358,1.42844 -2.21566,1.88604 0.44499,7.29076 3.13659,6.37151 3.69083,6.65799 7.33138,3.7892 z"
     id="path3421"
     inkscape:connector-curvature="0" />
  <path
     style="fill:#000000"
     d="m 783.31317,731.30083 c -44.14514,-4.35723 -81.5619,-20.26197 -111.22219,-47.27675 -33.09321,-30.14157 -49.52568,-65.85844 -49.64533,-107.90564 -0.0952,-33.56825 8.54313,-58.73165 29.77695,-86.73695 13.56884,-17.8961 46.52748,-45.50572 49.43376,-41.41108 0.65853,0.92781 0.7501,2.00521 0.20351,2.39418 -0.5466,0.38898 -5.18829,3.55546 -10.31487,7.03657 -5.12656,3.48101 -12.70647,9.5132 -16.84425,13.4048 -9.62042,9.04786 -23.94491,25.59824 -24.16962,27.92504 -0.11042,1.14311 24.08316,13.88401 66.95137,35.25822 36.91835,18.40706 67.96236,34.07365 68.98667,34.81367 1.39773,1.00993 3.6402,0.5645 8.98821,-1.79845 l 7.1258,-3.14355 0,-6.5967 c 0,-3.62866 -0.65954,-6.78809 -1.46567,-7.02271 -0.99372,-0.29107 -0.53414,-10.05689 1.42723,-30.33738 6.4789,-66.99018 8.39248,-94.54837 6.6329,-95.52231 -4.18117,-2.31427 -31.70239,0.1129 -52.73482,4.65103 -11.70512,2.52551 -14.79622,2.82972 -15.70741,1.54602 -0.62388,-0.87939 -0.90528,-1.79784 -0.6253,-2.04173 0.28008,-0.24432 6.40135,-1.76626 13.60291,-3.38319 18.13386,-4.07154 37.87061,-5.39467 61.08376,-4.09509 22.12877,1.2389 37.99189,4.51017 57.64192,11.88675 53.77036,20.18523 94.55349,64.73139 104.86821,114.54309 3.04522,14.70606 3.0714,41.85403 0.0537,56.11643 -11.6333,54.99185 -56.19682,100.55482 -116.92725,119.54931 -21.92039,6.85512 -54.90178,10.34002 -77.12064,8.14642 l -3e-5,0 z m 41.27155,-4.36428 c 10.02785,-1.14399 22.41315,-3.5881 31.47681,-6.20949 15.62518,-4.51951 32.27489,-11.28379 33.10392,-13.45005 0.43618,-1.1387 -24.32648,-35.23794 -61.97919,-85.34688 -7.57318,-10.07894 -15.30555,-20.43837 -17.18304,-23.02183 -1.87749,-2.58258 -3.71269,-4.43572 -4.07826,-4.11731 -0.36557,0.31753 -1.25789,28.81941 -1.98299,63.33496 -0.72508,34.51643 -1.69329,64.26903 -2.15154,66.11688 -0.64334,2.59405 -1.64623,3.35965 -4.40023,3.35965 l -3.56705,0 0.85727,-23.51665 c 0.47154,-12.93407 1.21532,-43.30762 1.65288,-67.49638 l 0.79559,-43.97884 -2.81994,3.05359 c -3.29707,3.57133 -40.37998,55.29703 -63.22323,88.18789 -9.59345,13.81345 -15.52954,23.56957 -15.03019,24.70298 0.93568,2.12304 14.33905,7.67806 29.38633,12.17817 8.67443,2.59493 22.79978,5.44123 36.09634,7.27409 8.38648,1.15634 27.75667,0.67916 43.04645,-1.07078 z m -107.8687,-37.85933 c 18.18445,-23.79184 74.6432,-102.33915 74.6432,-103.84654 0,-0.83793 -38.70048,16.08732 -94.35141,41.27013 -26.81475,12.13407 -48.75409,22.60199 -48.75409,23.26086 0,4.00706 20.28957,27.06241 32.42378,36.84411 12.4934,10.07189 22.40889,16.72327 24.23943,16.26108 0.85859,-0.2205 6.16819,-6.42205 11.79909,-13.78964 z m 193.0765,6.68843 c 5.81302,-4.07145 14.72203,-11.35524 19.79779,-16.18611 9.27781,-8.83087 22.70651,-24.83882 21.60165,-25.75172 -2.4299,-2.00661 -140.65276,-70.38501 -141.24241,-69.87167 -0.94631,0.82911 33.03096,47.24764 83.88885,114.617 1.89582,2.51113 3.883,4.57243 4.41596,4.58125 0.53292,0.009 5.72514,-3.31642 11.53816,-7.38875 z m 51.01122,-57.10078 c 7.48057,-14.56759 11.79202,-28.87057 14.86006,-49.29571 0.6332,-4.2161 0.42372,-4.50188 -3.77915,-5.15722 -5.55303,-0.86439 -134.10519,-3.5881 -142.42117,-3.01566 l -6.0901,0.41455 16.61256,8.51599 c 38.84146,19.91004 113.54292,56.83617 114.98511,56.83882 0.86122,0.002 3.48595,-3.73539 5.83269,-8.30518 z m -251.10965,-25.59207 65.51864,-29.01434 -74.22328,-0.31753 c -40.8228,-0.1764 -74.52235,-0.0882 -74.88788,0.26461 -0.36547,0.31753 0.63787,7.33231 2.22969,15.58721 3.31557,17.19251 12.32226,42.49527 15.12671,42.49527 0.39465,0 30.20087,-13.05667 66.23612,-29.01434 z m 266.86049,-39.54664 c 0,-15.15855 -7.07255,-42.91688 -14.82261,-58.17598 l -3.37591,-6.64697 -29.13237,13.11489 c -42.46142,19.11621 -105.89327,48.28931 -108.8409,50.05778 -2.76268,1.65733 -1.45555,1.71202 102.07162,4.27255 27.73262,0.68798 50.72421,1.50915 51.09241,1.83021 1.9176,1.66968 3.00776,0.0882 3.00776,-4.45248 z m -197.31747,0.42337 c 0.61284,-0.86439 -129.08383,-66.39031 -133.0389,-67.21589 -2.46986,-0.51157 -12.58437,22.51467 -16.00998,36.45337 -1.57632,6.41412 -3.298,16.172 -3.82595,21.68468 l -0.95988,10.02249 76.58214,0 c 42.12018,0 76.88385,-0.42337 77.25259,-0.94465 z m 106.07576,-39.86946 c 37.39904,-17.05932 68.19674,-31.53606 68.43935,-32.17024 0.59663,-1.55855 -13.84308,-18.98744 -24.10122,-29.09063 -8.63595,-8.50567 -27.80142,-22.55383 -30.70381,-22.50576 -0.914,0.0176 -4.87472,4.27563 -8.80159,9.46769 -10.27533,13.58616 -74.93546,103.92364 -74.93546,104.69277 0,0.35281 0.47356,0.64388 1.05225,0.63506 0.5787,-0.006 31.65146,-13.96869 69.05048,-31.02889 z m -57.39064,-1.02757 c 37.13687,-51.7107 61.64665,-86.62528 61.64665,-87.81682 0,-1.57389 -20.14914,-9.77984 -33.67189,-13.71316 -12.30135,-3.57813 -34.566,-7.74148 -35.77407,-6.68957 -0.45958,0.40044 -3.30494,27.86814 -6.32297,61.03983 -3.01802,33.17222 -5.83495,63.19825 -6.25982,66.72636 -0.42483,3.52724 -0.20745,6.41323 0.48298,6.41323 0.69054,0 9.64512,-11.68159 19.89909,-25.95987 z"
     id="path3425"
     inkscape:connector-curvature="0" />
  <path
     style="fill:none;fill-rule:evenodd;stroke:#000000;stroke-width:9.45231247px;stroke-linecap:butt;stroke-linejoin:miter;stroke-opacity:1"
     d="m 507.67362,562.43553 15.43295,15.88181"
     id="path3429"
     inkscape:connector-curvature="0" />
  <path
     style="fill:#ff0000;fill-rule:evenodd;stroke:#000000;stroke-width:9.45231247px;stroke-linecap:butt;stroke-linejoin:miter;stroke-opacity:1"
     d="m 468.38976,562.43553 -16.83594,1.22161 11.22396,-6.10805 5.61198,4.88644"
     id="path3431"
     inkscape:connector-curvature="0" />
  <path
     style="fill:#ff0000"
     id="path3439"
     d="m 449.95153,549.52527 c -1.37252,-2.59228 -2.41049,-5.29394 -3.66184,-7.92856 -0.94398,-2.03131 -2.03417,-3.95237 -2.59016,-6.10363 -0.25486,-2.14863 -0.57982,-4.2505 -1.10713,-6.36208 -0.50051,-1.94223 -1.18973,-3.85976 -1.86355,-5.76582 -0.602,-2.13716 -1.68784,-4.12349 -2.36819,-6.23859 -0.5864,-1.929 -1.12287,-3.9021 -1.87491,-5.78964 -1.00739,-1.99956 -1.96268,-3.96825 -2.51747,-6.10717 -0.29498,-2.23506 -0.63888,-4.42778 -1.19124,-6.62668 -0.25253,-2.0269 -1.06151,-3.23969 -2.61057,-4.66505 -1.98233,-1.04873 -2.62093,-2.80661 -3.48612,-4.54509 -1.46967,-1.50298 -2.23764,-3.22735 -2.70008,-5.13341 -0.21536,-2.16979 -0.51884,-4.28931 -1.03626,-6.42082 -0.60332,-2.16194 -0.48115,-4.40511 -0.88198,-6.58646 -0.31017,-1.94558 -1.33302,-3.69332 -1.94545,-5.5656 -0.88239,-1.73398 -1.42833,-3.56093 -2.21896,-5.32384 -0.79356,-2.03255 -1.31334,-4.1465 -2.19696,-6.15171 -0.9925,-1.92053 -1.37586,-3.99806 -2.12695,-5.98774 -0.54437,-1.97028 -1.11478,-3.91806 -1.74257,-5.87069 -1.07662,-1.77121 -1.52906,-3.70938 -2.11552,-5.62338 -0.56898,-2.19854 -1.2825,-4.34514 -2.01651,-6.50434 -0.46333,-2.08274 -1.88855,-3.82289 -2.71786,-5.79881 -1.0644,-1.78611 -1.66597,-3.72252 -2.51357,-5.58492 -0.84157,-1.82871 -1.77212,-3.56834 -2.25984,-5.50598 -0.72437,-2.16406 -1.17885,-4.37398 -1.98336,-6.51608 -0.46677,-1.37649 -0.25263,-0.67916 -0.641,-2.0912 0,0 10.99012,-5.15484 10.99012,-5.15484 l 0,0 c 0.34917,1.34871 0.15256,0.67916 0.58965,2.00759 0.81807,2.18117 1.27343,4.42522 2.05175,6.61865 0.43355,1.89107 1.35312,3.56278 2.16652,5.33989 0.85028,1.87599 1.45168,3.82228 2.51633,5.62338 0.81138,2.00767 2.3157,3.74077 2.76002,5.85402 0.71555,2.16882 1.46125,4.3118 2.01654,6.51837 0.63594,1.90025 1.0077,3.86126 2.13106,5.61923 0.60889,1.94064 1.23268,3.85703 1.71435,5.82448 0.74746,1.9753 1.1301,4.0284 2.08414,5.94443 0.89586,1.99806 1.44885,4.10285 2.21189,6.14069 0.80744,1.79837 1.36532,3.65733 2.27439,5.42342 0.5942,1.91514 1.67264,3.68105 1.99565,5.66253 0.46809,2.16221 0.29001,4.39586 0.86476,6.55242 0.51438,2.13636 0.92443,4.2445 1.04125,6.43008 0.40295,1.86284 1.19257,3.44608 2.58471,4.92348 0.83499,1.65645 1.40239,3.18942 3.27577,4.21786 1.60868,1.48887 2.67678,3.10298 2.92671,5.18721 0.54528,2.20331 0.97883,4.38281 1.17768,6.63286 0.50415,2.10805 1.45431,4.02117 2.46449,5.97486 0.78991,1.90254 1.30655,3.91798 1.90758,5.86814 0.64019,2.10981 1.74204,4.07409 2.33913,6.19714 0.73207,1.92194 1.38329,3.89327 1.92875,5.8549 0.52259,2.11511 0.94956,4.20199 1.10446,6.36561 0.4923,2.10363 1.57039,3.96119 2.45765,5.94928 1.23233,2.66461 2.22149,5.41125 3.7439,7.97001 0,0 -10.95127,5.2516 -10.95127,5.2516 z"
     inkscape:connector-curvature="0" />
  <path
     style="fill:#ff0000"
     id="path3441"
     d="m 455.44231,563.02913 c -1.86856,-2.68666 -3.61322,-5.44741 -5.00772,-8.34664 -1.22321,-2.42999 -1.22089,-5.08754 -1.73616,-7.64807 -0.5469,-1.17133 -1.68307,-2.03484 -2.54417,-3.04741 -0.6014,-0.98522 -0.33205,-0.46747 -0.79579,-1.5656 0,0 10.95105,-5.27718 10.95105,-5.27718 l 0,0 c 0.35626,0.90232 0.14262,0.48512 0.62398,1.26483 1.00912,1.12547 2.23055,2.14069 2.77717,3.51665 0.54943,2.48556 0.41562,5.09019 1.56526,7.47255 1.34227,2.88776 3.0633,5.64234 5.0244,8.24697 0,0 -10.85802,5.3839 -10.85802,5.3839 z"
     inkscape:connector-curvature="0" />
  <path
     style="fill:#ff0000;fill-rule:evenodd;stroke:#000000;stroke-width:9.45231247px;stroke-linecap:butt;stroke-linejoin:miter;stroke-opacity:1"
     d="m 468.38976,559.99231 c 1.87066,-0.81147 3.67011,-1.76671 5.61198,-2.44322 0.86841,-0.29989 1.87066,0 2.806,0 0.46768,0 1.40299,-0.40574 1.40299,0 0,0.40573 -1.87066,0 -1.40299,0 1.40299,0 2.80598,0 4.20898,0 0.46768,0 0.93537,0 1.40299,0 0.46768,0 1.40299,-0.40574 1.40299,0 0,0.40573 -1.87066,0 -1.40299,0 1.40299,0 2.806,0 4.20899,0 0.46768,0 1.87066,0 1.40299,0 -0.93537,0 -3.74132,0 -2.80598,0 1.87065,0 3.74131,0 5.61197,0 0.46769,0 0.93537,0 1.40299,0 0.46769,0 1.403,-0.40574 1.403,0 0,0.40573 -1.87066,0 -1.403,0 0.93537,0 1.96942,-0.36163 2.806,0 0.83661,0.36163 -0.66136,1.86725 0,2.44322 1.87066,1.6291 1.40299,-2.03573 1.40299,1.22161"
     id="path3443"
     inkscape:connector-curvature="0" />
  <path
     style="fill:none;fill-rule:evenodd;stroke:#000000;stroke-width:9.45231247px;stroke-linecap:butt;stroke-linejoin:miter;stroke-opacity:1"
     d="m 474.00174,557.54909 c 3.74132,0 7.48264,0 11.22397,0 0.46768,0 1.0723,-0.29107 1.40299,0 0.33063,0.29107 -0.33073,0.93407 0,1.22161 0.70148,0.6086 3.50748,-0.6086 4.20898,0 0.33073,0.29107 -0.33073,0.93407 0,1.22161 0.12378,0.10584 5.41941,0 1.40299,0"
     id="path3445"
     inkscape:connector-curvature="0" />
  <path
     style="fill:none;fill-rule:evenodd;stroke:#000000;stroke-width:9.45231247px;stroke-linecap:butt;stroke-linejoin:miter;stroke-opacity:1"
     d="m 555.37545,646.72926 25.25392,-246.77252 -70.14976,-1.2217 9.82096,245.551 z"
     id="path3392"
     inkscape:connector-curvature="0" />
  <path
     style="fill:none;fill-rule:evenodd;stroke:#000000;stroke-width:9.45231247px;stroke-linecap:butt;stroke-linejoin:miter;stroke-opacity:1"
     d="M 579.22637,395.07012 417.88194,260.68897 401.046,285.12196 l 105.22463,113.61308 72.95574,1.2217"
     id="path3394"
     inkscape:connector-curvature="0" />
  <path
     style="fill:none;fill-rule:evenodd;stroke:#000000;stroke-width:9.45231247px;stroke-linecap:butt;stroke-linejoin:miter;stroke-opacity:1"
     d="m 497.85266,553.88426 -29.4629,2.44322 -29.4629,-152.70583 50.50783,1.22161 z"
     id="path3396"
     inkscape:connector-curvature="0" />
  <path
     style="fill:none;fill-rule:evenodd;stroke:#000000;stroke-width:9.45231247px;stroke-linecap:butt;stroke-linejoin:miter;stroke-opacity:1"
     d="M 490.83768,409.72988 384.21005,293.6735 l -19.64193,9.77314 72.95575,103.83993"
     id="path3398"
     inkscape:connector-curvature="0" />
  <path
     style="fill:none;fill-rule:evenodd;stroke:#000000;stroke-width:9.45231247px;stroke-linecap:butt;stroke-linejoin:miter;stroke-opacity:1"
     d="m 412.26995,258.24575 -138.8965,7.32984 164.15042,-177.138726 96.80666,34.206046 z"
     id="path3402"
     inkscape:connector-curvature="0" />
  <path
     style="fill:none;fill-rule:evenodd;stroke:#000000;stroke-width:9.45231247px;stroke-linecap:butt;stroke-linejoin:miter;stroke-opacity:1"
     d="m 503.46464,159.29235 169.7624,138.04607 43.49285,0 -199.2253,-156.37075 -9.82097,21.9896 z"
     id="path3404"
     inkscape:connector-curvature="0" />
  <path
     style="fill:none;fill-rule:evenodd;stroke:#000000;stroke-width:9.45231247px;stroke-linecap:butt;stroke-linejoin:miter;stroke-opacity:1"
     d="M 495.04667,173.95211 670.42105,305.88995 681.64501,329.10124 472.59874,192.27679 Z"
     id="path3406"
     inkscape:connector-curvature="0" />
  <ellipse
     style="fill:#deaa87"
     id="path3408"
     cx="504.16611"
     cy="76.831505"
     rx="39.985359"
     ry="36.038574" />
  <path
     style="fill:#deaa87"
     d="m 318.1489,225.17911 c 17.5826,-18.9929 51.85583,-56.06607 76.16272,-82.38493 24.30689,-26.31886 44.61924,-47.886753 45.13855,-47.928649 0.86527,-0.07056 84.16409,29.128289 85.00736,29.796869 0.2029,0.16053 -1.4483,2.28357 -3.66928,4.717 -2.22096,2.43352 -4.40184,4.10788 -4.8464,3.72075 -0.44459,-0.38721 -1.73517,1.14232 -2.86803,3.39864 -2.52703,5.03303 -102.77795,116.38026 -105.14291,116.78061 -1.69754,0.28754 -116.15128,6.43228 -119.80678,6.43228 -1.06899,0 12.44216,-15.53967 30.02477,-34.53257 z"
     id="path3412"
     inkscape:connector-curvature="0" />
  <path
     style="fill:#deaa87"
     d="m 596.37717,228.02833 c -43.57922,-35.49884 -79.7714,-65.29439 -80.42704,-66.21214 -0.73136,-1.02386 -0.19692,-3.69791 1.38319,-6.91969 l 2.57529,-5.2509 16.82148,13.19427 c 9.25181,7.25689 49.02021,38.42003 88.37422,69.25152 39.35401,30.8315 72.7979,57.08041 74.31976,58.33104 2.70962,2.2265 2.4913,2.27246 -10.52246,2.2116 l -13.28948,-0.0617 -79.23496,-64.54352 z"
     id="path3414"
     inkscape:connector-curvature="0" />
  <path
     style="fill:#000080"
     d="m 573.41603,251.87512 -92.13075,-60.37654 6.67025,-4.97826 c 3.66862,-2.738 7.0588,-4.98179 7.53369,-4.98611 1.07267,-0.009 158.39547,118.10604 166.02418,124.64875 3.04877,2.61469 5.2035,5.04988 4.78829,5.41142 -0.41522,0.36164 -42.21375,-26.51211 -92.88566,-59.71926 z"
     id="path3416"
     inkscape:connector-curvature="0" />
  <path
     style="fill:#d45500"
     d="m 629.77456,254.58463 c -90.7698,-73.9814 -113.40237,-92.81157 -113.40237,-94.35027 0,-2.80044 3.09886,-9.36865 4.24591,-8.99934 2.3341,0.75149 178.14345,139.23398 178.14345,140.32099 0,0.62712 -5.00104,1.14011 -11.11344,1.14011 l -11.11344,0 -46.76011,-38.11149 z"
     id="path3418"
     inkscape:connector-curvature="0" />
  <path
     style="fill:#0000ff"
     d="m 603.11639,270.33943 c -29.06959,-18.94739 -68.02979,-44.34515 -86.5782,-56.43944 -18.54842,-12.09438 -33.71735,-22.26452 -33.70873,-22.60049 0.0233,-0.91316 11.21996,-8.55153 12.53501,-8.55153 1.35124,0 148.22287,109.57188 159.87234,119.27093 9.45154,7.86911 -3.82029,-0.19757 -52.12042,-31.67947 z"
     id="path3420"
     inkscape:connector-curvature="0" />
  <path
     style="fill:#0000ff"
     d="m 445.61408,325.28277 c -20.01161,-21.68645 -36.6371,-40.0891 -36.94553,-40.89483 -0.40478,-1.05746 2.56182,-1.46496 10.66532,-1.46496 6.17437,0 12.12196,-0.29901 13.21686,-0.66505 1.27035,-0.42426 19.09562,13.5619 49.25945,38.65077 25.9978,21.62373 47.0925,39.46937 46.87713,39.65689 -0.52006,0.45248 -39.90079,4.21637 -43.71248,4.17747 -2.20237,-0.0265 -12.43466,-10.28058 -39.36075,-39.46021 z"
     id="path3422"
     inkscape:connector-curvature="0" />
  <path
     style="fill:#0000ff"
     d="m 409.1574,357.23382 c -37.66198,-53.69703 -36.27619,-51.49487 -33.52999,-53.28319 7.02849,-4.57684 5.46952,-5.79528 38.26831,29.91013 21.61502,23.5305 30.50119,34.06783 29.23515,34.66744 -1.0004,0.47365 -6.8697,1.24031 -13.04288,1.70328 l -11.22395,0.84146 -9.70664,-13.83939 z"
     id="path3424"
     inkscape:connector-curvature="0" />
  <path
     style="fill:#0000ff"
     d="m 521.95935,541.08602 c -0.0132,-1.22514 -1.26809,-31.91445 -2.78765,-68.19697 -1.51957,-36.28296 -2.77109,-66.73915 -2.78117,-67.68063 -0.0152,-1.44026 4.48127,-1.5738 28.36028,-0.84233 15.60825,0.47806 28.63254,1.09045 28.94287,1.3607 0.58995,0.51334 -7.93904,88.5579 -8.99126,92.81722 -0.88939,3.59956 -42.71316,45.22691 -42.74307,42.54201 z"
     id="path3426"
     inkscape:connector-curvature="0" />
  <path
     style="fill:#0000ff"
     d="m 472.87935,549.90984 c 0,-0.30871 -5.99781,-31.53694 -13.32846,-69.4042 -7.33065,-37.86806 -13.32845,-69.58608 -13.32845,-70.4846 0,-1.32463 3.50936,-1.47255 18.54023,-0.78148 10.19714,0.46836 18.69962,0.99105 18.89442,1.16066 0.1948,0.16935 2.11545,31.43639 4.2681,69.48182 l 3.91392,69.17311 -4.04327,0.70562 c -4.80325,0.83793 -14.91649,0.93848 -14.91649,0.14995 z"
     id="path3428"
     inkscape:connector-curvature="0" />
  <path
     style="fill:#0000ff"
     d="m 530.75289,639.60599 c -3.85296,-1.34862 -3.88702,-1.82227 -0.40802,-5.67409 1.5118,-1.67321 3.97343,-5.89283 5.47028,-9.37597 6.165,-14.34796 5.13619,-28.18523 -3.1517,-42.3903 l -4.7483,-8.13848 15.62418,-15.96825 c 8.71945,-8.91114 15.82256,-15.20706 16.0731,-14.24653 0.42757,1.64057 -7.30542,80.97466 -8.95406,91.86066 l -0.78626,5.1925 -7.98125,-0.0882 c -4.3897,0 -9.4018,-0.57332 -11.138,-1.1828 z"
     id="path3430"
     inkscape:connector-curvature="0" />
  <path
     style="fill:#0000ff"
     d="m 538.66158,394.40013 c -26.7528,-0.329 -29.10833,-0.53716 -31.43409,-2.77486 -2.42209,-2.3305 -2.41628,-2.42011 0.15853,-2.4479 1.46998,-0.0176 13.40561,-1.07431 26.52361,-2.35201 l 23.85091,-2.323 6.29503,5.40604 c 3.46225,2.97332 5.67197,5.28044 4.91047,5.12679 -0.76154,-0.15347 -14.3985,-0.43925 -30.30446,-0.63506 z"
     id="path3432"
     inkscape:connector-curvature="0" />
  <path
     style="fill:#ff6600"
     d="m 437.33992,397.24406 c -0.602,-1.366 1.53094,-1.91542 10.02161,-2.58161 19.74242,-1.54894 21.37914,-1.44071 23.72088,1.56824 l 2.13919,2.74867 -17.55846,0 c -13.87641,0 -17.71883,-0.36428 -18.32322,-1.7353 z"
     id="path3434"
     inkscape:connector-curvature="0" />
  <path
     style="fill:#ff6600"
     d="m 641.94025,295.22834 c -3.85824,-2.56071 -40.94991,-26.73738 -82.42595,-53.72596 -41.47606,-26.98859 -75.411,-49.50405 -75.411,-50.03441 0,-0.92551 3.7728,-4.11846 8.60403,-7.2815 2.77454,-1.81654 -1.39145,-4.73676 82.59065,57.8939 66.96204,49.93765 77.24694,57.86118 75.06025,57.82625 -0.77168,-0.009 -4.55974,-2.11757 -8.41798,-4.67828 z"
     id="path3436"
     inkscape:connector-curvature="0" />
  <path
     style="fill:#ff6600"
     d=""
     id="path3438"
     inkscape:connector-curvature="0" />
  <path
     style="fill:#ff6600"
     d="m 622.29831,247.93413 c -30.09424,-24.57932 -66.19149,-54.25924 -80.21613,-65.9552 -25.10046,-20.93293 -25.47969,-21.32508 -24.24495,-25.07397 1.72215,-5.22857 2.05652,-5.34632 6.51282,-2.29406 5.18263,3.54972 72.77612,56.50964 128.62748,100.78043 48.97417,38.81959 47.409,36.94722 31.05257,37.14691 l -7.01497,0.0882 -54.71682,-44.68975 0,0 z"
     id="path3440"
     inkscape:connector-curvature="0" />
  <path
     style="fill:#ff6600"
     d="m 515.42922,393.20295 c -3.21941,-0.2549 -6.51802,-1.16022 -7.33026,-2.01243 -1.17204,-1.22964 3.75587,-2.00653 23.87912,-3.76468 l 25.35593,-2.21522 5.10037,4.44111 5.10037,4.4411 -23.12604,-0.21345 c -12.71932,-0.11731 -25.7601,-0.42161 -28.97949,-0.67652 z"
     id="path3442"
     inkscape:connector-curvature="0" />
  <path
     style="fill:#ff6600"
     id="path3444"
     d="m 520.44196,65.414324 c -1.53275,-0.06174 -3.10038,0.0441 -4.45262,0.748843 -0.39334,0.20463 -1.46716,0.94968 -1.06579,0.75678 16.75304,-8.049924 20.54152,-12.814467 15.94819,-7.357884 -0.1405,0.335171 -0.281,0.671224 -0.42149,1.006836 0,0 -18.69311,7.866815 -18.69311,7.866815 l 0,0 c 0.0608,-0.485116 0.12145,-0.97032 0.18213,-1.455524 3.15235,-7.22805 0.28565,-1.451643 19.14623,-11.42686 1.84158,-0.973936 4.35291,-0.659757 6.36612,-0.582139 0,0 -17.00965,10.442957 -17.00965,10.442957 z"
     inkscape:connector-curvature="0" />
  <path
     style="fill:#000000"
     id="path3446"
     d="m 527.54194,97.428442 c -3.73658,0.0054 -7.41193,-0.712679 -10.89142,-1.860728 -2.98617,-0.757663 -5.54319,-2.321853 -8.35837,-3.401015 -1.38101,-0.632415 -2.58667,-1.45817 -3.8714,-2.216538 0,0 17.57336,-9.752681 17.57336,-9.752681 l 0,0 c 1.16933,0.728556 2.35384,1.431092 3.6442,1.992503 2.6674,1.192679 5.26005,2.527277 8.15915,3.27656 3.43243,0.942536 6.96587,1.520442 10.58413,1.308578 0,0 -16.83965,10.653321 -16.83965,10.653321 z"
     inkscape:connector-curvature="0" />
  <path
     style="fill:none;fill-rule:evenodd;stroke:#000000;stroke-width:9.45231247px;stroke-linecap:butt;stroke-linejoin:miter;stroke-opacity:1"
     d="M 485.22571,46.900892 469.79276,50.56581"
     id="path3448"
     inkscape:connector-curvature="0" />
  <path
     style="fill:none;fill-rule:evenodd;stroke:#000000;stroke-width:9.45231247px;stroke-linecap:butt;stroke-linejoin:miter;stroke-opacity:1"
     d="m 475.40473,65.22557 c 0.71698,-7.374114 -5.32878,0.246968 -7.01497,-1.22161 -0.33073,-0.287541 0.33064,-0.933716 0,-1.221698 -0.66136,-0.575965 -1.96941,0.364278 -2.80599,0 -0.59157,-0.257553 -0.93537,-0.814113 -1.403,-1.22161"
     id="path3450"
     inkscape:connector-curvature="0" />
  <path
     style="fill:none;fill-rule:evenodd;stroke:#000000;stroke-width:9.45231247px;stroke-linecap:butt;stroke-linejoin:miter;stroke-opacity:1"
     d="m 469.79276,81.10694 c -1.87066,-0.407498 -3.74133,-0.814113 -5.61199,-1.22161 0,-0.407498 0.33074,-0.933716 0,-1.22161 -0.66136,-0.575965 -2.80598,0.814112 -2.80598,0 0,-0.407497 0.93537,0 1.40299,0"
     id="path3452"
     inkscape:connector-curvature="0" />
  <path
     style="fill:none;fill-rule:evenodd;stroke:#000000;stroke-width:9.45231247px;stroke-linecap:butt;stroke-linejoin:miter;stroke-opacity:1"
     d="m 496.44966,46.900892 c -1.40299,-1.628842 -3.00592,-3.140728 -4.20899,-4.886616 -0.16805,-0.24344 0,-3.215701 0,-3.664918 0,-2.85054 0,-5.700993 0,-8.551534"
     id="path3454"
     inkscape:connector-curvature="0" />
  <path
     style="fill:none;fill-rule:evenodd;stroke:#000000;stroke-width:9.45231247px;stroke-linecap:butt;stroke-linejoin:miter;stroke-opacity:1"
     d="m 511.8826,45.679194 c 0,-4.479383 0,-8.958678 0,-13.438062"
     id="path3456"
     inkscape:connector-curvature="0" />
  <path
     style="fill:none;fill-rule:evenodd;stroke:#000000;stroke-width:9.45231247px;stroke-linecap:butt;stroke-linejoin:miter;stroke-opacity:1"
     d="m 524.50956,45.679194 c 1.87066,-0.814113 3.74132,-1.628843 5.61198,-2.443308 0,-0.407497 -0.33073,-0.933627 0,-1.22161 0.33073,-0.287541 1.07231,0.287542 1.403,0 0.33063,-0.287541 -0.33073,-0.933716 0,-1.22161 2.90285,-2.52763 -0.11345,3.862493 2.80599,-1.221698 0.20918,-0.364278 -0.33073,-0.933716 0,-1.22161 0.33073,-0.287541 1.0723,0.287542 1.40299,0 0.33074,-0.287541 -0.33073,-0.933715 0,-1.221698 0.33074,-0.287541 1.0723,0.288424 1.403,0 1.87065,-1.628842 -2.33833,-1.22161 1.40299,-1.22161"
     id="path3458"
     inkscape:connector-curvature="0" />
</svg>
