<?xml version="1.0" encoding="UTF-8" standalone="no"?>
<!-- Created with Inkscape (http://www.inkscape.org/) -->

<svg
   xmlns:dc="http://purl.org/dc/elements/1.1/"
   xmlns:cc="http://creativecommons.org/ns#"
   xmlns:rdf="http://www.w3.org/1999/02/22-rdf-syntax-ns#"
   xmlns:svg="http://www.w3.org/2000/svg"
   xmlns="http://www.w3.org/2000/svg"
   xmlns:sodipodi="http://sodipodi.sourceforge.net/DTD/sodipodi-0.dtd"
   xmlns:inkscape="http://www.inkscape.org/namespaces/inkscape"
   width="297mm"
   height="210mm"
   viewBox="0 0 1052.3622 744.09448"
   id="svg2"
   version="1.1"
   inkscape:version="0.91 r13725"
   sodipodi:docname="leRomu.svg"
   inkscape:export-filename="/Users/paul/projects/SauteLaSardine/leRomu.png"
   inkscape:export-xdpi="72.277336"
   inkscape:export-ydpi="72.277336">
  <defs
     id="defs4" />
  <sodipodi:namedview
     id="base"
     pagecolor="#ffffff"
     bordercolor="#666666"
     borderopacity="1.0"
     inkscape:pageopacity="0.0"
     inkscape:pageshadow="2"
     inkscape:zoom="1.6290957"
     inkscape:cx="336.08099"
     inkscape:cy="178.17965"
     inkscape:document-units="px"
     inkscape:current-layer="layer1"
     showgrid="false"
     inkscape:snap-global="false"
     inkscape:window-width="1920"
     inkscape:window-height="1072"
     inkscape:window-x="0"
     inkscape:window-y="1"
     inkscape:window-maximized="1" />
  <metadata
     id="metadata7">
    <rdf:RDF>
      <cc:Work
         rdf:about="">
        <dc:format>image/svg+xml</dc:format>
        <dc:type
           rdf:resource="http://purl.org/dc/dcmitype/StillImage" />
        <dc:title></dc:title>
      </cc:Work>
    </rdf:RDF>
  </metadata>
  <g
     inkscape:label="Layer 1"
     inkscape:groupmode="layer"
     id="layer1"
     transform="translate(0,-308.26772)">
    <ellipse
       style="fill:#ff0000"
       id="path3336"
       cx="491.15182"
       cy="896.25604"
       rx="131.40875"
       ry="45.200882" />
    <ellipse
       style="fill:#f4e3d7"
       id="path3338"
       cx="640.73413"
       cy="872.02466"
       rx="33.085182"
       ry="32.153202" />
    <path
       style="fill:none;fill-rule:evenodd;stroke:#000000;stroke-width:1px;stroke-linecap:butt;stroke-linejoin:miter;stroke-opacity:1"
       d="m 411.00182,807.25227 -1.86395,2.79593"
       id="path3384"
       inkscape:connector-curvature="0" />
    <ellipse
       style="fill:#ff0000"
       id="path3412"
       cx="565.71002"
       cy="903.71185"
       rx="23.299423"
       ry="19.105528" />
    <path
       style="fill:#ffccaa"
       id="path3422"
       sodipodi:type="arc"
       sodipodi:cx="-55.637646"
       sodipodi:cy="896.69086"
       sodipodi:rx="46.112518"
       sodipodi:ry="31.159424"
       sodipodi:start="0"
       sodipodi:end="6.2809183"
       d="m -9.5251274,896.69086 a 46.112518,31.159424 0 0 1 -46.0863836,31.15942 46.112518,31.159424 0 0 1 -46.138619,-31.1241 46.112518,31.159424 0 0 1 46.034081,-31.1947 46.112518,31.159424 0 0 1 46.1908031,31.08874 l -46.1124001,0.0706 z"
       transform="matrix(0.43145686,-0.90213357,0.37911109,0.92535117,0,0)" />
    <path
       style="fill:#c87137"
       id="path3422-7"
       sodipodi:type="arc"
       sodipodi:cx="-90.690956"
       sodipodi:cy="875.68475"
       sodipodi:rx="46.916428"
       sodipodi:ry="31.579653"
       sodipodi:start="1.2078077"
       sodipodi:end="3.9911368"
       d="m -74.032354,905.20667 a 46.916428,31.579653 0 0 1 -56.847996,-13.22828 46.916428,31.579653 0 0 1 9.20928,-40.00931 l 30.980114,23.71567 z"
       transform="matrix(0.46239203,-0.88667559,0.40787549,0.91303756,0,0)" />
    <path
       style="fill:#c87137"
       id="path3439"
       sodipodi:type="arc"
       sodipodi:cx="295.43668"
       sodipodi:cy="919.55548"
       sodipodi:rx="27.959307"
       sodipodi:ry="12.581689"
       sodipodi:start="1.207808"
       sodipodi:end="1.2055557"
       d="m 305.36417,931.31735 a 27.959307,12.581689 0 0 1 -36.05938,-7.28787 27.959307,12.581689 0 0 1 16.17496,-16.23083 27.959307,12.581689 0 0 1 36.0776,7.2696 27.959307,12.581689 0 0 1 -16.13433,16.239 l -9.98634,-11.75177 z" />
    <ellipse
       style="fill:#445500"
       id="path3414"
       ry="19.247356"
       rx="44.620255"
       cy="-441.02112"
       cx="-885.20813"
       transform="matrix(-0.76891231,-0.63935426,0.74454517,-0.66757208,0,0)" />
    <path
       style="fill:#445500"
       id="path3336-0"
       sodipodi:type="arc"
       sodipodi:cx="495.05618"
       sodipodi:cy="895.79254"
       sodipodi:rx="138.10902"
       sodipodi:ry="47.160313"
       sodipodi:start="1.8882229"
       sodipodi:end="4.4029511"
       d="m 451.94922,940.59681 a 138.10902,47.160313 0 0 1 -95.00096,-44.99264 138.10902,47.160313 0 0 1 96.05051,-44.73206"
       sodipodi:open="true" />
    <path
       style="fill:#ff2a2a"
       id="path3458"
       sodipodi:type="arc"
       sodipodi:cx="503.26752"
       sodipodi:cy="892.52814"
       sodipodi:rx="101.58548"
       sodipodi:ry="20.969481"
       sodipodi:start="1.8882194"
       sodipodi:end="1.7035411"
       sodipodi:open="true"
       d="m 471.56072,912.45004 a 101.58548,20.969481 0 0 1 -66.16429,-25.54045 101.58548,20.969481 0 0 1 120.54376,-14.82199 101.58548,20.969481 0 0 1 77.29125,24.17229 101.58548,20.969481 0 0 1 -113.4093,17.05325" />
    <path
       style="fill:#ffccaa"
       id="path3458-9"
       sodipodi:type="arc"
       sodipodi:cx="557.02966"
       sodipodi:cy="892.52435"
       sodipodi:rx="158.14357"
       sodipodi:ry="24.783331"
       sodipodi:start="2.1135726"
       sodipodi:end="4.1657698"
       d="m 475.3461,913.74577 a 158.14357,24.783331 0 0 1 -76.45971,-21.1738 158.14357,24.783331 0 0 1 75.93993,-21.21969"
       sodipodi:open="true" />
  </g>
</svg>
